<svg id="Modo_de_aislamiento" data-name="Modo de aislamiento" xmlns="http://www.w3.org/2000/svg" viewBox="0 0 2063.37 1843.68"><defs><style>.cls-1{fill:#e4ac4b;}.cls-2{opacity:0.3;}.cls-3{fill:#5d1e4e;}.cls-4{fill:#f1cc30;}.cls-5{opacity:0.65;}.cls-6{fill:#fff;}.cls-7{fill:#cb1e27;}.cls-8{fill:#a01c27;}.cls-9{fill:#e8c352;}.cls-10{fill:#7dc562;}.cls-11{fill:#592047;}.cls-12{fill:#582147;}.cls-13{fill:#d59654;}.cls-14{fill:#5e1e4e;}</style></defs><path class="cls-1" d="M586.69,1825.23s-41.39,131.56,266.73-57,1077.19-332.61,1441-286.61,107-818.8-163-957.63S1016.84,984.68,586.69,1825.23Z" transform="translate(-519.79 -230.31)"/><g class="cls-2"><path class="cls-3" d="M611.15,1796.12s-65.85,160.67,242.27-27.85,1077.19-332.61,1441-286.61,107-818.8-163-957.63S1041.3,955.57,611.15,1796.12Z" transform="translate(-519.79 -230.31)"/></g><path class="cls-3" d="M639.81,1873.78c-16.19,0-29-3.86-38.49-11.54-29-23.49-13.33-69.29-12.65-71.23a13.55,13.55,0,0,1,.75-1.75c197.71-386.34,452.8-669.15,632-838.36,227.06-214.44,466.66-372.63,657.36-434,110.06-35.43,197.24-37.25,259.11-5.44,98.06,50.42,200.37,194.59,273.69,385.65,71.83,187.22,95.43,371.43,61.57,480.75-24.41,78.8-76.51,119.75-151.53,119.76a231.24,231.24,0,0,1-28.93-1.89c-374.34-47.34-1137.1,104.29-1431.85,284.63C758.67,1842.84,685.66,1873.78,639.81,1873.78Zm-24.7-72.58c-2.62,8.25-6.76,30.36,4.06,39.06,9.08,7.29,52.26,22.77,226.87-84.07,146-89.35,402.74-174.3,704.29-233.07,292-56.89,570.78-77.65,745.88-55.5,76.27,9.61,126.71-23.38,149.87-98.16,32.07-103.54,8.71-280.66-61-462.23-69.83-182-169.53-324-260.19-370.61-54.17-27.85-136.3-25.36-237.49,7.21-186.83,60.14-422.5,216-646.6,427.65C1063.42,1139,810.92,1419,615.11,1801.2Z" transform="translate(-519.79 -230.31)"/><path class="cls-4" d="M2150.48,689.67c-42.76-9.83,4.26-25.89-52.43-82.41s-119-10.06-119-10.06c10.12-20.72,12.42-40,1.55-55.18-48.78-68.34-176.85-25.57-223.72-80.4s-158.78-4.55-158.78-4.55S929.8,856,738.49,1315.44,561.78,1916,644.93,1884.15s144.44-103.5,205.33-47-15.14,162.36,58.49,214.55c41.23,29.22,136.7-23.24,90.83-101.53S893,1726.76,995.85,1648.91,1335,1529.64,1321.07,1639c-34.58,271,253.69,156,164.16,41.55-76-97.24-6.09-268,163.45-174,142.3,78.89,124.21-28.53,264.58-74.65,104.71-34.41,297.39-35.53,297.39-35.53,135.22-79.42,13-118.62,13-118.62s113.3-87.24,84.88-147.51S2293.88,975,2296.39,878.89,2193.24,699.5,2150.48,689.67Z" transform="translate(-519.79 -230.31)"/><g class="cls-2"><path class="cls-3" d="M2150.48,689.67c-42.76-9.83,4.26-25.89-52.43-82.41s-119-10.06-119-10.06c10.12-20.72,12.42-40,1.55-55.18-48.78-68.34-176.85-25.57-223.72-80.4s-158.78-4.55-158.78-4.55-15.55,9.28-42.54,26.61c209.08,54.94,640.62,231.1,561.18,858.18,0,0-834.6,59.89-1064,202.49-165,102.56-330.87,295.33-459.53,320.07,9.21,23.57,27.58,29,51.76,19.73,83.15-31.81,144.44-103.5,205.33-47s-15.14,162.36,58.49,214.55c41.23,29.22,136.7-23.24,90.83-101.53S893,1726.76,995.85,1648.91,1335,1529.64,1321.07,1639c-34.58,271,253.69,156,164.16,41.55-76-97.24-6.09-268,163.45-174,142.3,78.89,124.21-28.53,264.58-74.65,104.71-34.41,297.39-35.53,297.39-35.53,135.22-79.42,13-118.62,13-118.62s113.3-87.24,84.88-147.51S2293.88,975,2296.39,878.89,2193.24,699.5,2150.48,689.67Z" transform="translate(-519.79 -230.31)"/></g><g class="cls-5"><path class="cls-6" d="M2187,711.17a77.6,77.6,0,0,1,12.49,4.22,199.82,199.82,0,0,0-32.94-19.9C2167.52,702.84,2170.85,707.45,2187,711.17Z" transform="translate(-519.79 -230.31)"/><path class="cls-6" d="M2261.29,1299.65l-.72-.71-.41.32S2260.57,1299.39,2261.29,1299.65Z" transform="translate(-519.79 -230.31)"/><path class="cls-6" d="M2015.59,618.69s36.54-27.19,79.11-14.58c-24.69-22.8-50.16-26.8-70.91-24.12C2025.58,591.73,2022.34,604.88,2015.59,618.69Z" transform="translate(-519.79 -230.31)"/><path class="cls-6" d="M1970.92,530.81C1928.63,490.08,1849.12,502,1795.2,485,1831.79,524.35,1912.85,510.39,1970.92,530.81Z" transform="translate(-519.79 -230.31)"/><path class="cls-6" d="M1598.11,457.07s-297.44,177.54-552.26,432.16A106.09,106.09,0,0,0,1031.61,902a107.35,107.35,0,0,0-7.73,9.46c-118.49,121.74-225.4,259.87-285.39,404-179.67,431.49-177.72,582.13-108,572.55-24.06-55.52,7.16-221.25,144.49-551,51.65-124,138.08-243.68,236.72-352.24a39.3,39.3,0,0,0,7.72,10c21.91,20.27,62.88,11.63,91.5-19.31s34-72.44,12.14-92.71a39.27,39.27,0,0,0-7-5c246.6-236.8,501.25-418.22,501.25-418.22s86.46-12,138.82,1.42C1708.93,407.31,1598.11,457.07,1598.11,457.07Z" transform="translate(-519.79 -230.31)"/></g><path class="cls-3" d="M937.19,2074c-13.56,0-26.38-3.5-36.62-10.76-44.85-31.78-42.1-80.44-39.67-123.36,2-35.95,3.94-69.91-20.27-92.36-34-31.54-66.65-15.58-121.42,15.35-21.7,12.24-44.14,24.91-69.22,34.51-30.11,11.52-48.08,1.93-57.86-8.13-62.42-64.27,38-350.47,133.29-579.24,100-240,330.13-462.57,505.63-607,189.61-156,358.12-257.1,359.8-258.11.47-.28,1-.53,1.45-.76,5-2.22,122.2-53.9,175.35,8.27,18.38,21.51,55.15,25.36,94.08,29.43,47.28,4.95,100.87,10.57,130.4,51.94,7.59,10.62,10.79,22.83,9.63,36.5,29.66-9.4,70.2-9,106.29,26.94,33.95,33.86,35,56.65,35.69,70.26.08,1.75.19,4,.39,5.21.88.54,3.4,1.77,9.52,3.18h0c49.25,11.32,159.59,99.89,156.89,203.38-.55,21.24-1.66,42.48-2.72,63-3.69,71-7.17,138.09,13.5,181.94,25.68,54.49-37.73,120.29-71.17,149.89,16.17,9,35.47,24.48,38,47.67,3.18,28.74-19.84,57.14-70.37,86.82a14.11,14.11,0,0,1-7.08,1.94c-1.91,0-191.69,1.52-293.06,34.82-50.49,16.6-78.82,41.05-103.82,62.63-46.51,40.14-79.7,62.16-172,11-63.27-35.08-117.7-34-149.32,3.06-33.14,38.82-31.44,104.62,3.89,149.8,25.88,33.1,27,71.78,3.1,103.46-29.07,38.47-85.52,54.86-128.52,37.35-30.65-12.49-79.7-51.89-63.93-175.43,2.29-17.89-3.44-30.16-18-38.6-53.75-31.14-205.38,1.68-284.62,61.62-99,74.9-27.81,222.72,7.4,282.8,22.6,38.56,18,78.2-12.36,106C981.66,2065.32,958.51,2074,937.19,2074ZM801.43,1802.06c19.63,0,39.18,6.82,58.46,24.69,34,31.52,31.47,75.72,29.27,114.72-2.3,40.74-4.29,75.93,27.78,98.66,15.37,10.89,44.39,5.42,63.35-12,11.81-10.82,28.42-34.43,7.07-70.85-39-66.61-117.17-231.09-.05-319.69,81.36-61.54,246.4-103.8,315.89-63.54,24.63,14.26,35.66,37.33,31.92,66.68-9.91,77.65,6.61,129.36,46.52,145.63,31.17,12.7,73.9.06,95.26-28.2,9.37-12.41,21.48-37.87-2.82-69-43.32-55.4-44.69-136.93-3.12-185.62,40.56-47.51,109.55-51,184.58-9.44,79.75,44.22,99.83,26.89,139.83-7.64,25.66-22.15,57.6-49.72,113.47-68.08,98.62-32.4,269.24-35.85,297.86-36.2,48.57-29.19,54.32-48.39,53.35-57.33-1.88-17.3-30.79-30.45-40.77-33.7a14.16,14.16,0,0,1-4.29-24.68c27-20.86,99.91-89.56,80.72-130.26-23.71-50.29-20-120.82-16.17-195.48,1.06-20.36,2.15-41.41,2.7-62.29,2.25-86.11-94.94-165.86-134.93-175-25.67-5.9-31-16.72-31.85-34.63-.51-10.74-1.21-25.45-27.4-51.56-47.1-46.95-98.42-10.28-100.58-8.7A14.17,14.17,0,0,1,1966.34,591c12.93-26.49,5.27-37.22,2.75-40.75-22.12-31-65-35.48-110.31-40.23-42.74-4.48-86.93-9.1-112.65-39.19-32.51-38-112.38-14-141.47-1.18-12,7.26-174.16,105.88-356,255.51-172.9,142.31-399.49,361.18-497.16,595.73-70,168.17-116.35,302.93-137.71,400.55-24.1,110.13-9,140.24-1.4,148.08,2.09,2.14,8.44,8.67,27.43,1.42,23.12-8.85,44.62-21,65.42-32.73C737,1820.32,769.3,1802.06,801.43,1802.06Z" transform="translate(-519.79 -230.31)"/><path class="cls-3" d="M1698.94,1386.9c80.85-14.58,162-27.7,243.63-38.25,40.81-5.26,81.73-9.86,122.81-13.45s82.32-6.17,123.78-7a12.39,12.39,0,1,1,.47,24.77H2189c-40.67-1.27-81.55-.76-122.44.73s-81.8,4-122.68,7.23C1862.07,1367.39,1780.42,1376.4,1698.94,1386.9Z" transform="translate(-519.79 -230.31)"/><g class="cls-2"><path class="cls-3" d="M1960,523.59l1.14-.8-.57-.41C1960.36,522.78,1960.19,523.19,1960,523.59Z" transform="translate(-519.79 -230.31)"/><path class="cls-3" d="M2277.32,805.29c-2.51,96.13-16.29,191.09,12.12,251.36a47,47,0,0,1,3.37,9.94c-5.36-54.47,1.83-120.79,3.58-187.7.69-26.54-6.89-52.09-19.09-75.4C2277.29,804.09,2277.33,804.69,2277.32,805.29Z" transform="translate(-519.79 -230.31)"/><path class="cls-3" d="M2294,1076.88c.8,57.79-89.44,127.28-89.44,127.28s47.26,15.17,50.49,45.73c31.16-30.67,71.79-80.76,53.46-119.64C2301.14,1114.61,2296.62,1096.61,2294,1076.88Z" transform="translate(-519.79 -230.31)"/></g><ellipse class="cls-7" cx="1688.77" cy="741.92" rx="205.96" ry="164.37" transform="translate(-652 805.59) rotate(-32.89)"/><g class="cls-5"><path class="cls-6" d="M1718.8,904.09c-101,26.18-189.66-24.54-198-113.28s66.8-181.9,167.81-208.08c74.29-19.25,141.85,3.13,175.73,51.59-33.85-57-108.78-84.25-191.58-62.79-107.12,27.76-186.8,126.55-178,220.65s102.84,147.89,210,120.13a251.56,251.56,0,0,0,77.94-35.47A236.2,236.2,0,0,1,1718.8,904.09Z" transform="translate(-519.79 -230.31)"/></g><path class="cls-8" d="M1704.87,610.2l23.39,249c65.4-28.61,110.75-93,105-154.75S1772.41,604.36,1704.87,610.2Z" transform="translate(-519.79 -230.31)"/><path class="cls-8" d="M1646.32,625.94c-63.8,29.23-107.7,92.62-102,153.41s59.15,98.95,125.28,94.52Z" transform="translate(-519.79 -230.31)"/><path class="cls-8" d="M1646.32,625.94c-63.8,29.23-107.7,92.62-102,153.41s59.15,98.95,125.28,94.52Z" transform="translate(-519.79 -230.31)"/><path class="cls-7" d="M1655.29,709c-20.9,9.58-35.29,30.35-33.42,50.27s19.38,32.42,41.05,31Z" transform="translate(-519.79 -230.31)"/><path class="cls-7" d="M1711.6,694.4c21.67-1.45,39.17,11.05,41.05,31s-12.52,40.69-33.42,50.26Z" transform="translate(-519.79 -230.31)"/><path class="cls-3" d="M1649.23,931.6c-39,0-75.38-10.56-104.52-31C1509,875.51,1487,837.41,1482.84,793.3c-9.35-99.57,74.5-204.27,186.91-233.4,60.24-15.62,119.68-7.1,163.08,23.35,35.75,25.08,57.72,63.18,61.87,107.29,9.35,99.57-74.5,204.28-186.91,233.4A233.71,233.71,0,0,1,1649.23,931.6Zm79.14-355.33a210,210,0,0,0-52.59,6.89c-101.49,26.3-177.3,119.56-169,207.89,3.47,37,21.85,68.9,51.74,89.87,37.62,26.4,89.83,33.59,143.25,19.76,101.49-26.3,177.31-119.56,169-207.89-3.47-37-21.85-68.9-51.74-89.87C1794,585.33,1762.42,576.27,1728.37,576.27Z" transform="translate(-519.79 -230.31)"/><path class="cls-9" d="M1624.08,819.51a74.9,74.9,0,0,1,3.14,10.53,32.47,32.47,0,0,1,1.17,10.09,8.67,8.67,0,1,1-17.28-1.32,8.88,8.88,0,0,1,.5-2.32,32,32,0,0,1,5.25-8.7A73.86,73.86,0,0,1,1624.08,819.51Z" transform="translate(-519.79 -230.31)"/><path class="cls-9" d="M1596.58,794.41a75.32,75.32,0,0,1-2.43,10.76,32.26,32.26,0,0,1-3.93,9.42,8.66,8.66,0,1,1-14.43-9.58,8.88,8.88,0,0,1,1.56-1.77,32.16,32.16,0,0,1,8.86-5.08A73.93,73.93,0,0,1,1596.58,794.41Z" transform="translate(-519.79 -230.31)"/><path class="cls-9" d="M1589.24,754.3a66.29,66.29,0,0,1-7,7.63,28.21,28.21,0,0,1-7.57,5.71,8.68,8.68,0,0,1-7.4-15.7,8.81,8.81,0,0,1,2.46-.74,28.17,28.17,0,0,1,9.45.59A67.16,67.16,0,0,1,1589.24,754.3Z" transform="translate(-519.79 -230.31)"/><path class="cls-9" d="M1604.66,713.26a60.77,60.77,0,0,1-9.59,1.89,24.82,24.82,0,0,1-8.85,0,8.7,8.7,0,0,1,3.76-17,9,9,0,0,1,2.58,1,24.79,24.79,0,0,1,6.42,6.08A61.83,61.83,0,0,1,1604.66,713.26Z" transform="translate(-519.79 -230.31)"/><path class="cls-9" d="M1637.4,685.68a64.13,64.13,0,0,1-8.74-5,26.54,26.54,0,0,1-7-6,8.68,8.68,0,1,1,15.11-8.15,26.7,26.7,0,0,1,1.19,9.12A63.87,63.87,0,0,1,1637.4,685.68Z" transform="translate(-519.79 -230.31)"/><path class="cls-9" d="M1764.33,782.81a66.62,66.62,0,0,1,8.45,5.88,27.76,27.76,0,0,1,6.61,6.7,8.68,8.68,0,1,1-14.59,9.4,8.88,8.88,0,0,1-1.06-2.36,27.81,27.81,0,0,1-.62-9.39A64.92,64.92,0,0,1,1764.33,782.81Z" transform="translate(-519.79 -230.31)"/><path class="cls-9" d="M1785.38,744.71a61,61,0,0,1,9.72-.92,24.59,24.59,0,0,1,8.8.87,8.69,8.69,0,1,1-7.9,15.23,24.72,24.72,0,0,1-5.78-6.69A60.21,60.21,0,0,1,1785.38,744.71Z" transform="translate(-519.79 -230.31)"/><path class="cls-9" d="M1784.88,702.28a65,65,0,0,1,7.28-7,26.42,26.42,0,0,1,7.7-5,8.69,8.69,0,0,1,6.23,16.22,9,9,0,0,1-2.6.56,26.74,26.74,0,0,1-9.09-1.39A64,64,0,0,1,1784.88,702.28Z" transform="translate(-519.79 -230.31)"/><path class="cls-9" d="M1763,670.42a71.81,71.81,0,0,1,2.76-10.47,30.63,30.63,0,0,1,4.2-9.05,8.66,8.66,0,1,1,14,10.2,9,9,0,0,1-1.68,1.74,31.25,31.25,0,0,1-8.92,4.49A74,74,0,0,1,1763,670.42Z" transform="translate(-519.79 -230.31)"/><path class="cls-9" d="M1727.46,660.29a74.64,74.64,0,0,1-2.7-10.68,32.19,32.19,0,0,1-.76-10.18,8.66,8.66,0,1,1,17.21,2,9.1,9.1,0,0,1-.59,2.28,32.15,32.15,0,0,1-5.61,8.53A74.08,74.08,0,0,1,1727.46,660.29Z" transform="translate(-519.79 -230.31)"/><path class="cls-8" d="M1728.26,871.25a12,12,0,0,1-12-10.89l-23.39-249a12,12,0,0,1,10.92-13.1c75.59-6.56,135,37.69,141.35,105.14,6.16,65.59-41,135.77-112.11,166.87A11.87,11.87,0,0,1,1728.26,871.25ZM1718,621.64l20.58,219.08c53.33-29.62,87.44-84.21,82.66-135.1-4.7-50.08-47.22-84-103.06-84Z" transform="translate(-519.79 -230.31)"/><path class="cls-8" d="M1659.27,886.23c-68.43,0-121-43.11-126.9-105.76-6.13-65.21,38.67-133.26,109-165.46a12,12,0,0,1,17,9.8l23.28,247.93a12,12,0,0,1-11.16,13.12C1666.66,886.11,1662.94,886.23,1659.27,886.23ZM1636,644.8c-51.52,30-84.39,83.84-79.74,133.42s45.14,83,100.15,84Z" transform="translate(-519.79 -230.31)"/><ellipse class="cls-7" cx="1259.38" cy="1185.91" rx="192.66" ry="153.76" transform="translate(-961.9 643.59) rotate(-32.89)"/><g class="cls-5"><path class="cls-6" d="M1287.47,1337.61c-94.49,24.48-177.41-23-185.21-106s62.49-170.15,157-194.64c69.49-18,132.68,2.92,164.38,48.26-31.66-53.28-101.75-78.81-179.21-58.74-100.2,26-174.73,118.38-166.47,206.4s96.2,138.34,196.41,112.38a235.33,235.33,0,0,0,72.9-33.19A220.73,220.73,0,0,1,1287.47,1337.61Z" transform="translate(-519.79 -230.31)"/></g><path class="cls-8" d="M1274.44,1062.7l21.88,233c61.17-26.76,103.59-87,98.17-144.75S1337.62,1057.24,1274.44,1062.7Z" transform="translate(-519.79 -230.31)"/><path class="cls-8" d="M1219.67,1077.42c-59.68,27.34-100.75,86.64-95.4,143.5s55.32,92.56,117.18,88.42Z" transform="translate(-519.79 -230.31)"/><path class="cls-8" d="M1219.67,1077.42c-59.68,27.34-100.75,86.64-95.4,143.5s55.32,92.56,117.18,88.42Z" transform="translate(-519.79 -230.31)"/><path class="cls-7" d="M1228.06,1155.11c-19.55,9-33,28.38-31.26,47s18.13,30.33,38.4,29Z" transform="translate(-519.79 -230.31)"/><path class="cls-7" d="M1280.73,1141.46c20.27-1.36,36.65,10.34,38.4,29s-11.71,38.06-31.26,47Z" transform="translate(-519.79 -230.31)"/><path class="cls-3" d="M1222.39,1364.48c-36.72,0-71-9.94-98.43-29.21-33.72-23.65-54.44-59.59-58.35-101.19-8.8-93.67,70-192.16,175.69-219.55,56.68-14.68,112.63-6.66,153.5,22,33.72,23.65,54.44,59.59,58.35,101.19h0c8.79,93.68-70,192.16-175.7,219.55A220.23,220.23,0,0,1,1222.39,1364.48Zm74-332.38a195.54,195.54,0,0,0-48.9,6.41c-94.42,24.47-165,111.16-157.25,193.25,3.22,34.26,20.24,63.81,47.92,83.24,34.91,24.49,83.41,31.16,133,18.31,94.41-24.47,165-111.16,157.24-193.26h0c-3.21-34.25-20.23-63.81-47.91-83.23C1357.32,1040.51,1328,1032.1,1296.42,1032.1Z" transform="translate(-519.79 -230.31)"/><path class="cls-9" d="M1216.16,1262.1a66.75,66.75,0,0,1,4.85,8.4,31.35,31.35,0,0,1,3.19,8.49,7.13,7.13,0,0,1-14,2.53,7.3,7.3,0,0,1-.1-1.74,31.29,31.29,0,0,1,2.22-8.79A68.84,68.84,0,0,1,1216.16,1262.1Z" transform="translate(-519.79 -230.31)"/><path class="cls-9" d="M1184.08,1249.18a75.22,75.22,0,0,1-.23,10.13,34.58,34.58,0,0,1-1.72,9.38,7.12,7.12,0,0,1-13.37-4.92,7.31,7.31,0,0,1,.74-1.48,34.7,34.7,0,0,1,6.55-6.93A74,74,0,0,1,1184.08,1249.18Z" transform="translate(-519.79 -230.31)"/><path class="cls-9" d="M1167,1217.25a69.48,69.48,0,0,1-4.89,8.45,31.77,31.77,0,0,1-5.81,7.07,7.13,7.13,0,1,1-7.78-11.82,31.75,31.75,0,0,1,8.78-2.55A69.21,69.21,0,0,1,1167,1217.25Z" transform="translate(-519.79 -230.31)"/><path class="cls-9" d="M1171,1177.51a61.31,61.31,0,0,1-8,4.14,26.88,26.88,0,0,1-8,2.47,7.14,7.14,0,0,1-1.5-14.2,7.6,7.6,0,0,1,1.91,0,26.83,26.83,0,0,1,7.82,2.94A60.68,60.68,0,0,1,1171,1177.51Z" transform="translate(-519.79 -230.31)"/><path class="cls-9" d="M1194.56,1143.91a57.77,57.77,0,0,1-8.66-2,26.1,26.1,0,0,1-7.56-3.17,7.15,7.15,0,0,1,8.05-11.81,7.57,7.57,0,0,1,1.45,1.31,26.1,26.1,0,0,1,3.92,7.19A59.5,59.5,0,0,1,1194.56,1143.91Z" transform="translate(-519.79 -230.31)"/><path class="cls-9" d="M1330.06,1224.16a64.94,64.94,0,0,1,7.37,5.74,28.78,28.78,0,0,1,5.85,6.41,7.14,7.14,0,0,1-12.16,7.48,7.78,7.78,0,0,1-.75-1.67,28.89,28.89,0,0,1-.91-8.64A64,64,0,0,1,1330.06,1224.16Z" transform="translate(-519.79 -230.31)"/><path class="cls-9" d="M1349.74,1188.52a59.15,59.15,0,0,1,8.83-.34,25.76,25.76,0,0,1,8.06,1.13,7.14,7.14,0,1,1-4.77,13.47,7,7,0,0,1-1.74-.91,25.22,25.22,0,0,1-5.57-5.94A58.73,58.73,0,0,1,1349.74,1188.52Z" transform="translate(-519.79 -230.31)"/><path class="cls-9" d="M1349.28,1148.83a64,64,0,0,1,6.93-6,27.55,27.55,0,0,1,7.29-4.34,7.14,7.14,0,0,1,4.83,13.44,7.56,7.56,0,0,1-1.84.39,27.62,27.62,0,0,1-8.43-.95A60.9,60.9,0,0,1,1349.28,1148.83Z" transform="translate(-519.79 -230.31)"/><path class="cls-9" d="M1328.83,1119a69.88,69.88,0,0,1,3-9.37,32.68,32.68,0,0,1,4.19-8.23,7.13,7.13,0,0,1,11.36,8.62,7.36,7.36,0,0,1-1.19,1.24,32.39,32.39,0,0,1-8.08,4.44A69.88,69.88,0,0,1,1328.83,1119Z" transform="translate(-519.79 -230.31)"/><path class="cls-9" d="M1295.57,1109.55a73.92,73.92,0,0,1-2-9.85,33.79,33.79,0,0,1-.36-9.42,7.13,7.13,0,1,1,13.71,3.54,33.92,33.92,0,0,1-4.89,8.08A73.29,73.29,0,0,1,1295.57,1109.55Z" transform="translate(-519.79 -230.31)"/><path class="cls-8" d="M1296.32,1308a12.37,12.37,0,0,1-12.33-11.22l-21.88-233a12.38,12.38,0,0,1,11.26-13.5c71.31-6.18,127.47,35.63,133.45,99.38,5.81,61.83-38.58,128-105.54,157.26A12.42,12.42,0,0,1,1296.32,1308ZM1288,1074.54l19,201.93c48.62-27.68,79.58-77.74,75.2-124.41C1377.85,1106.16,1339.07,1075,1288,1074.54Z" transform="translate(-519.79 -230.31)"/><path class="cls-8" d="M1231.77,1322.05c-64.61,0-114.28-40.75-119.84-100-5.77-61.48,36.41-125.6,102.58-155.93a12.4,12.4,0,0,1,17.5,10.11l21.78,231.92a12.4,12.4,0,0,1-11.51,13.52C1238.74,1321.93,1235.23,1322.05,1231.77,1322.05ZM1209.07,1097c-46.92,28-76.74,77.35-72.47,122.8s41.07,76,91.28,77.47Z" transform="translate(-519.79 -230.31)"/><path class="cls-10" d="M1005.6,1160.76c-130.86,5.38-133.44,71.73-91.88,174.1C992.32,1302,1044.35,1244.33,1005.6,1160.76Z" transform="translate(-519.79 -230.31)"/><path class="cls-11" d="M910.54,1357.76a12.36,12.36,0,0,1-11.72-8.37c-20-58.44-34.62-118-6.71-157.94,19.41-27.78,56.45-41.86,113.23-43.07a12.26,12.26,0,0,1,11.32,6.81c16.54,32.8,19.4,65.29,8.5,96.55-14.56,41.75-53.42,79-109.42,104.88A12.41,12.41,0,0,1,910.54,1357.76Zm87.31-184.35c-43.7,2-71.7,12.57-85.44,32.23-19.71,28.2-9.45,76.39,5.4,122.36,42.59-22.31,72.86-52.6,84-84.42C1009.6,1221.1,1008.28,1197.53,997.85,1173.41Z" transform="translate(-519.79 -230.31)"/><path class="cls-12" d="M1009.54,1172.5a113,113,0,0,0-24.46,15.29,160.79,160.79,0,0,0-22.08,22c-13.65,16.69-25,36.06-34.43,57.24a138.61,138.61,0,0,1,4.74-34.8,159.82,159.82,0,0,1,12.88-33.46c5.65-10.72,12.64-21.15,21.85-30s20.5-16.43,33.62-19.79a12.42,12.42,0,0,1,8.29,23.3Z" transform="translate(-519.79 -230.31)"/><path class="cls-10" d="M1242.48,803.66c115.84-61.1,151.41-5,166.91,104.37C1324.94,919.14,1251,895.38,1242.48,803.66Z" transform="translate(-519.79 -230.31)"/><path class="cls-11" d="M1390.25,929.22c-49.13,0-90.71-12.82-119-37.08-25.13-21.55-39-51.07-41.16-87.74a12.4,12.4,0,0,1,6.37-11.58c49.7-27.48,88.8-33.91,119.54-19.65,44.19,20.5,61.46,79.37,73.54,139.94a12.39,12.39,0,0,1-11,14.76Q1404.05,929.22,1390.25,929.22ZM1255.53,810.7c3.1,26.1,13.8,47.14,31.87,62.64,25.57,21.94,67,32.9,115,30.82-10.26-47.22-25.6-94-56.8-108.51C1323.83,785.54,1294.32,790.47,1255.53,810.7Z" transform="translate(-519.79 -230.31)"/><path class="cls-12" d="M1240,791.53c13-3.69,26.7-2.81,39,.22s23.7,8.54,34,15a159.35,159.35,0,0,1,28,22.46,138.77,138.77,0,0,1,21.58,27.71c-18.77-13.59-38.34-24.62-58.52-32.2a161,161,0,0,0-30.17-8,112.28,112.28,0,0,0-28.83-.92l-.45,0a12.42,12.42,0,0,1-4.54-24.31Z" transform="translate(-519.79 -230.31)"/><path class="cls-10" d="M1757.53,1215.29c-89.74-83.19-135.42-41.21-175.9,53.75C1655.15,1299.52,1727.65,1296,1757.53,1215.29Z" transform="translate(-519.79 -230.31)"/><path class="cls-11" d="M1650,1300.71c-25.18,0-52.81-5.35-81.49-16a11.58,11.58,0,0,1-6.35-16c25.58-51.73,55.43-100.66,100.26-108.45,31.2-5.45,64.92,9.85,103.11,46.69a11.57,11.57,0,0,1,3,12c-10.86,32.56-30.51,55.84-58.4,69.2C1692.63,1296.53,1672.29,1300.71,1650,1300.71Zm-61.16-33.48c42.84,13.54,82.85,13.66,111.24.06,20.06-9.61,34.82-26,43.93-48.8-30.1-27.66-55.53-39.24-77.62-35.41C1634.75,1188.58,1609.57,1227.12,1588.87,1267.23Z" transform="translate(-519.79 -230.31)"/><path class="cls-12" d="M1752.34,1225.64a105.35,105.35,0,0,0-26.24-6.15,149.29,149.29,0,0,0-29.16-.11c-20,1.95-40.38,7.15-60.6,14.87a129.74,129.74,0,0,1,26.19-19.78,148.8,148.8,0,0,1,30.65-13.49c10.83-3.31,22.34-5.55,34.28-5.28s24.39,2.77,35.26,9.25a11.6,11.6,0,0,1-10,20.84Z" transform="translate(-519.79 -230.31)"/><path class="cls-10" d="M734.07,1425.37c7.08.41,13.75,1,20.62,1.77s13.67,1.72,20.57,2.95a193,193,0,0,1,21,4.76c7.14,2.17,14.35,4.47,22.37,9.4l.91.56a17.22,17.22,0,0,1-18,29.34,18.4,18.4,0,0,1-2.61-2c-2.9-2.66-8.06-5.5-13.32-7.92a162.39,162.39,0,0,0-17.14-6.63c-6-2-12.1-3.8-18.32-5.43s-12.59-3.16-18.67-4.42l-.26,0a11.31,11.31,0,0,1,2.94-22.36Z" transform="translate(-519.79 -230.31)"/><g class="cls-2"><path class="cls-3" d="M734.07,1425.37c7.08.41,13.75,1,20.62,1.77s13.67,1.72,20.57,2.95a193,193,0,0,1,21,4.76c7.14,2.17,14.35,4.47,22.37,9.4l.91.56a17.22,17.22,0,0,1-18,29.34,18.4,18.4,0,0,1-2.61-2c-2.9-2.66-8.06-5.5-13.32-7.92a162.39,162.39,0,0,0-17.14-6.63c-6-2-12.1-3.8-18.32-5.43s-12.59-3.16-18.67-4.42l-.26,0a11.31,11.31,0,0,1,2.94-22.36Z" transform="translate(-519.79 -230.31)"/></g><path class="cls-11" d="M810.42,1486.57a26.93,26.93,0,0,1-14.14-4,28.15,28.15,0,0,1-4.06-3c-.71-.65-3.43-2.88-10.82-6.27a147.09,147.09,0,0,0-16.11-6.23c-5.66-1.89-11.62-3.66-17.73-5.26s-12.49-3.12-18.16-4.29a21.19,21.19,0,0,1,5.24-42h0c6.86.4,13.58,1,21.14,1.82,7.23.8,14.36,1.82,21.21,3a198,198,0,0,1,22,5c8.43,2.56,16,5.09,24.77,10.46l.92.56a27.09,27.09,0,0,1-14.25,50.17Zm-77-51.35a1.43,1.43,0,0,0-1.4,1.15,1.37,1.37,0,0,0,.2,1.07,1.41,1.41,0,0,0,.91.62c6.28,1.3,12.91,2.86,19.45,4.59s12.89,3.59,18.93,5.61a168.73,168.73,0,0,1,18.16,7c7.12,3.27,12.46,6.5,15.84,9.6a9.53,9.53,0,0,0,1.13.85,7.35,7.35,0,0,0,7.67-12.53l-.91-.56c-6.74-4.14-12.82-6.16-20.06-8.36a180.06,180.06,0,0,0-19.79-4.48c-6.53-1.16-13-2.1-19.95-2.86-7.21-.81-13.6-1.36-20.1-1.73Z" transform="translate(-519.79 -230.31)"/><path class="cls-10" d="M749.79,1438.79c-39.92-145.94-207.66-26.93-207.66-26.93S674,1569.72,749.79,1438.79Z" transform="translate(-519.79 -230.31)"/><g class="cls-5"><path class="cls-6" d="M748.89,1440.27c.3-.5.61-1,.9-1.48-39.92-145.94-207.66-26.93-207.66-26.93s4.49,5.37,12.27,13.29C585.87,1405.16,707.3,1336.68,748.89,1440.27Z" transform="translate(-519.79 -230.31)"/></g><path class="cls-11" d="M670.86,1500.59c-72.56,0-145.28-78.65-148.48-82.15a9.87,9.87,0,0,1,1.85-14.9c4.2-2.78,103.84-67.69,175.23-40.8,29.42,11.08,49.56,35.79,59.86,73.44a9.94,9.94,0,0,1-1,7.56c-19.67,34-45.62,52.9-77.14,56.3A94.12,94.12,0,0,1,670.86,1500.59Zm-125.37-86.85c21.65,21,80.74,72.36,133.62,66.66,23.83-2.58,44-17,60-43-8.79-28.94-24.45-47.83-46.59-56.18C642.72,1362.46,571.84,1398.54,545.49,1413.74Z" transform="translate(-519.79 -230.31)"/><line class="cls-10" x1="230" y1="1208.48" x2="117.4" y2="1193.88"/><path class="cls-12" d="M748.52,1448.58a236.16,236.16,0,0,1-28.19-3.36c-9.34-1.54-18.6-3.67-27.87-5.79-18.52-4.33-37-9.07-55.27-15.24,19.25-1.31,38.32-1.18,57.33-.65,9.5.32,19,.63,28.43,1.51a237.88,237.88,0,0,1,28.11,3.94,9.91,9.91,0,0,1-2.54,19.59Z" transform="translate(-519.79 -230.31)"/><path class="cls-11" d="M667.41,1500.51q19-16.83,38.41-33.33c13-11,26-21.87,39.62-32.41a9.92,9.92,0,1,1,12.13,15.71,9.76,9.76,0,0,1-1.58,1l-.08,0c-14.87,7.42-29.71,15.55-44.46,23.77S682,1492,667.41,1500.51Z" transform="translate(-519.79 -230.31)"/><path class="cls-10" d="M750.25,1440.69s-85.13,5.15-104.63,152.52C645.62,1593.21,819.49,1537.87,750.25,1440.69Z" transform="translate(-519.79 -230.31)"/><g class="cls-5"><path class="cls-6" d="M670.15,1579.52c16-120.82,84.82-127.12,87.26-127.3a107.41,107.41,0,0,0-7.16-11.53s-85.13,5.15-104.63,152.52c0,0,37.45-11.93,70.67-34.42A267.24,267.24,0,0,1,670.15,1579.52Z" transform="translate(-519.79 -230.31)"/></g><path class="cls-11" d="M645.62,1603.09a9.89,9.89,0,0,1-9.79-11.18c20.33-153.67,110-160.84,113.82-161.08a9.89,9.89,0,0,1,8.64,4.13c17.52,24.59,22.39,49.11,14.46,72.87-20.38,61.14-119.91,93.44-124.14,94.79A9.93,9.93,0,0,1,645.62,1603.09Zm100-151.66c-17,3.85-69.25,23.94-87.62,126.68,27.42-11.06,83.18-37.8,96.07-76.55C759.4,1485.41,756.64,1469,745.57,1451.43Z" transform="translate(-519.79 -230.31)"/><path class="cls-11" d="M702.18,1504.88q9.39-17.89,19.35-35.56c6.69-11.79,13.48-23.47,21.26-35.08a10,10,0,0,1,16.54,11.08,11.16,11.16,0,0,1-1.61,1.86c-9.62,8.69-19,18.32-28.25,28S711.14,1494.83,702.18,1504.88Z" transform="translate(-519.79 -230.31)"/><path class="cls-10" d="M749.54,1440.26s-79.37-31.21-52.36-177.39C697.18,1262.87,845.43,1369.24,749.54,1440.26Z" transform="translate(-519.79 -230.31)"/><g class="cls-5"><path class="cls-6" d="M720.23,1281.86a294.19,294.19,0,0,0-23.05-19c-27,146.18,52.36,177.39,52.36,177.39,1.17-.86,2.27-1.74,3.36-2.61C737.08,1426,696,1384.7,720.23,1281.86Z" transform="translate(-519.79 -230.31)"/></g><path class="cls-11" d="M749.54,1450.14a9.81,9.81,0,0,1-3.61-.69c-3.55-1.4-86.63-35.94-58.46-188.38a9.87,9.87,0,0,1,15.46-6.22c3.61,2.58,88.28,64.07,88.77,128.52.19,25-12,46.85-36.28,64.83A10,10,0,0,1,749.54,1450.14ZM704.24,1281C690,1384.43,733.4,1419.67,748.41,1428.6c16-13.25,23.66-28,23.54-45.06C771.66,1342.7,726.89,1300,704.24,1281Z" transform="translate(-519.79 -230.31)"/><path class="cls-11" d="M723.67,1364.36q8.12,18.5,16.77,36.67c5.78,12.07,11.75,24.14,18.21,35.37a10,10,0,1,1-18.19,7.69c-3.82-13.45-6.66-26.65-9.39-39.93S725.93,1377.63,723.67,1364.36Z" transform="translate(-519.79 -230.31)"/><path class="cls-3" d="M599.12,1839.52a3.63,3.63,0,0,0,1,1.23,6,6,0,0,0,2.23,1,26.17,26.17,0,0,0,9.56,0c7.65-1.15,16.1-4.07,24.32-7.51,16.55-7,32.82-16.21,48.71-26,31.76-19.7,62.45-41.8,92.4-64.8s59.15-47.16,87.67-72.05q10.69-9.34,21.25-18.84c7.09-6.32,13.85-12.74,21.23-19.13,3.64-3.17,7.23-6.42,10.91-9.54l11.26-9.09,5.64-4.53,5.81-4.31,11.6-8.61c63-44.49,132.73-77.68,204.65-103.17q53.94-19.31,109.51-33.09a1084.08,1084.08,0,0,1,112-22.34c-74.57,15-147.58,36.88-218.23,64.16a1058.17,1058.17,0,0,0-103.3,46.8,730.37,730.37,0,0,0-95.77,59.74l-11.1,8.65-5.55,4.32-5.38,4.52L928.83,1636c-3.5,3.11-6.89,6.32-10.34,9.48-6.87,6.19-13.74,13-20.69,19.55s-13.94,13.07-21,19.52q-42.26,38.71-86.8,74.93c-29.8,24-60.3,47.3-92.91,68.15-16.35,10.37-33.09,20.29-51.45,28.44-9.24,4-18.79,7.7-29.94,9.64a50,50,0,0,1-18.79-.07,30.61,30.61,0,0,1-10.81-4.59,28.4,28.4,0,0,1-8.51-9.21A12.39,12.39,0,0,1,599,1839.36Z" transform="translate(-519.79 -230.31)"/><g class="cls-2"><ellipse class="cls-3" cx="2034.57" cy="1255.77" rx="19.77" ry="14.45" transform="translate(-769.74 320.18) rotate(-14.53)"/></g><g class="cls-2"><ellipse class="cls-3" cx="1943.48" cy="1205.24" rx="32.14" ry="23.49" transform="translate(-759.97 295.72) rotate(-14.53)"/></g><g class="cls-2"><ellipse class="cls-3" cx="1738" cy="1067.9" rx="25.06" ry="19.69" transform="matrix(0.94, -0.35, 0.35, 0.94, -784.97, 452.48)"/></g><g class="cls-2"><ellipse class="cls-3" cx="1975.53" cy="827.95" rx="17.33" ry="13.62" transform="translate(-684.9 520.91) rotate(-20.69)"/></g><g class="cls-2"><ellipse class="cls-3" cx="2006.81" cy="1007.88" rx="19.69" ry="15.47" transform="translate(-746.44 543.58) rotate(-20.69)"/></g><g class="cls-2"><path class="cls-3" d="M1819.7,945.87c2.49,6.59-2.3,14.5-10.69,17.67s-17.2.39-19.69-6.2,2.3-14.5,10.68-17.67S1817.21,939.28,1819.7,945.87Z" transform="translate(-519.79 -230.31)"/></g><g class="cls-2"><ellipse class="cls-3" cx="1528.01" cy="1175.14" rx="17.88" ry="14.05" transform="translate(-918.5 885.43) rotate(-35.8)"/></g><g class="cls-2"><ellipse class="cls-3" cx="1567.92" cy="1004.16" rx="17.74" ry="13.94" transform="translate(-810.95 876.48) rotate(-35.8)"/></g><g class="cls-2"><ellipse class="cls-3" cx="1024.84" cy="1455.86" rx="23.56" ry="18.51" transform="matrix(0.81, -0.58, 0.58, 0.81, -1177.74, 644.15)"/></g><g class="cls-2"><ellipse class="cls-3" cx="1036.32" cy="1330.69" rx="19.91" ry="15.65" transform="translate(-1102.36 627.22) rotate(-35.8)"/></g><g class="cls-2"><ellipse class="cls-3" cx="845.93" cy="1575.73" rx="13.1" ry="10.29" transform="translate(-1281.65 562.14) rotate(-35.8)"/></g><g class="cls-2"><ellipse class="cls-3" cx="1040.7" cy="1101.99" rx="19.91" ry="15.65" transform="translate(-967.76 586.57) rotate(-35.8)"/></g><g class="cls-2"><ellipse class="cls-3" cx="1214.66" cy="976.87" rx="26.01" ry="20.43" transform="translate(-861.72 664.7) rotate(-35.8)"/></g><path class="cls-13" d="M2207.19,1292.21c-24.94,141.9,299,164.88,299,164.88S2711.37,976.84,2380.34,567,1599,219.21,1550,316s48.14,141.07,48.14,141.07S2342.45,522.62,2207.19,1292.21Z" transform="translate(-519.79 -230.31)"/><g class="cls-5"><path class="cls-6" d="M2380.34,567C2049.32,157.06,1599,219.21,1550,316c-43.71,86.23,28.66,130.78,45,139.47-19.66-21.19-36-56-10.79-105.75,10.73-21.16,42.08-40.53,87.75-52.84-10.53,6.72-16.42,14.42-15.15,21.53,2.57,14.36,33.24,20.89,68.51,14.59s61.79-23.05,59.23-37.41c-.92-5.15-5.51-9.27-12.58-12.17,160.69-4,393.68,63.68,584.21,299.59,307.74,381.06,117,827.52,117,827.52s-213.65-15.16-267.18-98.77c6.56,124.49,300.25,145.33,300.25,145.33S2711.37,976.84,2380.34,567Z" transform="translate(-519.79 -230.31)"/></g><g class="cls-2"><path class="cls-3" d="M2506.2,1457.09s27.94-65.49,46.57-168.67c-33.89-32.22-85.36-58.81-139.45-80.55a116.77,116.77,0,0,1-73-118.45c11.47-132.38,10.9-299.17-103.84-441.25C1977.72,327.7,1627,371.21,1580,446.08a117,117,0,0,0,18.07,11s744.34,65.55,609.08,835.14C2182.25,1434.11,2506.2,1457.09,2506.2,1457.09Z" transform="translate(-519.79 -230.31)"/></g><path class="cls-3" d="M2506.2,1471.24c-.33,0-.67,0-1,0-9.12-.65-224.07-16.85-292.28-104.19-18-23.06-24.63-49-19.67-77.25,40.2-228.73,5.49-416.57-103.17-558.3-176-229.61-490.07-260-493.22-260.3a14.23,14.23,0,0,1-4.62-1.22c-2-.9-48.43-22.51-64.73-69-9.89-28.22-6.58-59,9.83-91.34,19.26-38,84.59-67.24,170.49-76.3,187.66-19.78,465.77,55.12,683.53,324.75,173.83,215.25,199.37,449.71,190.18,608.49-9.95,171.8-60.19,291.11-62.32,296.11A14.16,14.16,0,0,1,2506.2,1471.24Zm-299-179,13.94,2.45c-3.56,20.25,1.06,38.22,14.1,54.93,52.78,67.58,218.62,88.17,261.68,92.44,11.88-31.41,48.46-138,56.42-278.16,8.73-153.52-16.11-380.16-184-588C2158.71,315,1891,242.45,1710.8,261.46c-85.62,9-136.13,37.12-148.21,60.94-12.75,25.16-15.59,48.36-8.43,69,10.58,30.47,40.13,47.75,47.94,51.87,15.26,1.6,89.86,10.72,184,44.29,95.78,34.16,230.13,101.18,326.3,226.51,113.8,148.31,150.38,343.66,108.73,580.63Z" transform="translate(-519.79 -230.31)"/><path class="cls-1" d="M2506.2,1457.09s-63.38,71.56-188.6,32.72-154.56-125.39-110.41-197.6S2596,1311.05,2506.2,1457.09Z" transform="translate(-519.79 -230.31)"/><g class="cls-2"><path class="cls-3" d="M2506.2,1457.09s-63.38,71.56-188.6,32.72-154.56-125.39-110.41-197.6S2596,1311.05,2506.2,1457.09Z" transform="translate(-519.79 -230.31)"/></g><path class="cls-3" d="M2389.77,1515.63c-22.49,0-47.94-3.48-76.36-12.3-86.64-26.87-119.61-71.69-132-104.56-13.77-36.51-8.9-77,13.71-113.94,17.09-28,59.7-32.79,92.45-32,85.53,2.23,200,45.55,235.87,111.65,17.25,31.83,15.46,66.4-5.18,100a14.14,14.14,0,0,1-1.46,2C2514.57,1469,2472.06,1515.63,2389.77,1515.63Zm-108.92-234.54c-31.61,0-54.42,6.8-61.58,18.51-18.21,29.78-22.14,60.62-11.37,89.18,14.37,38.11,54.82,69.19,113.9,87.51,108.44,33.64,165.5-20,173.06-27.8,14.79-24.71,16-47.78,3.69-70.47-30-55.42-133.72-94.82-211.71-96.85Q2283.8,1281.09,2280.85,1281.09Zm225.35,176h0Z" transform="translate(-519.79 -230.31)"/><path class="cls-14" d="M1774.1,395.61a47.22,47.22,0,0,1-4-20.07,59,59,0,0,1,3.79-20.41,47,47,0,0,1,11.3-17.75,35.62,35.62,0,0,1,18.37-9.92c-3.32,6.47-6.92,11.3-9.61,16.76A166.43,166.43,0,0,0,1786,360c-2.35,5.42-4.41,11.06-6.33,17S1776,389,1774.1,395.61Z" transform="translate(-519.79 -230.31)"/><path class="cls-14" d="M1811.63,420.4c-2-9.2-1.56-18.7-.05-28a89.23,89.23,0,0,1,9.35-26.84,70.56,70.56,0,0,1,18.15-22.24c1.93-1.45,3.79-3,5.8-4.27s4.21-2.33,6.34-3.39a35.34,35.34,0,0,1,6.65-2.61c2.31-.65,4.57-1.3,6.9-1.72-6.34,7.27-12.73,13-17.89,19.91A155.53,155.53,0,0,0,1832.33,372a190,190,0,0,0-11.42,23.1C1817.49,403.17,1814.58,411.54,1811.63,420.4Z" transform="translate(-519.79 -230.31)"/><path class="cls-14" d="M2341.39,1024.31c7.82-6.29,17.1-10.44,26.67-13.51a97,97,0,0,1,30.05-4.2,76.7,76.7,0,0,1,30,6.21c2.33,1.1,4.68,2.1,6.91,3.35s4.31,2.8,6.37,4.28a37.25,37.25,0,0,1,5.8,4.94c1.78,1.83,3.53,3.63,5.11,5.59-9.92-2.63-18.48-6-27.64-7.59a158.84,158.84,0,0,0-27-3.7,196.35,196.35,0,0,0-27.69.64C2360.59,1021.13,2351.19,1022.59,2341.39,1024.31Z" transform="translate(-519.79 -230.31)"/><path class="cls-14" d="M2325.67,1089.77c12.25-6.34,25.79-9.91,39.52-11.93a142.65,142.65,0,0,1,41.82.24c3.46.67,7,1,10.39,2s6.82,1.85,10.19,2.88,6.6,2.56,9.85,3.91l4.86,2.09,4.61,2.62c3,1.83,6.1,3.54,9,5.52,2.79,2.16,5.47,4.45,8.17,6.64a44.34,44.34,0,0,1,3.91,3.46l3.52,3.89c2.27,2.66,4.52,5.28,6.57,8-12.41-6.37-23.53-13.22-36-17.5l-4.48-1.88-4.64-1.46c-3.11-.91-6.1-2.14-9.23-3s-6.26-1.6-9.39-2.4-6.35-1.25-9.51-1.9a238.09,238.09,0,0,0-39-3.52A332.48,332.48,0,0,0,2325.67,1089.77Z" transform="translate(-519.79 -230.31)"/><path class="cls-10" d="M1921.14,976.11c100.34-52.91,131.14-4.35,144.56,90.39C1992.56,1076.12,1928.49,1055.55,1921.14,976.11Z" transform="translate(-519.79 -230.31)"/><path class="cls-11" d="M2049.12,1084.85c-42.55,0-78.55-11.1-103-32.1-21.76-18.67-33.75-44.24-35.64-76a10.73,10.73,0,0,1,5.51-10c43-23.8,76.91-29.37,103.53-17,38.27,17.75,53.23,68.74,63.7,121.19a10.73,10.73,0,0,1-9.52,12.78Q2061.07,1084.87,2049.12,1084.85ZM1932.45,982.21c2.68,22.6,12,40.83,27.6,54.25,22.15,19,58,28.49,99.6,26.69-8.88-40.89-22.17-81.45-49.19-94C1991.61,960.42,1966,964.69,1932.45,982.21Z" transform="translate(-519.79 -230.31)"/><path class="cls-12" d="M1919,965.6c11.28-3.19,23.12-2.43,33.78.19a100.93,100.93,0,0,1,29.42,13,138.64,138.64,0,0,1,24.21,19.45,121,121,0,0,1,18.69,24c-16.26-11.77-33.21-21.32-50.69-27.88a138.86,138.86,0,0,0-26.13-6.91,97.47,97.47,0,0,0-25-.8l-.38,0A10.76,10.76,0,0,1,1919,965.6Z" transform="translate(-519.79 -230.31)"/></svg>