<svg id="Modo_de_aislamiento" data-name="Modo de aislamiento" xmlns="http://www.w3.org/2000/svg" viewBox="0 0 1875.95 1634.64"><defs><style>.cls-1{fill:#e7a63e;stroke:#00006f;stroke-miterlimit:10;stroke-width:4.6px;}.cls-2{opacity:0.6;}.cls-3{fill:#fff;}.cls-4{fill:#dc47c0;}.cls-5{opacity:0.3;}.cls-6{fill:#00006f;}.cls-7{opacity:0.2;}</style></defs><path class="cls-1" d="M2142.62,421.87s0,0-.07,0-.05,0-.07,0c-51-26.07-105.83-45-163.63-56.94-238.82-49.66-527.54,18.58-800.45,186S713.61,944.9,649.75,1180.4c-14.32,52.75-22.23,105.92-23.17,159a1.81,1.81,0,0,0,0,.23c-.14,7.17-.13,14.37,0,21.55a1.59,1.59,0,0,0,0,.53c1.95,104.7,31.22,208.67,91.85,307.51,232.77,379.46,727,356.77,1190.46,72.46s707.67-714.57,474.9-1094C2321.26,545.71,2238.8,471.06,2142.62,421.87ZM1699.61,941c-36.39,60-98.26,121-177.76,169.79s-162,76.25-231.91,81.51c9.27-63.47,69.85-140.86,161.15-196.87,36.35-22.29,73.53-38.74,108.93-49.1a337.46,337.46,0,0,1,52.12-11.16C1645.27,930.87,1675.3,932.76,1699.61,941Z" transform="translate(-611.66 -334.53)"/><g class="cls-2"><path class="cls-3" d="M1930.82,1703.7c-463.48,284.31-957.69,307-1190.46-72.46-60.65-98.88-89.9-202.81-91.85-307.51a1.71,1.71,0,0,1,0-.54c-.12-7.17-.13-14.37,0-21.54a2.26,2.26,0,0,0,0-.26c1-53,8.87-106.21,23.17-159,15.88-58.49,39.65-116.43,70.6-173-41.83,68.51-73.1,139.37-92.52,211-14.32,52.75-22.23,105.92-23.17,159a1.81,1.81,0,0,0,0,.23c-.14,7.17-.13,14.37,0,21.55a1.59,1.59,0,0,0,0,.53c1.95,104.7,31.22,208.67,91.85,307.51,232.77,379.46,727,356.77,1190.46,72.46,214.2-131.39,381.55-294,476.63-468.26C2287.71,1433.31,2129.37,1581.9,1930.82,1703.7Z" transform="translate(-611.66 -334.53)"/></g><path class="cls-4" d="M2237.93,506.06c-26.21-33.81-59.17-61.21-95.31-84.19,0,0,0,0-.07,0s-.05,0-.07,0q-84.09-32.3-163.63-56.94c-238.82-49.66-527.54,18.58-800.45,186S713.61,944.9,649.75,1180.4q-13.59,76.24-23.17,159a1.81,1.81,0,0,0,0,.23,180.17,180.17,0,0,0,0,21.55,1.59,1.59,0,0,0,0,.53c4.39,75.52,53.09,142.73,110.31,194.49,62.76,56.76,151.78,83.16,235.33,69.81,63.3-10.08,132.21-40.53,187.31-7.86,19.72,11.69,34.42,30.14,52.5,44.19s43,23.7,63.73,14c27.06-12.61,31.72-49,50.88-72,20.25-24.21,55.26-30.93,86.63-27.41s61.1,15.43,92,22.09c115.22,24.88,236.7-27.47,321.48-109.36,48.49-46.87,86.9-102.23,119.78-161.27,44.88-72,112.37-130.23,172.76-163.29s125.1-79.62,131.59-148.17c5.86-62-39.25-121.63-28.56-182.91,7.1-40.61,37.25-72.92,53.66-110.72C2306.68,652.49,2285.17,567,2237.93,506.06ZM1697.86,940.37l1.75.58c-4.34,7.15-9,14.31-14.1,21.45-37.29,52.89-93.64,105.39-163.66,148.34-8.16,5-16.38,9.79-24.56,14.34-71.76,39.83-144.58,62.45-207.35,67.17.39-2.74.9-5.51,1.49-8.29-58.74,3.77-108.94-6.48-138.62-32.74-12-53.33,14.12-113,61.47-140.3,23.19-13.33,50.46-19.46,71.69-35.79,29.31-22.56,41.81-60,59.53-92.52s49-64.37,85.69-59.34c43.42,6,73.41,61.41,116.55,53.65,24.51-4.4,40.39-28.35,49.26-51.63s15.87-43.78,32.06-62.74,66.33-32.21,95.62,15.53C1733.44,837.49,1722.36,891.93,1697.86,940.37Z" transform="translate(-611.66 -334.53)"/><g class="cls-5"><path class="cls-6" d="M1629.06,762.55c-16.19,19-23.21,39.51-32.06,62.74s-24.75,47.23-49.26,51.63c-43.14,7.76-73.13-47.69-116.55-53.65-36.66-5-67.92,26.87-85.69,59.34s-30.22,70-59.53,92.52c-21.23,16.33-48.5,22.46-71.69,35.79-47.35,27.31-73.49,87-61.47,140.3,10.34,9.18,23.17,16.35,38,21.7,6.9-36.91,29.46-71.1,62.12-90,23.19-13.34,50.46-19.47,71.69-35.79,29.31-22.57,41.81-60,59.53-92.52s49-64.37,85.69-59.35c34.06,4.67,59.85,39.8,90.23,51a337.46,337.46,0,0,1,52.12-11.16c10.52-10,18.21-24,23.46-37.78,8.85-23.24,15.87-43.78,32.05-62.74,10.56-12.37,35.68-22.35,60-14.37a269,269,0,0,0-3-42.15C1695.39,730.34,1645.21,743.62,1629.06,762.55Z" transform="translate(-611.66 -334.53)"/></g><g class="cls-5"><path class="cls-6" d="M2383.78,647.63c232.77,379.46-11.42,809.72-474.9,1094-121.83,74.73-245.76,131.38-366.48,167.41a1728.39,1728.39,0,0,0,165-89.58c240-147.25,421.29-333.68,507.88-531.9,15.36-35.16-22.77-69.55-56.37-51.06-.36.18-.73.4-1.08.58-60.4,33.06-127.88,91.33-172.76,163.29-32.88,59-71.29,114.4-119.78,161.27-84.79,81.9-206.27,134.24-321.49,109.37-30.87-6.66-60.62-18.6-92-22.09s-66.38,3.2-86.63,27.41c-19.16,22.94-23.82,59.37-50.88,72-20.75,9.72-45.66.07-63.73-14s-32.78-32.5-52.5-44.19c-55.1-32.67-124-2.23-187.31,7.86-83.55,13.35-172.57-13.06-235.33-69.82C732.9,1589.7,695,1542.63,676.68,1490c.16.2.3.42.46.61.85,1.18,1.68,2.32,2.56,3.48l.79,1.08c1.77,2.35,3.56,4.64,5.37,7,1.51,1.91,3.06,3.8,4.58,5.66,1.16,1.41,2.32,2.82,3.51,4.21,3.6,4.28,7.29,8.5,11.11,12.65,2.54,2.76,5.1,5.47,7.68,8.17s5.24,5.35,7.88,8c1.92,1.88,3.85,3.79,5.78,5.61a7.36,7.36,0,0,0,.78.71c1.29,1.29,2.62,2.55,4,3.76,1.91,1.8,3.83,3.55,5.75,5.3,62.76,56.76,151.78,83.16,235.33,69.81,63.3-10.08,132.21-40.53,187.31-7.86,19.72,11.69,34.42,30.14,52.5,44.19s43,23.7,63.73,14c27.06-12.61,31.72-49,50.88-72,20.25-24.21,55.26-30.93,86.63-27.41s61.1,15.43,92,22.09c115.22,24.88,236.7-27.47,321.48-109.36,48.49-46.87,86.9-102.23,119.78-161.27,44.88-72,112.37-130.23,172.76-163.29s125.1-79.62,131.59-148.17c5.86-62-39.25-121.63-28.56-182.91.27-1.57.59-3.12.89-4.62.83-3.69,1.82-7.27,3-10.8.53-1.56,1.06-3.11,1.61-4.64,11.51-31.69,34.59-59.29,48.2-90.66,30.73-70.78,9.22-156.23-38-217.21-26.21-33.81-59.17-61.21-95.31-84.19C2238.8,471.06,2321.26,545.71,2383.78,647.63Z" transform="translate(-611.66 -334.53)"/></g><g class="cls-5"><path class="cls-6" d="M2237.93,506.06q-7.2-9.26-15-17.9c17.76,48.37,20.33,101.7,0,148.56-16.41,37.79-46.57,70.11-53.67,110.71-10.69,61.29,34.43,120.94,28.56,182.91-6.49,68.55-71.16,115.09-131.59,148.17s-127.87,91.33-172.76,163.29c-32.88,59-71.29,114.4-119.77,161.27-84.79,81.9-206.27,134.24-321.49,109.37-30.88-6.66-60.63-18.6-92-22.09s-66.37,3.2-86.62,27.41c-19.17,22.94-23.82,59.37-50.89,72-20.74,9.72-45.65.07-63.73-14s-32.78-32.5-52.5-44.19c-55.1-32.67-124-2.23-187.3,7.85-83.55,13.36-172.58-13-235.33-69.81a456.23,456.23,0,0,1-42.93-44.2c19.21,49.63,55.47,94.08,96,130.76,62.76,56.76,151.78,83.16,235.33,69.81,63.3-10.08,132.21-40.53,187.31-7.86,19.72,11.69,34.42,30.14,52.5,44.19s43,23.7,63.73,14c27.06-12.61,31.72-49,50.88-72,20.25-24.21,55.26-30.93,86.63-27.41s61.1,15.43,92,22.09c115.22,24.88,236.7-27.47,321.48-109.36,48.49-46.87,86.9-102.23,119.78-161.27,44.88-72,112.37-130.23,172.76-163.29s125.1-79.62,131.59-148.17c5.86-62-39.25-121.63-28.56-182.91,7.1-40.61,37.25-72.92,53.66-110.72C2306.68,652.49,2285.17,567,2237.93,506.06Z" transform="translate(-611.66 -334.53)"/></g><g class="cls-2"><path class="cls-3" d="M1521.85,1110.74c-211.95,154.37-465.66,82.4-396.43-93.49C986,1260,1331.91,1282.55,1540.75,1149.51c288.06-178.19,299.45-449.32,105.42-430.7C1813.45,756.79,1731.07,967.68,1521.85,1110.74Z" transform="translate(-611.66 -334.53)"/></g><g class="cls-2"><path class="cls-3" d="M2237.93,506.06c-26.21-33.81-59.17-61.21-95.31-84.19,0,0,0,0-.07,0s-.05,0-.07,0q-84.09-32.3-163.63-56.94c-238.82-49.66-527.54,18.58-800.45,186S713.61,944.9,649.75,1180.4q-13.59,76.24-23.17,159a1.81,1.81,0,0,0,0,.23,180.17,180.17,0,0,0,0,21.55,1.59,1.59,0,0,0,0,.53c2.89,49.56,24.87,95.56,55.82,135.92-15.61-29-25.83-60.08-27.73-92.74a2.52,2.52,0,0,1,0-.54,184.28,184.28,0,0,1,0-21.54,1.81,1.81,0,0,0,0-.23q9.62-82.71,23.17-159C741.7,988.08,933.46,761.5,1206.5,594s561.62-235.65,800.44-186q79.54,24.66,163.64,56.94s0,0,.07.05,0,0,.07,0c34.83,22.17,66.7,48.41,92.41,80.58A257.59,257.59,0,0,0,2237.93,506.06Z" transform="translate(-611.66 -334.53)"/></g><path class="cls-6" d="M1251.59,1969.17c-8.35,0-16.62-.12-24.89-.37-227.52-6.72-407.54-107.7-520.61-292-113.92-185.72-125-396-32-608.23,87.06-198.7,263.49-386.93,496.76-530s481-215,697.61-202.62c231.28,13.29,413.75,118.47,527.67,304.18,113.06,184.32,121.49,390.56,24.38,596.42-90.46,191.76-264.76,370.71-504.06,517.5C1686.48,1895.06,1457.21,1969.17,1251.59,1969.17Zm568.1-1605.74c-199.23,0-422.26,70-633.73,199.73-228.3,140-400.68,323.65-485.4,517-89,203.13-78.57,404.21,30.18,581.5,107.72,175.61,279.51,271.82,496.82,278.24,203.32,6,442.63-68.76,673.76-210.54s406.23-321.2,493-505.19c92.76-196.62,84.85-393.37-22.87-569-108.76-177.29-283.27-277.72-504.69-290.43Q1843.5,363.42,1819.69,363.43Z" transform="translate(-611.66 -334.53)"/><path class="cls-6" d="M1265.37,1207.65c-70.09,0-122.63-23.27-149.14-66.48-24.66-40.2-23.9-92.16,2.2-150.26a14.46,14.46,0,0,1,26.37,11.85c-15.35,34.16-28.48,83.27-3.93,123.29,23.08,37.63,73.68,56.14,142.35,52.16,72-4.19,154-32.52,231.07-79.79S1653.8,990.84,1690.14,928.6c34.7-59.45,41.1-112.91,18-150.54-15.75-25.67-44.93-42.77-84.41-49.47a14.45,14.45,0,0,1,4.84-28.5c47.94,8.13,84,29.87,104.21,62.85,28.92,47.15,22.63,111.15-17.7,180.23-38.69,66.28-104.64,130.17-185.69,179.89s-167.89,79.55-244.51,84Q1274.93,1207.64,1265.37,1207.65Z" transform="translate(-611.66 -334.53)"/><path class="cls-6" d="M1290,1206.69a15.19,15.19,0,0,1-2.11-.15,14.46,14.46,0,0,1-12.21-16.4c10.16-69.46,76.07-150.74,167.9-207.08s194.15-78.24,260.69-55.82a14.45,14.45,0,1,1-9.24,27.39c-58.73-19.8-151.51,1-236.33,53.07S1313.21,1133,1304.24,1194.32A14.46,14.46,0,0,1,1290,1206.69Z" transform="translate(-611.66 -334.53)"/><path class="cls-6" d="M1152.78,1165.67a14.46,14.46,0,0,1-14.09-11.28c-13.47-59.78,15.28-125.37,68.37-156,10.37-6,21.24-10.52,31.75-14.9,14.07-5.88,27.37-11.43,38.33-19.86,19.56-15,31-38.45,43.13-63.24,4-8.16,8.11-16.6,12.57-24.74,25.61-46.89,63.16-71.84,100.32-66.74,23.23,3.19,41.68,17.1,59.52,30.56,18.76,14.14,35,26.35,52.5,23.2,20.65-3.71,32.86-28.24,38.3-42.54l2-5.22c8.24-21.78,16-42.35,32.59-61.77,12.79-15,36.46-23.82,58.76-22.09C1701.2,733,1722.58,747,1737,770.52a14.45,14.45,0,1,1-24.64,15.11c-9.6-15.65-22.67-24.54-37.81-25.73-14.77-1.16-28.79,5.34-34.51,12.05-13.3,15.58-19.9,33-27.54,53.22l-2,5.28c-13.15,34.53-34.53,56.08-60.2,60.71-30,5.39-53.91-12.66-75-28.58-15.57-11.75-30.28-22.84-46-25-29.16-4-55.86,24.21-71,52-4.13,7.57-7.93,15.34-12,23.58-13,26.69-26.54,54.29-51.47,73.46-14,10.73-29.65,17.28-44.83,23.62-10.11,4.22-19.67,8.21-28.44,13.26-41.72,24-65.19,77.6-54.61,124.57a14.48,14.48,0,0,1-14.11,17.64Z" transform="translate(-611.66 -334.53)"/><path class="cls-6" d="M1685.51,962.4c-42.3,69.06-112.06,124.44-188.22,162.68,8.18-4.55,16.4-9.34,24.56-14.34C1591.87,1067.79,1648.22,1015.29,1685.51,962.4Z" transform="translate(-611.66 -334.53)"/><path class="cls-6" d="M1257.46,1694.67c-17.55,0-36.62-7.17-54.32-20.93-7.74-6-14.76-12.65-21.55-19.06-9.74-9.2-18.94-17.89-29.42-24.11-36.86-21.84-82.2-11.32-130.2-.17-15.59,3.62-31.72,7.36-47.48,9.88-88.44,14.11-180.88-13.32-247.3-73.39-55.62-50.3-120.72-130.7-115.07-228.1a14.45,14.45,0,1,1,28.86,1.68c-5,86,54.67,158.92,105.6,205,59.09,53.44,144.68,78.85,223.35,66.28,14.77-2.36,29.7-5.82,45.51-9.49,51.44-11.94,104.64-24.29,151.47,3.46,13.25,7.86,24.07,18.08,34.53,28,6.59,6.22,12.8,12.09,19.45,17.26,13.61,10.59,33.58,19.37,48.75,12.31,12.06-5.63,18.65-19.26,26.29-35,5.48-11.31,11.13-23,19.61-33.14,20.87-25,58-37.16,99.31-32.53,20.45,2.29,40,7.88,58.92,13.28,11.85,3.39,23,6.59,34.5,9.06,100.35,21.66,218.54-18.82,308.4-105.64,82.9-80.08,136.95-188.33,183-293.37a14.46,14.46,0,0,1,26.48,11.62c-47.26,107.75-102.92,219-189.41,302.54-96.71,93.43-224.92,136.77-334.59,113.11-12.38-2.67-24.56-6.15-36.34-9.52-18.59-5.31-36.15-10.33-54.2-12.35-31.64-3.52-59.27,4.81-73.9,22.33-6.2,7.41-10.85,17-15.78,27.2-8.77,18.12-18.71,38.66-40.09,48.64A57.46,57.46,0,0,1,1257.46,1694.67Z" transform="translate(-611.66 -334.53)"/><path class="cls-6" d="M1946.5,1342.82a14.46,14.46,0,0,1-12.25-22.1c42-67.34,108.54-130.27,178.07-168.33,50.33-27.56,118-71.73,124.14-136.85,2.53-26.82-5.67-53.74-14.35-82.25-9.94-32.66-20.23-66.43-14.06-101.79,4.88-27.93,19.19-51.58,33-74.45,8.13-13.45,15.81-26.14,21.63-39.53,26.34-60.69,12.14-140.22-36.2-202.6-23.24-30-53.24-56.45-91.7-80.89a14.45,14.45,0,1,1,15.5-24.4c41.33,26.25,73.73,54.9,99,87.58,54.7,70.6,70.35,161.6,39.86,231.82-6.59,15.18-15.13,29.31-23.4,43-13,21.54-25.33,41.88-29.29,64.47-5,28.55,3.88,57.62,13.25,88.39,9.12,29.94,18.54,60.89,15.47,93.39-7.47,78.81-82.93,128.77-139,159.48-65.37,35.79-128,95-167.42,158.27A14.46,14.46,0,0,1,1946.5,1342.82Z" transform="translate(-611.66 -334.53)"/><path class="cls-3" d="M1975.86,623.78l-86.76-49.95a22,22,0,0,1-8.08-30h0a22,22,0,0,1,30-8.07l86.75,49.94a22,22,0,0,1,8.08,30h0A22,22,0,0,1,1975.86,623.78Z" transform="translate(-611.66 -334.53)"/><path class="cls-3" d="M2035.05,811.15l-71.56,70a22,22,0,0,1-31.07-.34h0a22,22,0,0,1,.34-31.07l71.56-70a22,22,0,0,1,31.07.35h0A22,22,0,0,1,2035.05,811.15Z" transform="translate(-611.66 -334.53)"/><path class="cls-3" d="M1787.9,1066.93l100.07-2.66a22,22,0,0,1,22.55,21.38h0a22,22,0,0,1-21.38,22.55l-100.07,2.66a22,22,0,0,1-22.55-21.38h0A22,22,0,0,1,1787.9,1066.93Z" transform="translate(-611.66 -334.53)"/><path class="cls-3" d="M1473.36,1372.31l57.59-81.88a22,22,0,0,1,30.62-5.33h0a22,22,0,0,1,5.33,30.61l-57.59,81.88a22,22,0,0,1-30.61,5.34h0A22,22,0,0,1,1473.36,1372.31Z" transform="translate(-611.66 -334.53)"/><path class="cls-3" d="M1101.07,1369l99.85,7.1a22,22,0,0,1,20.36,23.47h0a22,22,0,0,1-23.47,20.36l-99.86-7.1a22,22,0,0,1-20.36-23.47h0A22,22,0,0,1,1101.07,1369Z" transform="translate(-611.66 -334.53)"/><path class="cls-3" d="M871.48,1296l40.62-91.49a22,22,0,0,1,29-11.17h0a22,22,0,0,1,11.16,29l-40.62,91.49a22,22,0,0,1-29,11.17h0A22,22,0,0,1,871.48,1296Z" transform="translate(-611.66 -334.53)"/><path class="cls-3" d="M907.08,951.3l99-14.95a22,22,0,0,1,25,18.44h0a22,22,0,0,1-18.44,25l-99,15a22,22,0,0,1-25-18.44h0A22,22,0,0,1,907.08,951.3Z" transform="translate(-611.66 -334.53)"/><path class="cls-3" d="M1168.27,744.74l58.64-81.14a22,22,0,0,1,30.67-4.94h0a22,22,0,0,1,4.94,30.68l-58.64,81.14a22,22,0,0,1-30.68,4.94h0A22,22,0,0,1,1168.27,744.74Z" transform="translate(-611.66 -334.53)"/><path class="cls-3" d="M1531.52,512.22l70,71.56a22,22,0,0,1-.34,31.07h0a22,22,0,0,1-31.07-.34l-70-71.57a22,22,0,0,1,.35-31.07h0A22,22,0,0,1,1531.52,512.22Z" transform="translate(-611.66 -334.53)"/><g class="cls-5"><path class="cls-6" d="M1150.13,1163.69c-1.56-36.68-1.49-75.72,17.8-107,34.9-56.52,118.82-66.49,153.91-122.88,13.26-21.31,18-47.19,32.09-67.94,21.73-31.93,66-46.39,102.37-33.43,17.5,6.23,32.51,17.77,48.85,26.59s35.7,15,53.37,9.32c19.2-6.17,31.63-24.69,39.58-43.22s13.14-38.58,25-54.84A80.33,80.33,0,0,1,1691,738.15c-3.68-4.87-7.44-12-12.84-14.89-31.66-16.68-71.9-15.78-102.78,2.3-15.45,9-28.5,21.94-44.51,29.93-49.18,24.51-110.26-3.25-162.63,13.37-33.2,10.53-58.44,37.58-78.76,65.87s-37.63,59.19-62.73,83.34c-34.5,33.17-84.09,54.55-101.36,99.18-10.8,5.48-17.17,20-19.12,32s.27,24.2,3.63,35.83C1118.22,1113.79,1129.49,1142.07,1150.13,1163.69Z" transform="translate(-611.66 -334.53)"/></g><g class="cls-7"><path class="cls-3" d="M1936.85,876.28c-26.18,21.24-64.57.79-62.11-32.83a260.16,260.16,0,0,0-103.28-228.58c-26-19.73-17-61.43,15.06-67.83,46-9.21,95.2-2.67,134.57,22,63,39.45,98.3,118.83,85.37,192C1998.54,805.88,1972.53,847.33,1936.85,876.28Z" transform="translate(-611.66 -334.53)"/></g><g class="cls-7"><ellipse class="cls-3" cx="1866.27" cy="984.45" rx="65.88" ry="44.6" transform="translate(-850.96 786.62) rotate(-31.53)"/></g><g class="cls-7"><path class="cls-3" d="M907.72,1127.53c21-26.4,62.87-14.74,67.75,18.61a260.15,260.15,0,0,0,150.31,200.8c29.66,13.63,29.85,56.3,0,69.48-42.94,18.95-92.36,23.21-136.14,7.67-70-24.87-121.69-94.73-124.91-169C862.73,1209.62,879.16,1163.52,907.72,1127.53Z" transform="translate(-611.66 -334.53)"/></g><g class="cls-7"><ellipse class="cls-3" cx="953.21" cy="1006.65" rx="65.88" ry="44.6" transform="translate(-1043.44 610.85) rotate(-44.03)"/></g></svg>