<svg id="Modo_de_aislamiento" data-name="Modo de aislamiento" xmlns="http://www.w3.org/2000/svg" viewBox="0 0 1634.1 1691.94"><defs><style>.cls-1{fill:#e9a54a;}.cls-2{fill:#ebb661;}.cls-3{fill:#570000;}.cls-4{fill:#d26a2b;}.cls-5{opacity:0.3;}.cls-6{opacity:0.55;}.cls-7{fill:#fff;}.cls-8{fill:#67273e;}.cls-9{fill:#692d39;}</style></defs><path class="cls-1" d="M1925.13,1577.88c-19.35,203.06-390.5,294.66-833.49,252.46S301.46,1628.1,320.81,1425C331,1318,440,1231.15,605.65,1179.14c148.6-46.67,342.83-65.32,552.35-45.36,191.51,18.25,364.42,65.77,497.46,130.24C1830.17,1348.66,1936.11,1462.61,1925.13,1577.88Z" transform="translate(-305.91 -162.53)"/><path class="cls-2" d="M1808.4,1375.81c-34.39-40.07-87.23-78.12-154.19-111.9l1.25.11a846.06,846.06,0,0,1,103.69,59.06A408.92,408.92,0,0,1,1808.4,1375.81Z" transform="translate(-305.91 -162.53)"/><path class="cls-3" d="M1806.86,1377.12c-34.09-39.73-85.76-77.21-153.55-111.42l-9.63-4.85,12.65,1.36c38,18.4,73,38.32,103.94,59.2a409.5,409.5,0,0,1,49.72,53.17Zm-60.14-59.85q9.94,7.27,19,14.69-3.91-3.7-8-7.39Q1752.35,1320.9,1746.72,1317.27Z" transform="translate(-305.91 -162.53)"/><path class="cls-4" d="M1925.13,1577.88c-19.35,203.06-390.5,294.66-833.49,252.46S301.46,1628.1,320.81,1425C331,1318,440,1231.15,605.65,1179.14l2.49.57c-118.18,40.38-193.38,101.17-200.41,175-6.56,68.82,48.17,128.23,144.41,176.61,87.61,37.57,179.62,66.69,275.52,88.58l-7.81-34.76a22.2,22.2,0,0,1,10.35-23.95l29.57-17.5a38.41,38.41,0,0,1,18.26-5.33l46.18-1.58a4.1,4.1,0,0,1,1.44,8l-21.39,7.17A36.73,36.73,0,0,0,887.08,1564L874.2,1580.4a24.11,24.11,0,0,0-.48,29.19l17.3,23.56c108.87,20.89,222.41,33,339.81,37.84,342,17.72,608.59-35.39,622.23-178.62,7.76-81.41-69-163-198.85-228.46l1.25.11C1830.17,1348.66,1936.11,1462.61,1925.13,1577.88Z" transform="translate(-305.91 -162.53)"/><g class="cls-5"><path class="cls-3" d="M1913,1569.82c-19.34,203.07-390.5,294.67-833.49,252.46-306.87-29.23-567.71-115-692.63-232.41,139.21,91,366.38,156.45,626.68,181.25,443,42.2,814.15-49.4,833.49-252.47,2.44-25.59-.87-51.12-9.45-76.26a.09.09,0,0,0,0-.08c-6.35-25.13-20.32-50.06-41-74.21l-.29-.35c-34.39-40.06-87.22-78.12-154.18-111.9l1.24.12a846,846,0,0,1,103.69,59C1858.6,1390.2,1921.64,1479.62,1913,1569.82Z" transform="translate(-305.91 -162.53)"/></g><path class="cls-4" d="M868.6,1286.78l-55.21-5.26-36.31-43.71-119.55,8.74-104.59-49L471.78,1228l171.82,37.34,120.29,2.72L816.17,1309l53.09-12.11A5.13,5.13,0,0,0,868.6,1286.78Z" transform="translate(-305.91 -162.53)"/><path class="cls-4" d="M1390.45,1172l-57.14,47.32-58.19,4.81a29,29,0,0,0-25.72,21.83l-12.62,50.33a4,4,0,0,0,7.25,3.06l34.36-55.75,94.11,1.74,89.06-54.6" transform="translate(-305.91 -162.53)"/><g class="cls-6"><path class="cls-7" d="M1907.34,1480.79c-44.23-67.59-125.6-130.59-232.88-182.58-133-64.48-305.94-112-497.46-130.24-209.52-20-403.74-1.31-552.35,45.36C459,1265.34,350,1352.17,339.81,1459.22c-2.86,30.08,2.3,59.19,14.65,87.15-25.67-38.1-37.7-78.78-33.65-121.34C331,1318,440,1231.15,605.65,1179.14c148.6-46.67,342.83-65.32,552.35-45.36,191.51,18.25,364.42,65.77,497.46,130.24C1780.65,1324.68,1870.53,1400.35,1907.34,1480.79Z" transform="translate(-305.91 -162.53)"/></g><polyline class="cls-4" points="1033.83 1315.06 1167.84 1352.78 1191.47 1402.03 1273.52 1418.84 1393.48 1492.33 1276.41 1515.87 1251.1 1441.75 1149.86 1442.37 1151.49 1368.57 1029.92 1356.05"/><path class="cls-3" d="M1296.93,1854.47c-66.46,0-135.73-3.34-206.65-10.09-222.06-21.16-422.3-72.23-563.82-143.79-153.59-77.67-229.56-173.42-219.7-276.9,9.91-104,105.48-192.64,269.12-249.57,160-55.66,367.21-75,583.44-54.36s416.07,78.69,562.68,163.56c150,86.8,227.07,191.88,217.16,295.9-9.86,103.47-102.55,183.15-268,230.42C1567.33,1839.29,1438.58,1854.47,1296.93,1854.47ZM992.26,1139.91c-151.13,0-291.83,20.75-407.11,60.85C432.53,1253.85,343.64,1334,334.83,1426.37c-10.94,114.89,105.09,198.85,204.36,249.05,138.46,70,335.12,120,553.77,140.88s421.23,8.84,570.42-33.78c107-30.55,236.75-91.09,247.7-206l14,1.34-14-1.34c8.8-92.39-63.36-187.86-203.2-268.82-143.18-82.88-338.94-139.66-551.23-159.88C1101,1142.53,1046,1139.91,992.26,1139.91Z" transform="translate(-305.91 -162.53)"/><path class="cls-3" d="M550.34,1534.9a297.26,297.26,0,0,1-60.56-27.78c-19.16-11.6-37.43-25.42-53.08-42.46s-28.72-37.3-35.61-60.41l-2.51-8.65c-.61-2.94-1.09-5.92-1.63-8.89a58.44,58.44,0,0,1-1.15-9l-.61-9c-.12-3,.16-6,.23-9a67.2,67.2,0,0,1,.68-9c1-5.9,1.5-11.93,3.36-17.63,6-23.23,18.17-44.2,33.13-61.83s32.69-32.42,51.31-45.15a436.27,436.27,0,0,1,58.51-33.08c20.22-9.42,40.93-17.45,61.84-24.78a12.09,12.09,0,1,1,8,22.81l-.18.06c-20.19,7.09-40.12,14.81-59.39,23.8a412.34,412.34,0,0,0-55.11,31.13c-17.3,11.81-33.37,25.27-46.54,40.84s-23.24,33.23-28.16,52.23c-1.59,4.67-1.88,9.6-2.76,14.41a48.05,48.05,0,0,0-.54,7.29c-.05,2.43-.31,4.88-.21,7.31.49,4.83.38,9.74,1.59,14.48l1.39,7.15,2.17,7c5.85,18.73,17.82,35.35,31.29,50.57,13.64,15.22,29.37,29.11,46.07,42.15s34.36,25.33,52.09,38.18l0,0a4.07,4.07,0,0,1-3.66,7.17Z" transform="translate(-305.91 -162.53)"/><path class="cls-3" d="M941.62,1645.24c-18.26.93-36.25-.33-54.14-2.28a533.78,533.78,0,0,1-53.14-9c-17.56-3.83-35-8.28-52.19-13.63s-34.22-11.36-50.7-19a4.08,4.08,0,0,1,2.12-7.77c18,1.72,35.59,4.57,53.18,7.36s35,6.14,52.45,9.54,34.8,7,52.1,11.34,34.52,9,51.56,15.49a4.11,4.11,0,0,1-1.24,8Z" transform="translate(-305.91 -162.53)"/><path class="cls-3" d="M1659.65,1253.13c38.15,19.35,75.22,41.43,109.15,68.44a364.73,364.73,0,0,1,47.49,44.93c14.47,16.54,27.22,35.11,36.4,55.86s14.22,43.94,12.64,67.19c-.1,1.45-.15,2.91-.31,4.35l-.65,4.32-1.33,8.63c-.5,2.86-1.44,5.65-2.16,8.47a83.33,83.33,0,0,1-2.52,8.38l-3.26,8.11c-.57,1.34-1.06,2.72-1.69,4l-2.06,3.83-4.15,7.66c-1.46,2.5-3.2,4.79-4.8,7.19-13.11,19-30.28,34.26-48.62,46.64s-38.12,22.13-58.19,30.36a507.11,507.11,0,0,1-61.4,20.51c-20.75,5.56-41.64,10.45-62.67,14.26-21,4-42.11,7.21-63.24,10-21.16,2.61-42.36,4.74-63.58,6.25-10.6.85-21.23,1.23-31.85,1.7s-21.24.71-31.85,1c-21.24.41-42.47.26-63.67-.34A1257.34,1257.34,0,0,1,1230.6,1675a4,4,0,0,1,.41-8c84.44-2.24,168.38-3.48,251.81-10.1,41.68-3.14,83.29-7.41,124.26-14.76s81.41-17.46,119.34-33c18.92-7.75,37.23-16.83,53.83-28s31.38-24.55,42.25-40.32c1.31-2,2.8-3.9,4-6l3.37-6.26,1.71-3.13c.52-1.06.89-2.18,1.34-3.27l2.65-6.56a61,61,0,0,0,2-6.76c.57-2.29,1.38-4.51,1.77-6.84l1.06-7,.55-3.51c.13-1.17.16-2.36.25-3.54,1.27-18.92-2.77-38.08-10.65-55.92s-19.22-34.54-32.52-49.7a339.48,339.48,0,0,0-44.33-41.91c-32.13-25.59-67.9-47-105-65.74l0,0a12.08,12.08,0,0,1,10.92-21.56Z" transform="translate(-305.91 -162.53)"/><g class="cls-5"><path class="cls-3" d="M585.38,1418.87c46,137.94,334.42,141.78,230.58,33.77" transform="translate(-305.91 -162.53)"/></g><g class="cls-5"><path class="cls-3" d="M774.15,1160.45c46,137.94,334.42,141.78,230.59,33.77" transform="translate(-305.91 -162.53)"/></g><g class="cls-5"><path class="cls-3" d="M1189.15,1504.6c46,137.94,293.64,105.65,189.8-2.36" transform="translate(-305.91 -162.53)"/></g><g class="cls-5"><path class="cls-3" d="M1462.64,1363.38c46,137.93,257.1,93.86,153.26-14.15" transform="translate(-305.91 -162.53)"/></g><g class="cls-5"><path class="cls-3" d="M1028.51,1347c26.71,80.15,165.32,64.28,105,1.52" transform="translate(-305.91 -162.53)"/></g><path class="cls-8" d="M1599.77,1400.1c19.65-5.68,28.38-28.56,18.63-46.55-33.72-62.17-113.89-65.35-148.53-29.53-12,12.17-11.45,27.27,1.69,34a27.1,27.1,0,0,0,13.13,2.86c6.37-.17,22.36,1.91,33.6,24.88C1522.72,1394.86,1568.41,1409.17,1599.77,1400.1Z" transform="translate(-305.91 -162.53)"/><path class="cls-3" d="M1577,1405c-27.68,0-56.62-10.32-60.53-18.32-10.72-21.92-25.79-23.9-31.74-23.76a29.39,29.39,0,0,1-14.1-3.08c-6.21-3.19-10.17-8.35-11.15-14.53-1.19-7.47,2.07-15.75,9-22.71,17.38-18,46.36-26.67,75.69-22.66a101.33,101.33,0,0,1,76,52.64,34.88,34.88,0,0,1,1.54,30.26,33.09,33.09,0,0,1-21.38,19.19h0A85.09,85.09,0,0,1,1577,1405Zm-91.66-46.11c7.17,0,23.4,2.8,34.75,26,3.88,7.92,48.56,22.09,79.12,13.25h0A29.11,29.11,0,0,0,1618,1381.3a30.93,30.93,0,0,0-1.37-26.79,97.32,97.32,0,0,0-73.05-50.56c-28.06-3.84-55.74,4.39-72.26,21.47-6,6.06-8.84,13.08-7.85,19.27.78,5,3.9,9,9,11.58a24.38,24.38,0,0,0,12.15,2.63Z" transform="translate(-305.91 -162.53)"/><g class="cls-6"><path class="cls-7" d="M1620.49,1380.41c-.3-.68-.64-1.36-1-2-33.7-62.17-113.9-65.36-148.51-29.52a31.82,31.82,0,0,0-4.5,5.56c-8-7.64-6.83-20.12,3.39-30.44,34.61-35.8,114.81-32.65,148.51,29.53A33.14,33.14,0,0,1,1620.49,1380.41Z" transform="translate(-305.91 -162.53)"/></g><path class="cls-8" d="M784.84,1482.41c29.44-8.52,42.51-42.81,27.9-69.75-50.52-93.17-170.65-97.93-222.56-44.26-18,18.23-17.16,40.87,2.54,51a40.66,40.66,0,0,0,19.67,4.28c9.54-.25,33.51,2.87,50.34,37.29C669.37,1474.55,737.83,1496,784.84,1482.41Z" transform="translate(-305.91 -162.53)"/><path class="cls-3" d="M750.46,1488.8c-41,0-83.78-15.15-89.54-26.93-16.3-33.36-39.38-36.43-48.47-36.16a42.93,42.93,0,0,1-20.65-4.51c-9-4.64-14.76-12.11-16.18-21-1.73-10.89,3-23,13.13-33.18,25.84-26.71,69-39.63,112.56-33.66a150.81,150.81,0,0,1,113.2,78.37,51.3,51.3,0,0,1,2.27,44.47,48.6,48.6,0,0,1-31.39,28.17h0A126.94,126.94,0,0,1,750.46,1488.8Zm-137.09-67.14c10.53,0,34.41,4.15,51.17,38.44,5.9,12.06,73.55,33.73,119.74,20.37h0a44.61,44.61,0,0,0,28.79-25.85,47.31,47.31,0,0,0-2.1-41,146.79,146.79,0,0,0-110.2-76.29c-42.34-5.81-84.16,6.65-109.14,32.47-9.18,9.3-13.56,20.13-12,29.73,1.24,7.74,6.09,14,14,18.09a38.65,38.65,0,0,0,18.7,4.06Z" transform="translate(-305.91 -162.53)"/><g class="cls-6"><path class="cls-7" d="M815.08,1454.92a50.8,50.8,0,0,0-5-13.87c-50.54-93.17-170.65-97.94-222.59-44.24a50.78,50.78,0,0,0-7.7,9.87c-5.41-11.16-2-25.76,10.4-38.27,52-53.69,172.06-48.93,222.59,44.24A49.25,49.25,0,0,1,815.08,1454.92Z" transform="translate(-305.91 -162.53)"/></g><path class="cls-3" d="M751.17,1498.64c-43.2,0-90.92-15.22-99.29-32.35-13.74-28.1-31.83-30.74-39.17-30.51a52.73,52.73,0,0,1-25.52-5.62c-11.94-6.15-19.58-16.24-21.52-28.41-2.24-14.08,3.56-29.33,15.92-41.84C609.53,1331,656,1317,702.68,1323.35c51.74,7.08,95.74,37.53,120.69,83.54a61.36,61.36,0,0,1,2.7,53.17,58.57,58.57,0,0,1-37.88,34C777.1,1497.22,764.34,1498.64,751.17,1498.64Zm-77.8-43.42c8,9.12,66.82,27.51,108.11,15.57h0a34.11,34.11,0,0,0,22.29-20.06,37.26,37.26,0,0,0-1.65-32.31A136.87,136.87,0,0,0,699.4,1347.3c-39.23-5.36-77.75,6-100.53,29.51-7,7.06-10.34,14.74-9.33,21.14.72,4.5,3.65,8.11,8.71,10.72a29,29,0,0,0,13.82,2.94C624,1411.3,653.47,1414.94,673.37,1455.22Z" transform="translate(-305.91 -162.53)"/><path class="cls-3" d="M1576.62,1415.1c-30.47,0-62.92-11.19-69.19-24-8.16-16.67-18.42-18.26-22.42-18.12a39,39,0,0,1-19-4.19c-9.12-4.7-15-12.48-16.48-21.9-1.7-10.68,2.58-22.12,11.74-31.38,19.49-20.17,51.82-30,84.21-25.56a111.32,111.32,0,0,1,83.54,57.82,45,45,0,0,1,2,39,43.09,43.09,0,0,1-27.87,25h0A96.44,96.44,0,0,1,1576.62,1415.1Zm23.15-15h0Zm-71.14-20.64c6.62,5.41,42.45,16.35,67.79,9a18.81,18.81,0,0,0,12.28-11.08,20.86,20.86,0,0,0-.93-18.09,87.31,87.31,0,0,0-65.55-45.39c-24.94-3.42-49.33,3.67-63.66,18.49-4.37,4.43-5.51,8.41-5.15,10.69.1.62.4,2.52,3.69,4.21a15.41,15.41,0,0,0,7.27,1.52C1493,1348.6,1514.32,1351.17,1528.63,1379.46Z" transform="translate(-305.91 -162.53)"/><path class="cls-8" d="M1379,1502.24c-1.34-107-117.62-106.54-178.26-37A40.45,40.45,0,0,0,1216.8,1530c37.51,14.34,88.76,18,125.78,13.84C1363.53,1541.48,1379.21,1523.32,1379,1502.24Z" transform="translate(-305.91 -162.53)"/><path class="cls-3" d="M1312.4,1547.4c-31,0-67.27-4.44-96.32-15.54a42.46,42.46,0,0,1-16.91-67.9c35.34-40.56,90.82-59,131.93-43.93,31.63,11.62,49.34,40.81,49.86,82.19h0a43,43,0,0,1-38.16,43.6A276.11,276.11,0,0,1,1312.4,1547.4Zm-12.2-128.6c-34,0-71.69,17.62-98,47.81a38.42,38.42,0,0,0,15.31,61.48c38.72,14.81,90.61,17.57,124.83,13.73a39,39,0,0,0,34.58-39.55h0c-.49-39.59-17.26-67.45-47.22-78.46A85.34,85.34,0,0,0,1300.2,1418.8Z" transform="translate(-305.91 -162.53)"/><g class="cls-6"><path class="cls-7" d="M1375.34,1473.61c-34.1-47.85-115.12-35.57-162.37,18.65a40.32,40.32,0,0,0-10.08,28.91,40.46,40.46,0,0,1-2.21-55.9C1255.35,1402.57,1355.17,1396,1375.34,1473.61Z" transform="translate(-305.91 -162.53)"/></g><path class="cls-3" d="M1311.79,1557.5c-30.71,0-67.78-4.18-99.3-16.24a52.52,52.52,0,0,1-20.92-83.91c38-43.59,98.11-63.27,143-46.78,20.75,7.63,55.68,29.66,56.46,91.52h0a53.06,53.06,0,0,1-47.12,53.74A293.2,293.2,0,0,1,1311.79,1557.5ZM1300,1428.81c-31,0-65.75,16.4-90.16,44.42a28.35,28.35,0,0,0,11.32,45.45c37.14,14.2,87.09,16.83,120.11,13.13,14.56-1.63,25.82-14.55,25.63-29.42h0c-.44-35.62-14.49-59.53-40.62-69.13A76.08,76.08,0,0,0,1300,1428.81Z" transform="translate(-305.91 -162.53)"/><path class="cls-8" d="M1004.14,1177.75c-3.88-107.26-145.72-109.22-218.24-40.76-22.41,21.15-11.71,54.38,21,65.15C853,1217.3,915.57,1222,960.64,1218.65,986.15,1216.74,1004.9,1198.88,1004.14,1177.75Z" transform="translate(-305.91 -162.53)"/><path class="cls-3" d="M931.87,1221.67c-39.33,0-87.45-5.06-125.59-17.61-17.53-5.78-30-18.23-33.37-33.32-2.84-12.74,1.39-25.57,11.61-35.22,45-42.49,117.06-58.91,167.6-38.2,33.47,13.72,52.66,42.26,54,80.36.81,22.5-18.69,41-45.36,43C952,1221.32,942.24,1221.67,931.87,1221.67Zm-28.34-129.28c-40.71,0-85.09,16.64-116.25,46.06-9.16,8.65-13,20.1-10.44,31.41,3,13.69,14.53,25.05,30.7,30.37,47.66,15.68,111.17,19.54,153,16.41,24.47-1.83,42.37-18.52,41.63-38.82-1.68-46.68-29-67.51-51.53-76.77C936.3,1095.19,920.22,1092.39,903.53,1092.39Z" transform="translate(-305.91 -162.53)"/><g class="cls-6"><path class="cls-7" d="M998,1145.53c-45-42.41-138.25-30.65-192.55,20.63-9.21,8.68-12.82,19.38-11.66,29.73-22-14.2-26.9-40.89-7.82-58.9C850.27,1076.22,969.32,1070.93,998,1145.53Z" transform="translate(-305.91 -162.53)"/></g><path class="cls-3" d="M932,1231.74c-40.31,0-89.69-5.21-128.91-18.12-20.94-6.89-35.91-22.1-40-40.69-3.63-16.29,1.66-32.59,14.52-44.73,47.71-45,124.37-62.31,178.34-40.2,37.34,15.31,58.75,47,60.28,89.31h0c1,28-22.49,51-54.67,53.39C952.57,1231.38,942.61,1231.74,932,1231.74Zm-27.93-129.11c-38.34,0-80.89,15.75-109.91,43.15-6.61,6.24-9.29,14-7.53,21.89,2.27,10.19,11.25,18.79,24,23,46.34,15.25,108.26,19,149,15.94,18.65-1.4,32.84-13.88,32.32-28.41h0c-1.49-41.32-25.45-59.69-45.29-67.82C934,1105.12,919.37,1102.63,904.11,1102.63Z" transform="translate(-305.91 -162.53)"/><path class="cls-8" d="M1751.53,1497c-26.42,12.59-47.63,26.4-60.74,42.11-19.26,23.07-12.66,58.12,12.8,74.08,37.16,23.31,73.4,30.47,107.7,3.32a85.66,85.66,0,0,0,31-81.86c-4.11-22.89-16.55-39.63-42.51-44.53C1783.48,1487,1766.54,1489.8,1751.53,1497Z" transform="translate(-305.91 -162.53)"/><path class="cls-3" d="M1764.12,1635.81c-18.88,0-39.31-7-61.6-21a53.08,53.08,0,0,1-24.24-36.69,50.54,50.54,0,0,1,11-40.4c12.47-14.94,32.56-28.89,61.41-42.63h0c15.9-7.57,33.49-10.07,49.53-7,24.61,4.65,39.46,20.18,44.12,46.16a88.19,88.19,0,0,1-31.77,83.79C1797.58,1629.89,1781.51,1635.81,1764.12,1635.81Zm-11.72-137c-28.33,13.49-48,27.09-60.06,41.58a45.92,45.92,0,0,0-10.09,37.18,49.12,49.12,0,0,0,22.41,33.91c41.76,26.19,75.25,27.28,105.38,3.44a84.14,84.14,0,0,0,30.31-79.92c-4.4-24.51-17.78-38.55-40.91-42.91-15.22-2.87-31.92-.48-47,6.72Z" transform="translate(-305.91 -162.53)"/><g class="cls-6"><path class="cls-7" d="M1840.69,1527.5c-6.49-5.8-15-9.89-25.78-11.93-16.34-3.09-33.24-.25-48.29,6.9-26.41,12.58-47.6,26.38-60.71,42.09a48.5,48.5,0,0,0-9.72,43c-19.17-17.57-22.64-47.81-5.42-68.47,13.12-15.71,34.34-29.51,60.76-42.09,15-7.15,32-10,48.29-6.9C1823,1494.45,1835.4,1508.3,1840.69,1527.5Z" transform="translate(-305.91 -162.53)"/></g><path class="cls-8" d="M1078.27,1287.49c-16.23,7.73-29.27,16.22-37.32,25.87-11.83,14.18-7.78,35.72,7.86,45.53,22.84,14.32,45.11,18.72,66.19,2a52.64,52.64,0,0,0,19.07-50.3c-2.53-14.07-10.17-24.36-26.12-27.37A48.43,48.43,0,0,0,1078.27,1287.49Z" transform="translate(-305.91 -162.53)"/><path class="cls-3" d="M1086,1373.61c-11.74,0-24.44-4.33-38.28-13a33.43,33.43,0,0,1-15.25-23.08,31.86,31.86,0,0,1,6.91-25.45c7.73-9.26,20.16-17.9,38-26.4h0a50.73,50.73,0,0,1,30.91-4.39c15.47,2.93,24.81,12.68,27.73,29a55,55,0,0,1-19.8,52.24C1106.9,1369.91,1096.87,1373.61,1086,1373.61Zm-6.88-84.3c-17.31,8.24-29.29,16.53-36.64,25.34a27.49,27.49,0,0,0-6,22.24,29.35,29.35,0,0,0,13.41,20.29c25.35,15.91,45.65,16.59,63.87,2.17a51,51,0,0,0,18.34-48.37c-2.64-14.7-10.66-23.12-24.52-25.74a46.68,46.68,0,0,0-28.43,4.07Z" transform="translate(-305.91 -162.53)"/><g class="cls-6"><path class="cls-7" d="M1134.72,1322.92c-4.19-7.4-11.11-12.55-21.68-14.57a48.39,48.39,0,0,0-29.71,4.25c-16.2,7.72-29.22,16.2-37.31,25.87a29.5,29.5,0,0,0-6,12.09c-7.82-10.9-8.14-26.23,1-37.18,8-9.68,21.08-18.15,37.32-25.91a48.57,48.57,0,0,1,29.66-4.22c15.94,3,23.62,13.3,26.13,27.38A49,49,0,0,1,1134.72,1322.92Z" transform="translate(-305.91 -162.53)"/></g><path class="cls-3" d="M1764.24,1646.08c-20.69,0-42.94-7.56-67.07-22.7a63.14,63.14,0,0,1-28.84-43.64,60.63,60.63,0,0,1,13.18-48.43c13.43-16.08,34.63-30.89,64.82-45.27h0c18.07-8.61,37.34-11.32,55.73-7.85,28.73,5.43,46.77,24.2,52.17,54.28a97.12,97.12,0,0,1-35.44,93.47C1801.82,1639.37,1783.73,1646.08,1764.24,1646.08Zm-7.51-138.22c-27,12.85-45.52,25.59-56.66,38.94a36,36,0,0,0-7.87,29.15,39,39,0,0,0,17.81,27c38.17,23.94,67.09,25.2,93.78,4.09a74,74,0,0,0,26.64-70.25c-3.62-20.19-14.06-31.24-32.85-34.8-13.13-2.47-27.64-.37-40.85,5.92Z" transform="translate(-305.91 -162.53)"/><path class="cls-3" d="M1086.13,1383.69c-13.65,0-28.27-4.85-43.74-14.56a43.49,43.49,0,0,1-19.85-30,42,42,0,0,1,9.13-33.48c8.68-10.41,22.22-19.91,41.4-29h0a60,60,0,0,1,37.12-5.19c19.72,3.72,32.09,16.55,35.78,37.1a64.36,64.36,0,0,1-23.47,61.92Q1105.71,1383.69,1086.13,1383.69Zm-2.66-85.29c-15.74,7.5-26.93,15.14-33.24,22.71a17.52,17.52,0,0,0-3.81,14.2,19.35,19.35,0,0,0,8.81,13.34c21.82,13.68,37.45,14.53,52.27,2.8a40.73,40.73,0,0,0,14.67-38.69c-1.88-10.53-6.81-15.8-16.47-17.62a36.59,36.59,0,0,0-22.23,3.26Z" transform="translate(-305.91 -162.53)"/><polygon class="cls-4" points="603.46 1300.09 634.77 1268.46 693.02 1262.2 744.87 1241.85 699.22 1284.04 655.27 1286.82 603.46 1300.09"/><path class="cls-1" d="M326.92,723.25c31.61,201.52,407.63,270.47,847.26,201.51S1950.65,675,1919,473.5c-16.67-106.23-130.7-186.3-299.21-228.18-151.16-37.58-346.16-44.43-554.09-11.82C875.68,263.32,706,321.22,577.09,393.64,407.83,488.7,309,608.86,326.92,723.25Z" transform="translate(-305.91 -162.53)"/><path class="cls-2" d="M431.2,514.48c31.9-42.07,82.33-83.26,147.12-121l-1.23.2a845.62,845.62,0,0,0-99.92,65.22A408,408,0,0,0,431.2,514.48Z" transform="translate(-305.91 -162.53)"/><path class="cls-3" d="M432.8,515.7l-3.27-2.35a411.69,411.69,0,0,1,46.2-55.9c29.87-22.9,63.57-44.89,100.37-65.57l.68-.23,11.82-1.87-9.27,5.4C513.74,433.43,464.44,474,432.8,515.7ZM489,452.51q-5.39,4-10.6,7.95-3.79,3.9-7.46,7.83Q479.54,460.36,489,452.51Z" transform="translate(-305.91 -162.53)"/><path class="cls-4" d="M326.92,723.25c31.61,201.52,407.63,270.47,847.26,201.51S1950.65,675,1919,473.5c-16.67-106.23-130.7-186.3-299.21-228.18l-2.46.71c120.41,33.15,199.16,89.27,210.64,162.51,10.72,68.3-40.31,130.91-133.45,185-85.16,42.81-175.24,77.45-269.64,105.1l5.69-35.16a22.2,22.2,0,0,0-11.79-23.29l-30.57-15.67a38.4,38.4,0,0,0-18.54-4.22l-46.2,1.22a4.1,4.1,0,0,0-1,8.06l21.78,5.86a36.65,36.65,0,0,1,17.88,11l13.86,15.58a24.1,24.1,0,0,1,2.24,29.1l-15.84,24.57c-107.4,27.45-220,46.42-336.89,58.35C685.33,812.54,416,775.67,393.68,633.54c-12.68-80.8,59-166.84,184.64-240.1l-1.23.2C407.83,488.7,309,608.86,326.92,723.25Z" transform="translate(-305.91 -162.53)"/><g class="cls-5"><path class="cls-3" d="M326.92,723.25c31.61,201.52,407.63,270.47,847.26,201.51,304.53-47.77,559.7-149.18,677.28-273.94C1718,750.06,1495.23,829.17,1236.91,869.69c-439.63,69-815.65,0-847.26-201.51-4-25.39-2.22-51.08,4.81-76.69a.19.19,0,0,1,0-.09c4.82-25.46,17.26-51.19,36.44-76.55l.27-.37c31.9-42.07,82.33-83.26,147.12-121l-1.23.2a845.62,845.62,0,0,0-99.92,65.22C370.38,540.66,312.88,633.73,326.92,723.25Z" transform="translate(-305.91 -162.53)"/></g><path class="cls-4" d="M1363.87,368.69l54.8-8.6,33.59-45.83,119.86,1.48,101.44-55.19L1756.41,286l-169.24,47.69-119.91,10-49.7,44-53.73-8.88A5.12,5.12,0,0,1,1363.87,368.69Z" transform="translate(-305.91 -162.53)"/><path class="cls-4" d="M836,285.71l59.9,43.77,58.38,1.28a29,29,0,0,1,27,20.23L997,400.46A4,4,0,0,1,989.9,404l-37.67-53.56-93.84,7.44-92.2-49.11" transform="translate(-305.91 -162.53)"/><g class="cls-6"><path class="cls-7" d="M338.79,625.26c40.06-70.14,117.47-138,221.4-196.35,128.89-72.42,298.6-130.32,488.66-160.13,207.93-32.62,402.92-25.77,554.08,11.82,168.52,41.87,282.54,121.94,299.21,228.18,4.68,29.85,1.29,59.21-9.34,87.88,23.32-39.59,32.86-80.93,26.24-123.16-16.67-106.23-130.7-186.3-299.21-228.18-151.16-37.58-346.16-44.43-554.09-11.82C875.68,263.32,706,321.22,577.09,393.64,455.8,461.76,370.67,542.74,338.79,625.26Z" transform="translate(-305.91 -162.53)"/></g><polyline class="cls-4" points="599.26 425.15 467.78 470.92 447.17 521.51 366.3 543.26 251 623.88 369.28 640.29 390.06 564.77 491.15 559.26 485.05 485.7 605.64 465.83"/><path class="cls-3" d="M859.38,964.75c-98,0-187.84-8.52-264.88-25.55C426.45,902,329.11,828.12,313,725.43c-16.19-103.22,54.42-212.78,198.83-308.5C653,323.33,849,253.25,1063.57,219.58s422.6-26.94,585.67,18.93C1816,285.41,1916.79,368.09,1933,471.31,1949.09,574,1879.06,674.18,1730.46,761c-136.93,80-333.71,143.11-554.09,177.68C1065.63,956.06,958.36,964.75,859.38,964.75Zm468.06-738.12c-83.41,0-170.83,6.91-259.5,20.82-210.67,33-402.64,101.58-540.53,193C392.73,529.71,326.48,629.37,340.87,721.06c17.88,114,151.11,166.58,259.72,190.6,151.5,33.5,354.43,33.2,571.41-.83s410.26-95.9,544.22-174.17c96-56.12,206.78-146.95,188.9-261-14.38-91.7-108-166.29-263.52-210C1549.38,239.72,1442.2,226.63,1327.44,226.63Z" transform="translate(-305.91 -162.53)"/><path class="cls-3" d="M1692.53,590.11c16.93-13.91,33.82-27.18,49.69-41.27S1773,520,1785.64,504c12.53-16,23.47-33.32,28.18-52.37l1.74-7.12,1-7.23c.92-4.8.51-9.69.7-14.55,0-2.43-.45-4.85-.65-7.28a46.62,46.62,0,0,0-1-7.25c-1.17-4.74-1.75-9.64-3.63-14.21-6.06-18.66-17.19-35.74-31.27-50.43s-31-27.21-48.93-37.94a411.67,411.67,0,0,0-56.89-27.74c-19.78-7.8-40.15-14.3-60.72-20.15l-.2-.06a12.09,12.09,0,0,1,6.61-23.25c21.32,6,42.48,12.81,63.23,21a435.89,435.89,0,0,1,60.4,29.48c19.37,11.58,37.91,25.19,54,41.95s29.41,36.88,36.81,59.71c2.2,5.58,3.06,11.57,4.42,17.4a65,65,0,0,1,1.23,8.91c.25,3,.71,6,.77,9l-.06,9a56.53,56.53,0,0,1-.61,9c-.36,3-.65,6-1.09,9l-2,8.79c-5.48,23.48-17.42,44.53-31.89,62.45s-32,32.85-50.41,45.59a296.45,296.45,0,0,1-58.77,31.4,4.07,4.07,0,0,1-4.09-6.93Z" transform="translate(-305.91 -162.53)"/><path class="cls-3" d="M1311,723c16.62-7.48,33.56-13.17,50.53-18.59s34.12-10,51.32-14.47,34.42-8.75,51.78-12.7,34.78-7.76,52.64-10.57a4.09,4.09,0,0,1,2.58,7.63c-16,8.65-32.64,15.6-49.45,22.07s-34,11.88-51.28,16.76a529.09,529.09,0,0,1-52.5,12.18c-17.73,3-35.61,5.39-53.89,5.56A4.12,4.12,0,0,1,1311,723Z" transform="translate(-305.91 -162.53)"/><path class="cls-3" d="M584.42,403.9c-35.85,21-70.26,44.5-100.78,72a340.13,340.13,0,0,0-41.71,44.52c-12.35,15.94-22.64,33.27-29.44,51.58s-9.67,37.65-7.25,56.47c.16,1.17.26,2.35.46,3.52l.77,3.46,1.48,6.93c.53,2.3,1.48,4.47,2.18,6.71a64,64,0,0,0,2.42,6.63l3,6.39c.53,1.06,1,2.15,1.55,3.18l1.89,3,3.74,6.05c1.32,2,2.92,3.78,4.35,5.69,11.8,15.09,27.41,27.55,44.62,37.69s36.06,18.12,55.42,24.71C566,755.61,607,763.3,648.28,768.1s83.13,6.6,124.93,7.21c83.68,1.56,167.54-2.29,252-5.17a4,4,0,0,1,.9,8,1256.65,1256.65,0,0,1-125.9,17.57q-31.7,2.84-63.53,4.2c-10.61.32-21.22.8-31.85.9s-21.26.43-31.9.23q-31.9-.34-63.83-2.38c-21.27-1.52-42.53-3.44-63.74-6.17-21.22-2.53-42.37-6.14-63.42-10.43a507.59,507.59,0,0,1-62.52-16.76c-20.54-7-40.8-15.51-59.93-26.78s-37.12-25.42-51.36-43.6c-1.74-2.3-3.61-4.49-5.22-6.89l-4.61-7.39L396,676.94c-.72-1.26-1.29-2.61-1.93-3.91l-3.75-7.91a81.22,81.22,0,0,1-3-8.2c-.89-2.78-2-5.5-2.68-8.33l-1.85-8.53-.91-4.28c-.24-1.43-.38-2.87-.57-4.31-3-23.12.65-46.66,8.54-67.84s19.51-40.58,33-58a363.94,363.94,0,0,1,44.68-47.73c32.23-29,67.89-53.3,104.81-74.92a12.09,12.09,0,0,1,12.21,20.86h0Z" transform="translate(-305.91 -162.53)"/><g class="cls-5"><path class="cls-9" d="M1654.58,483.38c-37.53,140.47-325.22,161.77-228.11,47.68" transform="translate(-305.91 -162.53)"/><path class="cls-3" d="M1464.71,606.47c-28.8,0-49.51-7.73-57.06-21.87-5.16-9.69-6.36-27.07,17.28-54.85l3.07,2.61c-17.55,20.63-23.36,38-16.79,50.34,8.39,15.73,37,22.8,74.7,18.46,69.27-8,148.79-51.16,166.73-118.3l3.89,1C1638.13,552.78,1557,597,1486.37,605.17A191.54,191.54,0,0,1,1464.71,606.47Z" transform="translate(-305.91 -162.53)"/></g><g class="cls-5"><path class="cls-9" d="M1450.5,236.87c-37.52,140.47-325.22,161.77-228.11,47.68" transform="translate(-305.91 -162.53)"/><path class="cls-3" d="M1260.63,360c-28.8,0-49.51-7.73-57.06-21.88-5.16-9.68-6.36-27.06,17.28-54.84l3.07,2.61c-17.55,20.62-23.36,38-16.79,50.34,8.38,15.72,37,22.8,74.7,18.46,69.27-8,148.79-51.16,166.73-118.3l3.89,1c-18.4,68.88-99.53,113.14-170.16,121.26A189.61,189.61,0,0,1,1260.63,360Z" transform="translate(-305.91 -162.53)"/></g><g class="cls-5"><path class="cls-9" d="M1057.11,605.53c-37.53,140.47-286.7,123.23-189.59,9.14" transform="translate(-305.91 -162.53)"/><path class="cls-3" d="M914.16,707.62c-31.88,0-57.17-10.45-66.76-28.42-6.58-12.34-8.7-33.78,18.58-65.84l3.07,2.61c-20.43,24-26.69,45.22-18.09,61.33,10.39,19.47,42.88,29.63,80.78,25.26,46.34-5.33,106.47-34.08,123.42-97.55l3.9,1c-17.48,65.43-79.27,95-126.86,100.51A158.65,158.65,0,0,1,914.16,707.62Z" transform="translate(-305.91 -162.53)"/></g><g class="cls-5"><path class="cls-9" d="M775.57,481.13c-37.53,140.47-251,109.26-153.84-4.84" transform="translate(-305.91 -162.53)"/><path class="cls-3" d="M657.89,576.67c-27.08,0-49.36-10.2-58.6-27.52-10.49-19.66-3.06-46,20.9-74.16l3.07,2.61c-22.82,26.82-30.07,51.55-20.42,69.65,9.91,18.57,36.43,28.24,67.62,24.66,39.29-4.52,87-30.88,103.17-91.3l3.89,1c-16.67,62.38-66,89.59-106.6,94.26A114.35,114.35,0,0,1,657.89,576.67Z" transform="translate(-305.91 -162.53)"/></g><g class="cls-5"><path class="cls-9" d="M1207.91,438.53c-21.81,81.62-161.12,74.17-104.69,7.87" transform="translate(-305.91 -162.53)"/><path class="cls-3" d="M1126.16,499.94c-17.06,0-30.65-5.7-35.88-15.49-3.88-7.28-5.06-20,11.4-39.36l3.07,2.62c-11.86,13.94-15.64,26-10.91,34.85,5.37,10.06,21.57,15.09,41.29,12.83,26.42-3,60.82-19.89,70.83-57.38l3.9,1c-10.54,39.44-46.59,57.16-74.27,60.34A82.92,82.92,0,0,1,1126.16,499.94Z" transform="translate(-305.91 -162.53)"/></g><path class="cls-8" d="M640.91,526.09c-20-4.48-30-26.79-21.41-45.33,29.89-64.11,109.72-72.14,146.47-38.48,12.73,11.42,13.08,26.53.37,34.08A27.16,27.16,0,0,1,753.41,480c-6.37.22-22.21,3.27-32,26.87C717.51,516.2,672.77,533.24,640.91,526.09Z" transform="translate(-305.91 -162.53)"/><path class="cls-3" d="M657.6,529.81a79,79,0,0,1-17.13-1.75h0A33.09,33.09,0,0,1,618,510.21a34.92,34.92,0,0,1-.29-30.3,101.28,101.28,0,0,1,72.71-57.15c29-5.78,58.48,1.13,76.94,18,7.27,6.52,11,14.58,10.29,22.12-.61,6.22-4.25,11.61-10.25,15.18A29.18,29.18,0,0,1,753.48,482c-6,.21-20.87,3.12-30.24,25.64C719.56,516.51,687.07,529.81,657.6,529.81Zm-16.25-5.68c31,7,74.78-9.88,78.17-18,10.27-24.68,27.07-27.88,33.82-28.11a25.12,25.12,0,0,0,12-3.37c5-2.93,7.82-7.12,8.3-12.1.61-6.25-2.66-13.08-9-18.75-17.54-16.06-45.67-22.61-73.44-17.07a97.3,97.3,0,0,0-69.85,54.9,30.91,30.91,0,0,0,.25,26.82,29.14,29.14,0,0,0,19.77,15.7Z" transform="translate(-305.91 -162.53)"/><g class="cls-6"><path class="cls-7" d="M619,507.69c.26-.69.56-1.39.86-2.05,29.87-64.11,109.72-72.15,146.45-38.47a31.77,31.77,0,0,1,4.82,5.28c7.5-8.11,5.6-20.5-5.22-30.18-36.72-33.63-116.58-25.63-146.45,38.47A33.17,33.17,0,0,0,619,507.69Z" transform="translate(-305.91 -162.53)"/></g><path class="cls-8" d="M1459.34,558.88c-29.91-6.72-45-40.15-32.08-67.93,44.78-96.06,164.4-108.09,219.47-57.66,19.08,17.11,19.61,39.76.56,51.08a40.69,40.69,0,0,1-19.38,5.46c-9.54.32-33.27,4.89-48,40.27C1574.11,544.05,1507.08,569.6,1459.34,558.88Z" transform="translate(-305.91 -162.53)"/><path class="cls-3" d="M1484.56,563.47a117.24,117.24,0,0,1-25.66-2.63,48.59,48.59,0,0,1-33-26.21,51.32,51.32,0,0,1-.43-44.53A150.85,150.85,0,0,1,1533.67,405c43.17-8.58,87,1.68,114.42,26.79,10.66,9.56,16.17,21.34,15.1,32.31-.88,9-6.16,16.8-14.87,22a42.73,42.73,0,0,1-20.34,5.74c-9.14.31-31.94,4.74-46.2,39C1576.35,543.92,1528.28,563.47,1484.56,563.47Zm79.29-157.41a151.33,151.33,0,0,0-29.39,2.91,146.83,146.83,0,0,0-105.38,82.83,47.31,47.31,0,0,0,.4,41.05,44.57,44.57,0,0,0,30.3,24.06c46.9,10.53,113.12-15.19,118.28-27.59,15.16-36.44,39.86-41.17,49.78-41.5a38.7,38.7,0,0,0,18.42-5.19c7.69-4.57,12.16-11.11,12.92-18.9,1-9.68-4.09-20.23-13.8-28.93C1625.09,416.22,1595.44,406.06,1563.85,406.06Z" transform="translate(-305.91 -162.53)"/><g class="cls-6"><path class="cls-7" d="M1427.48,533.28a50.75,50.75,0,0,1,4.19-14.16c44.8-96.05,164.4-108.09,219.5-57.64a51,51,0,0,1,8.28,9.39c4.73-11.47.39-25.84-12.7-37.57-55.1-50.45-174.7-38.41-219.5,57.64A49.32,49.32,0,0,0,1427.48,533.28Z" transform="translate(-305.91 -162.53)"/></g><path class="cls-3" d="M1483.51,573.37a123.23,123.23,0,0,1-26.82-2.7h0a58.61,58.61,0,0,1-39.87-31.6,61.37,61.37,0,0,1-.52-53.23c22.12-47.44,64.18-80.5,115.41-90.7,46.22-9.21,93.43,2,123.18,29.24,13,11.65,19.71,26.52,18.33,40.72-1.2,12.27-8.22,22.8-19.76,29.66a52.86,52.86,0,0,1-25.14,7.15c-7.19.25-25.22,3.94-37.24,32.83C1583.16,553.77,1529.2,573.36,1483.51,573.37Zm80.43-157.25a141.52,141.52,0,0,0-27.51,2.73,136.88,136.88,0,0,0-98.22,77.2,37.32,37.32,0,0,0,.31,32.36A34.11,34.11,0,0,0,1462,547.09c41.94,9.42,99.49-12.51,107-22.1,17.43-41.42,46.73-46.84,58.55-47.24a28.5,28.5,0,0,0,13.61-3.78c4.9-2.9,7.6-6.68,8.05-11.22.63-6.45-3.2-13.91-10.5-20.45C1620.16,425.35,1593,416.12,1563.94,416.12Z" transform="translate(-305.91 -162.53)"/><path class="cls-3" d="M657.78,539.88a89.92,89.92,0,0,1-19.52-2h0a43.18,43.18,0,0,1-29.33-23.24,44.94,44.94,0,0,1-.38-39,111.28,111.28,0,0,1,79.87-62.77c32.11-6.39,64.94,1.46,85.71,20.49,9.61,8.61,14.57,19.77,13.52,30.53-.93,9.49-6.3,17.61-15.13,22.86a39.35,39.35,0,0,1-18.7,5.33c-4,.14-14.15,2.31-21.28,19.44C726.64,525.72,690.19,539.88,657.78,539.88ZM643.56,514.3c25.71,5.77,60.83-7.32,67.11-13.12,12.57-29.1,33.73-33,42.33-33.25a15,15,0,0,0,7.17-2c3.17-1.88,3.36-3.79,3.42-4.42.22-2.3-1.15-6.2-5.69-10.27-15.3-14-40.09-19.62-64.76-14.69a87.36,87.36,0,0,0-62.68,49.27,20.9,20.9,0,0,0,.16,18.12,18.84,18.84,0,0,0,12.94,10.32Zm67.49-13.5Z" transform="translate(-305.91 -162.53)"/><path class="cls-8" d="M867.52,614.67c-5.15-106.91,111-113.48,175.69-47.69a40.44,40.44,0,0,1-12.16,65.55c-36.57,16.58-87.51,23.33-124.71,21.44A41.24,41.24,0,0,1,867.52,614.67Z" transform="translate(-305.91 -162.53)"/><path class="cls-3" d="M918.51,656.28c-4.28,0-8.38-.1-12.27-.3a43,43,0,0,1-40.73-41.22h0c-2-41.33,13.92-71.54,44.79-85.06,40.11-17.56,96.61-2.48,134.35,35.87a42.46,42.46,0,0,1-12.77,68.79C997.79,649.82,952.63,656.28,918.51,656.28Zm-49-41.71A39,39,0,0,0,906.44,652c34.41,1.75,86-4.15,123.78-21.27a38.43,38.43,0,0,0,11.56-62.3c-36.61-37.19-91.21-51.91-129.86-35-29.24,12.81-44.29,41.63-42.39,81.18Z" transform="translate(-305.91 -162.53)"/><g class="cls-6"><path class="cls-7" d="M869.39,585.87c31.13-49.82,112.75-42.48,163.2,8.78a40.33,40.33,0,0,1,11.81,28.25,40.44,40.44,0,0,0-1.18-55.93C984.86,507.69,884.82,507.19,869.39,585.87Z" transform="translate(-305.91 -162.53)"/></g><path class="cls-3" d="M918.71,666.36c-4.59,0-8.94-.11-13-.32a53.06,53.06,0,0,1-50.28-50.79h0c-3-61.8,30.56-85.91,50.81-94.77,43.81-19.18,105-3.18,145.57,38a52.53,52.53,0,0,1-15.79,85C998.55,660.54,952.13,666.36,918.71,666.36Zm-39.12-52.28c.72,14.86,12.74,27.07,27.36,27.82,33.2,1.67,82.89-4,119.1-20.38a28.35,28.35,0,0,0,8.55-46.06c-33.79-34.33-83.68-48.16-118.64-32.84-25.51,11.17-38.08,35.88-36.37,71.47Z" transform="translate(-305.91 -162.53)"/><path class="cls-8" d="M1222,268.07c-2.62-107.3,138.84-117.85,215.37-53.91,23.65,19.76,15,53.58-17,66.31-45.06,17.91-107.26,26.43-152.45,25.79C1242.3,305.9,1222.5,289.2,1222,268.07Z" transform="translate(-305.91 -162.53)"/><path class="cls-3" d="M1272.45,308.3c-1.56,0-3.09,0-4.6,0-26.75-.38-47.33-17.64-47.88-40.15-.93-38.12,16.49-67.76,49.06-83.48,49.2-23.74,122.12-11.71,169.61,28,10.79,9,15.79,21.57,13.73,34.45-2.45,15.27-14.15,28.46-31.3,35.28C1375.61,300.42,1314.67,308.3,1272.45,308.3Zm54.1-131.81c-20,0-39.28,3.82-55.77,11.78-22,10.6-47.93,33-46.78,79.75h0c.5,20.3,19.37,35.88,43.91,36.22,41.9.61,105-7.1,151.67-25.65,15.82-6.29,26.59-18.31,28.81-32.16,1.83-11.45-2.66-22.65-12.33-30.73C1405.67,190.31,1364.66,176.49,1326.55,176.49Z" transform="translate(-305.91 -162.53)"/><g class="cls-6"><path class="cls-7" d="M1226.21,235.53c42.32-45.05,136.14-39,193.45,8.93,9.71,8.1,14,18.57,13.43,29,21.1-15.5,24.38-42.45,4.24-59.27C1369.42,157.4,1250.27,159.33,1226.21,235.53Z" transform="translate(-305.91 -162.53)"/></g><path class="cls-3" d="M1272.4,318.38c-1.6,0-3.15,0-4.69,0-32.27-.45-57.12-21.94-57.81-50h0c-1-42.3,18.41-75.25,54.75-92.79,52.53-25.36,130.11-12.75,180.45,29.31,13.58,11.34,19.85,27.3,17.21,43.78-3,18.8-17,34.89-37.52,43C1378.09,310.27,1315.62,318.38,1272.4,318.38ZM1326,186.76c-18.45,0-36,3.42-50.88,10.58-19.3,9.32-42.1,29.1-41.09,70.43h0c.35,14.54,15.28,26.14,34,26.4,41,.53,102.47-6.9,147.81-24.94,12.49-5,20.93-14.08,22.58-24.4,1.28-8-1.86-15.57-8.84-21.4C1401.3,199.78,1362.05,186.76,1326,186.76Z" transform="translate(-305.91 -162.53)"/><path class="cls-8" d="M495.3,632c27.14,11,49.14,23.47,63.18,38.35,20.62,21.87,16.16,57.25-8.29,74.73-35.68,25.51-71.42,34.85-107.3,9.84A85.66,85.66,0,0,1,407,675c2.71-23.1,14.11-40.56,39.73-47C462.81,623.94,479.88,625.72,495.3,632Z" transform="translate(-305.91 -162.53)"/><path class="cls-3" d="M486.59,771.46c-15.68,0-30.57-5-44.85-14.94A88.22,88.22,0,0,1,405,674.8c3.08-26.21,17-42.61,41.24-48.74,15.83-4,33.55-2.57,49.87,4h0c29.63,12,50.53,24.67,63.88,38.83a50.58,50.58,0,0,1,13.4,39.66,53.15,53.15,0,0,1-22,38.09C528.23,763.21,506.76,771.46,486.59,771.46ZM464.46,627.87a70.45,70.45,0,0,0-17.29,2.1c-22.81,5.75-35.31,20.58-38.22,45.31A84.17,84.17,0,0,0,444,753.22c31.51,22,64.87,18.84,105-9.83a49.08,49.08,0,0,0,20.31-35.2A45.93,45.93,0,0,0,557,671.69c-12.94-13.73-33.38-26.12-62.46-37.87A80.69,80.69,0,0,0,464.46,627.87Z" transform="translate(-305.91 -162.53)"/><g class="cls-6"><path class="cls-7" d="M408.16,667.85c6.12-6.18,14.33-10.77,25-13.47,16.12-4.08,33.17-2.26,48.62,4,27.13,10.95,49.11,23.45,63.15,38.34A48.52,48.52,0,0,1,557.24,739c18.06-18.7,19.7-49.1,1.25-68.68-14-14.88-36.06-27.37-63.19-38.33-15.41-6.23-32.49-8-48.62-4C423.81,633.79,412.28,648.36,408.16,667.85Z" transform="translate(-305.91 -162.53)"/></g><path class="cls-8" d="M1154.63,382.1c16.68,6.73,30.2,14.41,38.83,23.56,12.67,13.44,9.93,35.18-5.09,45.92-21.93,15.68-43.9,21.42-65.95,6.05a52.66,52.66,0,0,1-22.08-49.06c1.67-14.19,8.67-24.92,24.42-28.9A48.38,48.38,0,0,1,1154.63,382.1Z" transform="translate(-305.91 -162.53)"/><path class="cls-3" d="M1149.28,468.62c-9.78,0-19.08-3.12-28-9.34a55,55,0,0,1-22.94-50.94c1.94-16.47,10.67-26.77,25.94-30.62a50.78,50.78,0,0,1,31.12,2.51h0c18.32,7.4,31.25,15.27,39.53,24a31.87,31.87,0,0,1,8.44,25,33.39,33.39,0,0,1-13.82,24C1175.17,463.49,1161.83,468.62,1149.28,468.62Zm-13.6-88.26a42.56,42.56,0,0,0-10.43,1.27c-13.67,3.45-21.16,12.34-22.91,27.18A50.93,50.93,0,0,0,1123.58,456c19.05,13.29,39.27,11.37,63.61-6a29.34,29.34,0,0,0,12.16-21.07,27.41,27.41,0,0,0-7.36-21.82c-7.87-8.36-20.34-15.91-38.11-23.09h0A48.81,48.81,0,0,0,1135.68,380.36Z" transform="translate(-305.91 -162.53)"/><g class="cls-6"><path class="cls-7" d="M1100.44,420.88c3.73-7.64,10.32-13.2,20.76-15.86a48.37,48.37,0,0,1,29.91,2.45c16.63,6.73,30.15,14.39,38.8,23.56a29.38,29.38,0,0,1,6.77,11.7c7.15-11.36,6.55-26.68-3.24-37.05-8.61-9.17-22.13-16.84-38.81-23.6a48.51,48.51,0,0,0-29.87-2.41c-15.73,4-22.77,14.7-24.42,28.91A48.64,48.64,0,0,0,1100.44,420.88Z" transform="translate(-305.91 -162.53)"/></g><path class="cls-3" d="M486.59,781.74c-17.61,0-34.41-5.66-50.61-17a97.12,97.12,0,0,1-41-91.15c3.58-30.36,20.44-50.18,48.78-57.34,18.15-4.57,37.56-3,56.11,4.46h0c31,12.53,53.07,26,67.44,41.26a60.64,60.64,0,0,1,16.09,47.55,63.16,63.16,0,0,1-26.13,45.3C532.15,772.79,508.74,781.74,486.59,781.74ZM464.47,637.93a60.77,60.77,0,0,0-14.83,1.8c-18.54,4.68-28.29,16.35-30.69,36.72A74,74,0,0,0,449.8,745c27.91,19.46,56.71,16.46,93.36-9.75a39,39,0,0,0,16.14-28,36,36,0,0,0-9.62-28.62c-11.92-12.65-31.19-24.24-58.91-35.44A70.45,70.45,0,0,0,464.47,637.93Z" transform="translate(-305.91 -162.53)"/><path class="cls-3" d="M1149.2,478.7q-17.65,0-33.69-11.16a64.35,64.35,0,0,1-27.18-60.38c2.45-20.74,14-34.3,33.47-39.21a60,60,0,0,1,37.36,2.94h0c19.7,8,33.79,16.62,43.09,26.48a41.92,41.92,0,0,1,11.14,32.87,43.48,43.48,0,0,1-18,31.17C1179.28,472.94,1163.84,478.7,1149.2,478.7Zm-13.51-88.27a32.76,32.76,0,0,0-8,1c-9.53,2.41-14.13,8-15.38,18.6a40.73,40.73,0,0,0,17,37.72c15.49,10.8,31.05,9,52-6a19.31,19.31,0,0,0,8-13.85,17.53,17.53,0,0,0-4.67-13.94c-6.76-7.18-18.38-14.12-34.55-20.66h0A38.81,38.81,0,0,0,1135.69,390.43Z" transform="translate(-305.91 -162.53)"/><polygon class="cls-4" points="1027.93 384.14 994.76 354.47 936.24 351.75 883.26 334.57 931.38 373.93 975.41 374.03 1027.93 384.14"/></svg>