<svg id="Modo_de_aislamiento" data-name="Modo de aislamiento" xmlns="http://www.w3.org/2000/svg" viewBox="0 0 2242.55 2052.37"><defs><style>.cls-1{fill:#e3a13f;}.cls-2{opacity:0.3;}.cls-3{fill:#5e1e4e;}.cls-4{fill:#7dc562;}.cls-5{opacity:0.6;}.cls-6{fill:#fff;}.cls-7{fill:#bb2c3b;}.cls-8{opacity:0.45;}.cls-9{fill:#e8ac30;}.cls-10{fill:#ebcc47;}.cls-11{opacity:0.5;}.cls-12{fill:#f5e4a0;}.cls-13{opacity:0.39;}.cls-14{fill:#c7535f;}</style></defs><path class="cls-1" d="M2466.79,1191.26s211.13,275.35-332.64,635.7S832.27,2306.54,681.4,1918.48s-10-273.15,569.62-339.58,965.56-669.12,1058.79-603.41S2466.79,1191.26,2466.79,1191.26Z" transform="translate(-340.16 -130.63)"/><g class="cls-2"><path class="cls-3" d="M627.33,1691.48c5.88,42.67,24.27,99.68,54.07,176.36,150.87,388,909,268.82,1452.75-91.53,284.3-188.4,362.22-353.53,371.87-468.25.15,1.7.28,3.41.4,5.14a279.52,279.52,0,0,0-6-41.8c-23.14,111.79-112.47,261.43-366.23,429.59-202.42,134.14-433,234.74-652.47,288.33-66.32,15.72-235.8,49.62-282.35,1.66-58.41-60.19,41.4-132,132.77-74.35,185,116.73,296.73-15,338.1-63.72s92-72.58,212.42-86.74,177-85,240.74-185.87,176.13,4.43,248.71-126.57,10.62-149.57,119.48-172.59l-11.5-51.79s-94.57,13.81-100.84,56.25,24.72,154.86-73.52,190.26-190.14-18.41-241.55,61.16-99.21,172.48-273.57,188.87-176.13,230.57-424,135.87-226,122.68-323.23,108.69-48.5-96.3-123.73-82.14c-44.2,8.32-81.27,40-104.36,64.72-60.78-38.44-107-91.39-133.89-160.52-19.68-50.64-34.35-92.65-43.77-127.68-6.16,9.67-10,21.14-11.53,34.73C626.42,1696.78,626.82,1694.08,627.33,1691.48Z" transform="translate(-340.16 -130.63)"/></g><path class="cls-3" d="M1150,2183c-87.67,0-167.12-10.95-236.33-32.93-127-40.32-212.67-115.33-254.5-222.93-53.51-137.65-76-222.37-41.32-275.8,37.51-57.86,128.44-62.38,293.5-70.6,89.64-4.46,201.2-10,337-25.58,360.5-41.31,643.82-293.79,831.3-460.85C2205,982.58,2274,921,2323.58,956c92,64.86,154.89,202.44,164.12,223.46,10.59,15.21,58.3,91.69,38.65,209.2-25.85,154.56-153.36,308.74-379,458.27-196.29,130.08-426.45,232.51-648.06,288.41C1373.3,2167.07,1255.66,2183,1150,2183ZM2292.84,994.44c-5.5,0-19.15,3.14-49,24.11-34.78,24.42-80,64.75-132.43,111.44-192,171.08-482.11,429.62-857.66,472.65-137.31,15.74-249.73,21.34-340.06,25.83-139.44,7-231.56,11.53-255.76,48.87-23.15,35.71,1.55,118.76,45.76,232.49,36.33,93.45,111.83,159,224.41,194.69C1219.55,2197,1721.22,2071.94,2121,1807c210.28-139.35,334.07-286.21,358-424.7,18.75-108.54-29.13-173.9-31.18-176.63a24.7,24.7,0,0,1-2.95-5.1c-.84-2-62.45-144.77-148.76-205.59A6.24,6.24,0,0,0,2292.84,994.44Z" transform="translate(-340.16 -130.63)"/><path class="cls-4" d="M581.55,1674.12s-138.08-21.24-150.47,72.58,139.85,56.64,138.08,129.22-3.54,168.16,152.23,102.67,198.26-148.49,247.82-64.51,129.22,69.82,166.4-9.84,110.24-94.62,253.38-12.79,163.93-207.15,359.09-174,203.57-61.07,308-172.59S2380,1555.52,2373,1394.43s9.74-100.45,106.65-170.82,95.59-235-94.26-220.38S1723.3,1698.9,581.55,1674.12Z" transform="translate(-340.16 -130.63)"/><g class="cls-5"><path class="cls-6" d="M2486.91,1156.57c-94.17,73.28-123.6,81.21-111,137.72,10-35.08,39-23.73,103.7-70.68,47.84-34.73,71.68-92.41,60.78-140.19C2528.82,1106,2507.85,1140.27,2486.91,1156.57Z" transform="translate(-340.16 -130.63)"/><path class="cls-6" d="M2372.56,1385.15c-33.66,112.77-233.61,11.1-334.06,126.07C1926.83,1639,1917.84,1747.08,1709.18,1709c-151-27.54-204.39,138.3-280.37,196.5,109.26,12.72,143.78-217.9,319.27-188,195.16,33.19,203.57-61.07,308-172.59S2380,1555.52,2373,1394.43C2372.81,1391.24,2372.68,1388.17,2372.56,1385.15Z" transform="translate(-340.16 -130.63)"/></g><g class="cls-2"><path class="cls-3" d="M1903.86,1537.82c85-86.74,272.6-127.45,439-279.69,101.22-92.6,94.36-192,73.45-255.63a285.44,285.44,0,0,0-31,.73c-189.85,14.6-662,695.67-1803.79,670.89,0,0-138.08-21.24-150.47,72.58s139.85,56.64,138.08,129.22-3.55,168.16,152.23,102.67,198.26-148.5,247.82-64.51,129.22,69.82,166.4-9.84,110.24-94.62,253.38-12.79,163.93-207.15,359.09-174c43.11,7.33,77.09,8.42,105,4.51C1846.49,1679,1844.42,1598.49,1903.86,1537.82Z" transform="translate(-340.16 -130.63)"/></g><path class="cls-3" d="M635.51,2020.66c-19.42,0-35.63-4.52-48.84-13.52-40.31-27.5-38.9-85.28-37.77-131.71.39-15.72-12.37-22.37-50.91-34.35-38.18-11.87-95.87-29.81-87-97,3.6-27.23,16.11-49.06,37.2-64.87,47.4-35.55,123.29-26.87,135-25.28,819.41,17.4,1283.37-326.3,1560.65-531.71,109.47-81.1,181.8-134.68,239.94-139.15,124.81-9.56,162,53.79,172.15,81.48,21.65,58.87-5.45,132.67-64.43,175.5-30.16,21.89-53,31.86-69.75,39.14-19.27,8.4-22.92,10.54-25.74,18.63-5.21,15-4.94,47.73-2.83,95.77,1.51,34.47-6.11,60.34-23.31,79.09-29.71,32.4-80.18,34.54-133.62,36.81-61,2.59-124.15,5.27-165.38,49.3-22.84,24.39-40.66,47.55-57.89,69.94-58.7,76.28-105.06,136.54-268.3,108.77-87.38-14.86-135.47,43.8-182,100.52-46.1,56.2-98.35,119.88-183.77,71-76.81-43.92-135-60.06-173-48-21.93,7-38.91,23.9-51.93,51.78-21.94,47-59.07,76.26-99.32,78.21-39.83,2-76.38-21.74-102.87-66.63-8.81-14.92-16.76-23.1-24.31-25-14.26-3.57-40.09,12-72.79,31.85-32.06,19.4-72,43.55-125.43,66C692.12,2012.87,661,2020.66,635.51,2020.66Zm-85.35-328.35c-24.79,0-57.18,3.87-77.72,19.32-12.17,9.16-19.13,21.49-21.27,37.72-4,30.35,13.9,39.06,58.85,53,34,10.58,80.58,25.06,79.39,74-.9,36.62-2,82.19,20.09,97.25,17.79,12.14,53.77,7.38,104-13.75,50.73-21.33,89.22-44.63,120.15-63.35,42.39-25.65,73-44.17,103.66-36.47,18.85,4.75,34.52,18.63,49.31,43.69,18.48,31.31,41.9,47.78,66,46.76,25-1.21,49.1-21.72,64.57-54.86,17.82-38.19,43.52-62.84,76.38-73.27,49.92-15.88,117.12,1,205.41,51.45,53.22,30.42,82-.19,132.33-61.57,48.81-59.51,109.55-133.58,220.11-114.77,139.22,23.69,171.24-18,229.39-93.54,17-22.08,36.25-47.11,60.44-72.93,52.54-56.1,127.28-59.28,193.23-62.08,44.81-1.9,87.12-3.7,105.49-23.71,9.55-10.42,13.7-26.76,12.68-49.94-5-113.49.94-130.68,52.87-153.31,15.83-6.9,35.54-15.49,62.12-34.79,43.9-31.87,65.48-87.2,50.22-128.72-15-40.86-61.55-60.46-131-55.07-46.51,3.57-122.6,59.94-218.93,131.3-136.94,101.45-324.48,240.39-582.88,352.32-305,132.14-642.87,195.18-1004,187.32a22.59,22.59,0,0,1-2.61-.22h0A200,200,0,0,0,550.16,1692.31Z" transform="translate(-340.16 -130.63)"/><path class="cls-7" d="M2059.94,668.65a165,165,0,0,0-63.15,45.27c-105.72,72.79-336,219.34-628.17,334.8-291.14,118-558.95,170.85-685.69,191.11A165.1,165.1,0,0,0,606,1250.64c-112.3,44.95-152.67,208-90.17,364.12s186.64,216.92,316.51,201.33c289-39.51,547.28-122.72,758.53-212.18,214.63-81,459-199,695.43-369.81,104.76-78.33,152.68-208,90.17-364.12S2172.25,623.7,2059.94,668.65Z" transform="translate(-340.16 -130.63)"/><g class="cls-8"><path class="cls-3" d="M2404.35,1065.18,2426.06,982s-634.51,56.46-711.61,520.72c-150.42,62.63-323.87,121.55-514.61,163.92l-63.62-74.49s-113-10.07-164.8-77.78-138.65-89.3-183.21,15.93c-18.86,44.55-43.15,69.89-64.91,84.36-25.79-29.12-48-65.22-65.45-108.75-38.32-95.74-37.91-194-6-266.12A161.15,161.15,0,0,0,606,1250.64c-112.3,44.95-152.67,208-90.17,364.12s186.64,216.92,316.51,201.33c289-39.51,547.28-122.72,758.53-212.18,214.63-81,459-199,695.43-369.81a318.86,318.86,0,0,0,47.65-43.69c-117.55,77.62-235.78,142.81-350.2,197.56-24.51,11.72-48.32-17.1-32.32-39C2032.56,1237.65,2193.8,1062.77,2404.35,1065.18Zm-1574.25,625c-18.63-7.32-23.15-31.58-8-44.68,23-19.89,44.84-40.63,55.07-55.46,15.59-22.6,38.51,30.72,107.13,67.62,22.48,12.08,16.56,45.94-8.72,49.4l-1.21.17C924.36,1713.23,875.21,1707.91,830.1,1690.18Z" transform="translate(-340.16 -130.63)"/></g><path class="cls-3" d="M793.39,1838.7c-132.33,0-241.22-78.6-296.38-216.41-31.8-79.43-39.37-163.29-21.33-236.16,18.65-75.27,62.24-130.07,122.77-154.3a184.88,184.88,0,0,1,83.72-12.4c132.06-21.24,393.64-73.87,678.84-189.49,286.34-113.15,512-255.55,622.26-331.31a184.45,184.45,0,0,1,69.14-48.79h0c122.48-49,276.29,46.34,342.84,212.61,60.86,152,24.65,297-96.85,387.88-208,150.31-443.49,275.53-700,372.4-252.51,106.9-509.32,178.71-763.31,213.44A350.73,350.73,0,0,1,793.39,1838.7ZM666.74,1259.35a142.33,142.33,0,0,0-53.23,10.1c-48.1,19.25-83.08,64.15-98.5,126.42-16,64.69-9.05,139.75,19.61,211.36,54.42,136,162,204.73,295.29,188.75,250.24-34.22,503.71-105.13,753-210.72l.75-.3c253.34-95.62,485.73-219.19,690.72-367.28,107.21-80.16,137.64-204.23,83.23-340.17-58.25-145.53-188.43-230.79-290.18-190l-7.53-18.81,7.53,18.81a144.6,144.6,0,0,0-55.42,39.79,20.7,20.7,0,0,1-3.77,3.35c-110.91,76.37-340.54,221.69-632.22,337-290.51,117.77-557,171-689.93,192.28a21.26,21.26,0,0,1-5,.17Q673.85,1259.35,666.74,1259.35Z" transform="translate(-340.16 -130.63)"/><path class="cls-9" d="M553.22,1421s-136.3,54.87-169.93,148.69,152.23-58.42,331-42.48,60.18-155.78,309.78-8.85,272.6,391.2,442.54,395.63,159.31-139,223-61.07,184.54,63.72,118.16-77-24.34-450.5,276.58-622.21,462-134.53,476.18-159.31-53.11-152.24-267.3-155.78S1541,1382,553.22,1421Z" transform="translate(-340.16 -130.63)"/><g class="cls-2"><path class="cls-3" d="M1813.92,1789.8c-26.22,28-85.67,14.65-124.25-32.51-63.73-77.89-48.88,80.57-218.82,76.14-96.28-2.5-139-82.54-208.87-177.71,23.52-13.2,62-56,101.09-98.87,67.71-74.35,241.63,131.43,425.16-2.59l7.72-35.93s-31.94,86.16-199.23,30.7-229.78-92.68-283.33-30.7c-33.11,38.32-72.25,63.08-97.31,76.41-47.38-59.72-106.35-121.59-192-172-35.12-20.67-62.95-35-85.34-44.5q-55.44,10.21-113.27,18.37c-18.54,20.24-43.64,41-111.17,35-105.24-9.38-212.91,39.5-276.85,62.18-23.21,21.2-43.68,46.66-54.17,75.92-33.63,93.82,152.23-58.42,331-42.48s60.18-155.78,309.78-8.85,272.6,391.2,442.54,395.63,159.31-139,223-61.07C1751.23,1928.14,1866,1917.46,1813.92,1789.8Z" transform="translate(-340.16 -130.63)"/></g><path class="cls-10" d="M716.77,1527.38c108.47,8.73,105.23-52.84,146-66.33C785.62,1443.76,806.19,1518.53,716.77,1527.38Z" transform="translate(-340.16 -130.63)"/><path class="cls-10" d="M381.25,1595.4c17.22,26.63,148.24-61.05,286.8-68.82C554.7,1519.69,439.92,1577.7,381.25,1595.4Z" transform="translate(-340.16 -130.63)"/><g class="cls-11"><path class="cls-6" d="M1780.69,1529.33c-12.93,1.91,13-.6,0,0-57.83,89.25-51.3,187.71-23.53,246.57,34.26,72.64,18.61,111.48-13.28,121.42,52.91,13.22,97.61-23.32,51.33-121.42C1767.09,1716.28,1758.44,1626.29,1780.69,1529.33Z" transform="translate(-340.16 -130.63)"/></g><g class="cls-2"><path class="cls-3" d="M1851.64,1364.34,1812.44,1465s20.54-95.33,0-149.76-13.09-106.74,55.13-77.44,75.3,23.62,75.3,23.62S1882.83,1322.11,1851.64,1364.34Z" transform="translate(-340.16 -130.63)"/></g><path class="cls-3" d="M1474.16,1934.33c-2.65,0-5.33,0-8.06-.11-98.23-2.55-151.9-76.46-214-162-57.14-78.69-121.9-167.88-238.26-236.38-63.29-37.25-106.34-55.91-131.63-57-16.34-.63-22.5,5.44-36,20.73-20.69,23.38-49,55.36-133.63,47.86-85.37-7.62-173.29,25.52-237.48,49.71-56.57,21.31-87.74,33.05-106.73,14.36-15.9-15.64-7-40.45-4.08-48.6,36.28-101.21,175.53-158.26,181.44-160.65a20.61,20.61,0,0,1,6.77-1.45c658-25.94,1110.5-276.48,1410-442.27,148.24-82.07,255.37-141.33,331.24-140.12,151.94,2.51,242.07,66.64,275.76,125.82,8.06,14.15,19.91,40.8,8.79,60.26-9.2,16.1-27.83,18.29-64.95,22.66-67.91,8-209.21,24.62-418.78,144.2-278.75,159-335.58,453.35-268.3,596,44.65,94.65,8.13,131-9.64,142.19-39.46,24.94-102.07,5.73-142.52-43.72-12.29-15-17.52-15.78-17.57-15.79-3.47.28-13.79,10.28-20.62,16.9C1609.56,1892.26,1566.15,1934.33,1474.16,1934.33Zm-594.94-496c31.53,0,77.65,16.93,155.14,62.55,123.63,72.77,194,169.65,250.49,247.49,60.41,83.2,104.06,143.31,182.31,145.35,80.49,1.94,115.15-31.47,140.44-56,15.63-15.15,30.4-29.4,51.16-28.26,20.06,1.17,35.43,17,46.59,30.59,29.14,35.61,70.57,47.09,89.53,35.12,17.77-11.22,15.71-46-5.38-90.65-38.58-81.79-38.69-202.37-.29-314.69,33.15-96.94,109.52-233.55,285.17-333.76,216.72-123.67,363.55-140.94,434.12-149.25,12.21-1.43,25.7-3,33.12-4.71-1.53-6.91-6.88-20.77-22.18-38.51-21.33-24.71-86.08-82.45-226.48-84.77-65.17-1.27-168.2,56-311,135.06C1679.76,1161.26,1223.32,1414,557.73,1441.08c-19.67,8.58-127.88,58.76-155.37,135.43-.36,1-.67,1.91-.94,2.75,13.91-3,38.6-12.29,59.32-20.1,67.86-25.56,160.82-60.53,255.37-52.15,64.2,5.75,81.45-13.74,99.7-34.35C833.31,1452.9,850,1438.34,879.22,1438.34Zm1662.9-451.78Z" transform="translate(-340.16 -130.63)"/><path class="cls-10" d="M1624,1682.31s-61.77,114.9-153.1,100.9c-69.28-10.63,46.5,2.88,76.55-81C1582.13,1605.3,1641.83,1655.75,1624,1682.31Z" transform="translate(-340.16 -130.63)"/><path class="cls-4" d="M638.19,1213s-244.28,13.28-273.49,148.7S463,1470.55,561.19,1465.24s-92.93,183.21,77,199.14,204.46-239,308-116.83,265.52,108.87,345.18-2.65,146-39.83,302.7,10.62,262.87-82.31,212.42-244.28,220.38,47.79,297.39-119.49-87.63-196.49,108.86-236.32,281.46-53.09,249.59-160.64-106.21-187.19-355.8-81S1631.25,1284.68,638.19,1213Z" transform="translate(-340.16 -130.63)"/><g class="cls-2"><path class="cls-3" d="M2347.57,683.66c-1.62-5.47-3.39-10.86-5.25-16.17-53.11-10.67-128.11.5-235.78,46.32C1857,820,1631.25,1284.68,638.19,1213c0,0-241.45,13.15-272.93,146.4,26.79-1,55-3.87,81.16-5.28,57.54-3.11,15.81,60.27,5.49,116.53,34.39,1.19,73.73-3.48,109.28-5.4,46.62-2.52,28.07,38.62,13.86,84.24,126.77-32,164.26-221.71,256.38-113.06,103.55,122.14,265.52,108.87,345.18-2.65s146-39.83,302.7,10.62,262.86-82.31,212.41-244.28,220.39,47.79,297.39-119.49S1901.49,884.13,2098,844.3,2379.43,791.21,2347.57,683.66Z" transform="translate(-340.16 -130.63)"/></g><g class="cls-11"><path class="cls-6" d="M438,1453.34c-11.77.64-23.95,1.56-36.22,2.5,18.28,5,40.14,6.16,63.31,5.57" transform="translate(-340.16 -130.63)"/><path class="cls-6" d="M1211.8,1537.76c-30.83,43.16-73.32,72.36-120.16,85.83,72.85,7.18,145-24.4,190.45-88,22.25-31.15,43.47-48,65.91-55C1296.06,1467.35,1255.83,1476.12,1211.8,1537.76Z" transform="translate(-340.16 -130.63)"/><path class="cls-6" d="M2457.39,803.31c-14.74,60.76-105.36,76.58-269.22,109.79-208.22,42.21-33.77,73.16-115.36,250.43s-344.2-21.34-315.14,126.62c26.55,135.2-15.63,244.8-119,266.51,125.95,7.75,203-112.13,158.56-254.72-50.45-162,220.38,47.8,297.38-119.48S2007,986,2203.46,946.14C2388.51,908.63,2474.61,894.65,2457.39,803.31Z" transform="translate(-340.16 -130.63)"/></g><path class="cls-3" d="M653.23,1685.36q-8.26,0-16.93-.8c-39.45-3.7-65.68-16.23-80.2-38.3-22.65-34.43-7.82-80.12,4.09-116.83,4.69-14.44,11.63-35.83,10.53-43.54a30.26,30.26,0,0,0-8.44-.42c-10.83.59-21.87,1.42-33.55,2.31-65.67,5-133.59,10.13-168.43-29.84-20-22.94-25-55.82-15.4-100.53,32.1-148.81,281.59-164.07,292.19-164.65a21.84,21.84,0,0,1,2.56,0C1379.35,1246.15,1681,1005,1901.23,828.94c71.44-57.11,133.13-106.43,197.38-133.78,127.54-54.27,221.32-65.69,286.7-34.89,46.23,21.78,76.88,62.7,96.46,128.77,11.07,37.35,9.56,66.94-4.59,90.46-29.57,49.15-109.27,65.25-241.31,91.93l-19.1,3.86c-49.44,10-77.57,20-83.6,29.57-2.9,4.62-.58,14.56,3.45,30.4,8.74,34.31,21.94,86.17-14.33,165-46.43,100.84-154.65,83.46-226.28,72-26.62-4.27-66.85-10.75-73.73-2.8-.23.26-5.49,6.78,3.56,35.83,28.29,90.81,12.29,177.58-42.8,232.14-48.56,48.11-119.7,61.75-195.17,37.45-37.7-12.14-70.06-25.39-98.61-37.09-91.84-37.63-129.84-53.2-181.39,19-42.1,58.94-106.68,94.42-177.2,97.34-75.26,3.12-146.23-30-199.92-93.35-14.49-17.1-27.34-25.87-38.19-26.09h-.41c-18.58,0-41.22,24.66-65.18,50.76C787.82,1628,735.12,1685.36,653.23,1685.36ZM565,1444.88c17.19,0,30,5.28,38,15.74,15.58,20.26,6.4,48.55-4.23,81.31-9.72,30-20.73,63.89-8.78,82.06,7.22,11,24.09,17.78,50.13,20.23,71.63,6.69,117-42.7,157-86.29,30.5-33.23,59.23-64.79,96.24-63.87,23.3.46,45.64,13.68,68.29,40.39,45.44,53.59,104.88,81.7,167.34,79.08,57.94-2.41,111.12-31.71,145.91-80.4,70.19-98.28,137.11-70.85,229.72-32.92,27.87,11.42,59.46,24.37,95.67,36,61.46,19.78,116.25,10,154.24-27.67,43.47-43.06,56-116.36,32.63-191.31-6.81-21.86-13.75-53.36,4.5-74.42,21.65-25,62.95-18.35,110.78-10.67,84.69,13.6,151.95,18.65,183-48.89,30.26-65.76,20.06-105.83,11.87-138-5.55-21.79-10.79-42.37,1.5-61.94,13.36-21.27,43.13-34.2,109.87-47.73l19.12-3.86c117-23.64,194.24-39.25,214.62-73.11,5.08-8.44,10.65-23.64.45-58.06-16.06-54.2-39.85-87.13-74.87-103.62-53.58-25.24-138.89-13.29-253.58,35.52-59.14,25.16-118.83,72.88-187.94,128.14-107.88,86.24-242.14,193.58-443.58,272-235.51,91.66-511.88,124.6-844.83,100.73-17.86,1.24-229,18.43-253.62,132.66-6.66,30.9-4.53,52.89,6.33,65.35,21.5,24.67,81.71,20.1,134.83,16.07,11.39-.87,23.17-1.76,34.44-2.37C561.75,1444.92,563.37,1444.88,565,1444.88Z" transform="translate(-340.16 -130.63)"/><path class="cls-1" d="M1525,1305.93C1852.64,1169,2113.81,959.38,2247,700.3,2099,380.37,1777.62,157,1403.39,151c-519.92-8.37-952.47,409.31-961.54,929.21A948.61,948.61,0,0,0,473,1339C767.65,1488.11,1146.39,1464.15,1525,1305.93Z" transform="translate(-340.16 -130.63)"/><g class="cls-11"><path class="cls-6" d="M2217.8,642.53C2059.34,353.78,1754.65,156.67,1403.39,151q-9.12-.15-18.2-.12h-.7q-3.66,0-7.27.1C1009.9,155.18,689.6,371.76,536.87,684.55c157.51-243.62,416.19-415.87,714.35-457.48,7.76,33.92,64.45,60.25,133.27,60.25,70.06,0,127.55-27.29,133.64-62.09C1806.16,261.17,2056.74,417.57,2217.8,642.53Z" transform="translate(-340.16 -130.63)"/></g><g class="cls-2"><path class="cls-3" d="M1763.41,1067.56c-281.65,117.69-563.35,161.1-810.47,114.23-159.1-30.18-274.2-169.29-272.84-331.21,0-2.9.06-5.8.12-8.71a936.74,936.74,0,0,1,112-428.79h0C609,582.35,492.1,822.78,487.43,1090.36a952.81,952.81,0,0,0,10.94,161.9A173.34,173.34,0,0,0,609.21,1388.6a918.84,918.84,0,0,0,98.33,30.11c248.81,49,533.16,6,817.5-112.78,265.64-111,487.58-269.84,633-464.08C2043.52,930.28,1910.16,1006.24,1763.41,1067.56Z" transform="translate(-340.16 -130.63)"/></g><path class="cls-12" d="M923.66,512.58c-9.8,30.83-26.74,53.37-37.52,49.94s-11.58-31.61-1.78-62.43,26.73-53.37,37.51-49.94c10.1,3.21,11.56,28.21,3.34,57.27Z" transform="translate(-340.16 -130.63)"/><path class="cls-12" d="M1083.64,532.43c-5.54,31.87-19.26,56.5-30.4,54.56s-15.76-29.75-10.23-61.61,19.25-56.5,30.4-54.56c10.44,1.81,15.27,26.38,11.06,56.29Z" transform="translate(-340.16 -130.63)"/><path class="cls-12" d="M1290.17,526c4.5,32-1,59.67-12.22,61.25s-24.12-23.49-28.62-55.51,1-59.68,12.21-61.26c10.5-1.47,22.63,20.43,27.79,50.2Z" transform="translate(-340.16 -130.63)"/><path class="cls-12" d="M1462.87,459.8c17.11,27.45,23.3,55,13.7,60.94s-31.58-11.67-48.69-39.12-23.3-54.95-13.7-60.94c9-5.61,29,9.49,45.77,34.6Z" transform="translate(-340.16 -130.63)"/><path class="cls-12" d="M1595.34,350c22.92,22.82,35.22,48.19,27.24,56.21s-33.41-4.16-56.33-27S1531,331,1539,323c7.48-7.51,30.37,2.63,52.45,23.25Z" transform="translate(-340.16 -130.63)"/><g class="cls-2"><circle class="cls-3" cx="604.79" cy="885.51" r="19.47"/></g><g class="cls-2"><circle class="cls-3" cx="918.84" cy="700.53" r="19.47"/></g><g class="cls-13"><g class="cls-2"><circle class="cls-3" cx="983.19" cy="903.17" r="19.47"/></g></g><g class="cls-13"><g class="cls-2"><circle class="cls-3" cx="1171.1" cy="664.82" r="19.47"/></g></g><g class="cls-2"><circle class="cls-3" cx="1372.11" cy="824.19" r="19.47"/></g><g class="cls-2"><circle class="cls-3" cx="1398.16" cy="529.55" r="19.47"/></g><g class="cls-2"><circle class="cls-3" cx="1538.12" cy="362.7" r="19.47"/></g><g class="cls-13"><g class="cls-2"><circle class="cls-3" cx="608.7" cy="683.28" r="19.47"/></g></g><g class="cls-2"><circle class="cls-3" cx="1729.12" cy="546.09" r="19.47"/></g><g class="cls-13"><g class="cls-2"><circle class="cls-3" cx="1602.84" cy="758.73" r="19.47"/></g></g><path class="cls-3" d="M918,1459c-130.27,0-251.92-20.75-362.78-62A191.85,191.85,0,0,1,433,1246.61a974.49,974.49,0,0,1-11.39-166.73C426.07,823.06,531,582.65,717,403s429.84-276.46,686.75-272.19a965.82,965.82,0,0,1,812.2,467.87c37.4,62,35.71,141.41-4.3,202.25-142.39,216.58-377.11,397.68-678.77,523.73h0c-174.75,73-346.55,116.78-510.6,130.06Q969.3,1459,918,1459Zm469.9-1287.82c-503.17,0-917,404.87-925.84,909.44A935.3,935.3,0,0,0,473,1240.38,151.32,151.32,0,0,0,569.39,1359c264.77,98.49,601.39,73,947.84-71.78h0c294.19-122.92,522.59-298.79,660.54-508.59,31.49-47.9,32.85-110.34,3.46-159.07C2015.05,344,1724.15,176.44,1403.06,171.28,1398,171.2,1393,171.15,1387.94,171.15Z" transform="translate(-340.16 -130.63)"/><path class="cls-9" d="M1969.51,2056.32a115.93,115.93,0,0,1-228-42.28c11.68-63,46.44,5.55,111.08-18.19C1928.71,1967.89,1981.18,1993.37,1969.51,2056.32Z" transform="translate(-340.16 -130.63)"/><g class="cls-11"><path class="cls-6" d="M1897.21,1985.27c18,11.52,26.37,32.47,21,61.53a115.9,115.9,0,0,1-108.92,94.6,115.61,115.61,0,0,0,160.24-85.08C1978.72,2006.67,1947.93,1980.47,1897.21,1985.27Z" transform="translate(-340.16 -130.63)"/></g><g class="cls-2"><path class="cls-3" d="M1847.19,2080.08c-44.8-8.31-76.63-52.23-88.29-93.28-8.07,1.07-13.8,8-17.37,27.24a115.93,115.93,0,0,0,228,42.28c2.74-14.79,1.83-27.42-2-37.87C1942.72,2056.54,1894.66,2088.89,1847.19,2080.08Z" transform="translate(-340.16 -130.63)"/></g><path class="cls-3" d="M1855.81,2171.41a137.21,137.21,0,0,1-25.13-2.33,136.19,136.19,0,0,1-109.07-158.74c2.59-13.94,7.43-31,22.09-39.45,15.19-8.75,31.24-3,45.39,2.06,16.72,6,34,12.15,56.53,3.88,50.47-18.54,94.68-16.28,121.31,6.19,20.51,17.31,28.5,44.66,22.5,77a136.3,136.3,0,0,1-133.62,111.39Zm-91.67-164a59.13,59.13,0,0,0-2.69,10.36,95.67,95.67,0,0,0,188.14,34.9c2.28-12.32,2.61-29-8.8-38.65-14.73-12.44-45.85-12.09-81.2.88-36.32,13.34-65.1,3.05-84.13-3.76C1771.85,2009.81,1767.27,2008.18,1764.14,2007.37Z" transform="translate(-340.16 -130.63)"/><path class="cls-14" d="M2120.28,1257.82c8.18,3.76,17.74,2.81,25.5-1.75,32-18.83,134.44-81.06,151.68-117.77C2316.67,1097.39,2062.4,1231.24,2120.28,1257.82Z" transform="translate(-340.16 -130.63)"/></svg>