<svg id="Modo_de_aislamiento" data-name="Modo de aislamiento" xmlns="http://www.w3.org/2000/svg" viewBox="0 0 2534.75 1945.86"><defs><style>.cls-1{fill:#f5e8cf;}.cls-2{fill:#570000;}.cls-3{opacity:0.6;}.cls-4{fill:#fff;}.cls-5{opacity:0.3;}.cls-6{fill:#e9a735;}.cls-7{fill:#e4b74f;}.cls-8{fill:#9c6f48;}.cls-9{opacity:0.25;}.cls-10{fill:#b19378;}.cls-11{fill:#fdfffd;}.cls-12{fill:#ecc39b;}.cls-13{fill:#692d39;}</style></defs><path class="cls-1" d="M2544.36,1729.3c0,242.06-494,438.27-1103.34,438.27S337.68,1971.36,337.68,1729.3c0-97,79.38-186.68,213.71-259.23a1007.67,1007.67,0,0,1,100.28-46.94C852,1341.62,1131.67,1291,1441,1291a2688.74,2688.74,0,0,1,308.49,17.41c357.71,41.25,640.41,152.58,747.9,294C2528,1642.62,2544.36,1685.2,2544.36,1729.3Z" transform="translate(-317.66 -241.7)"/><path class="cls-2" d="M1441,2170.07c-295,0-572.42-45.65-781.1-128.54-209.41-83.18-324.74-194.07-324.74-312.23,0-95.06,74.35-185.46,215-261.43a1013.35,1013.35,0,0,1,100.53-47.06c209.67-85.3,490.33-132.28,790.29-132.28a2696.81,2696.81,0,0,1,308.78,17.41c360.6,41.59,640.82,151.87,749.6,295,31.49,41.42,47.46,84.6,47.46,128.36,0,118.16-115.33,229-324.74,312.23C2013.44,2124.42,1736,2170.07,1441,2170.07Zm0-876.54c-299.33,0-579.32,46.84-788.4,131.91a1009.05,1009.05,0,0,0-100,46.83c-139,75-212.4,163.92-212.4,257,0,240.28,493.83,435.77,1100.84,435.77s1100.84-195.49,1100.84-435.77c0-42.64-15.63-84.81-46.43-125.33-52.5-69.07-149-132.62-279-183.77-130.4-51.29-291.94-89.08-467.15-109.29A2691.53,2691.53,0,0,0,1441,1293.53Z" transform="translate(-317.66 -241.7)"/><g class="cls-3"><path class="cls-4" d="M2068.86,1368.88c-81.17-19.53-169.28-35-262.4-45.75A2679.64,2679.64,0,0,0,1498,1305.68c-309.35,0-589,50.64-789.35,132.1a1010.12,1010.12,0,0,0-100.29,46.94C474,1557.27,394.63,1646.93,394.63,1744c0,149.36,188.15,281.27,475.49,360.41C551,2027.59,337.68,1888.33,337.68,1729.3c0-97,79.38-186.68,213.71-259.23a1007.67,1007.67,0,0,1,100.28-46.94C852,1341.62,1131.67,1291,1441,1291a2688.74,2688.74,0,0,1,308.49,17.41C1864.88,1321.75,1972.46,1342.33,2068.86,1368.88Z" transform="translate(-317.66 -241.7)"/></g><path class="cls-2" d="M1441,2187.57c-297.19,0-576.89-46.09-787.58-129.78-216.53-86-335.78-202.67-335.78-328.48s119.25-242.48,335.78-328.49c210.69-83.68,490.39-129.77,787.58-129.77s576.89,46.09,787.58,129.77c216.53,86,335.78,202.67,335.78,328.49s-119.25,242.47-335.78,328.48C2017.91,2141.48,1738.21,2187.57,1441,2187.57Zm0-876.52c-292.25,0-566.71,45.08-772.81,127-197.36,78.39-310.55,184.57-310.55,291.31s113.19,212.91,310.55,291.31c206.1,81.86,480.56,127,772.81,127s566.7-45.09,772.81-127c197.36-78.4,310.55-184.57,310.55-291.31S2411.19,1516.39,2213.83,1438C2007.72,1356.13,1733.27,1311.05,1441,1311.05Z" transform="translate(-317.66 -241.7)"/><path class="cls-2" d="M1437.86,2080.68c-215.11,0-417.56-31.9-570.07-89.82-157.08-59.66-243.6-140.81-243.6-228.5s86.52-168.85,243.6-228.51c152.51-57.92,355-89.82,570.07-89.82s417.56,31.9,570.06,89.82c157.09,59.66,243.6,140.81,243.6,228.51s-86.51,168.84-243.6,228.5C1855.42,2048.78,1653,2080.68,1437.86,2080.68Zm0-606.65c-211.56,0-410.23,31.21-559.42,87.87C735.93,1616,654.19,1689.09,654.19,1762.36s81.74,146.33,224.25,200.46c149.19,56.66,347.86,87.86,559.42,87.86s410.22-31.2,559.41-87.86c142.51-54.13,224.25-127.19,224.25-200.46S2139.78,1616,1997.27,1561.9C1848.08,1505.24,1649.41,1474,1437.86,1474Z" transform="translate(-317.66 -241.7)"/><g class="cls-5"><path class="cls-2" d="M2497.41,1602.46,2236.53,1744c-301.9,185.06-628.56,202.8-859.67,152.2,17,39.55-55.24,99.29-189.62,118l125.85-134.38c-108.16-32-188.34-79.47-224.52-129l660.94-442.39C2107.22,1349.68,2389.92,1461,2497.41,1602.46Z" transform="translate(-317.66 -241.7)"/></g><path class="cls-6" d="M2730.75,1216.86q-9.73,13.88-19.91,26.89a651.73,651.73,0,0,1-83.27,89.24,584,584,0,0,1-56.42,44c-1.24.85-2.47,1.71-3.7,2.51C2459,1452.38,2335.3,1479.88,2208.6,1467c-4-.33-8-.81-12-1.28l10.38-15.41L2314.24,1291c53.21.72,103.28-15,147.9-41.39a363.65,363.65,0,0,0,52.15-37.51,420.12,420.12,0,0,0,31.44-30.15c130-138.27,169.18-364.83,9.91-414.9-1.9-.57-3.79-1.14-5.74-1.66-22.57-6.35-48.88-9.29-79.28-8.11l8.68-169A310.58,310.58,0,0,1,2609,599,305.91,305.91,0,0,1,2718.9,659.1C2843.65,765.22,2890,975.56,2730.75,1216.86Z" transform="translate(-317.66 -241.7)"/><g class="cls-3"><path class="cls-4" d="M2588.41,1178.13a420.12,420.12,0,0,1-31.44,30.15,364.3,364.3,0,0,1-52.16,37.51c-43.15,25.56-91.37,41-142.58,41.35,35.42-6.07,68.94-19.21,99.91-37.51a363.65,363.65,0,0,0,52.15-37.51,420.12,420.12,0,0,0,31.44-30.15c130-138.27,169.18-364.83,9.91-414.9-1.9-.57-3.79-1.14-5.74-1.66-3.22-.9-6.49-1.75-9.91-2.51,19.45-2.66,36.66-5.83,52.59-1.33,1.94.52,3.84,1.09,5.74,1.66C2757.59,813.3,2718.42,1039.86,2588.41,1178.13Z" transform="translate(-317.66 -241.7)"/></g><g class="cls-3"><path class="cls-4" d="M2362.23,1287.14c-1.94.38-3.94.71-6,1l.66-1C2358.67,1287.23,2360.47,1287.23,2362.23,1287.14Z" transform="translate(-317.66 -241.7)"/><path class="cls-2" d="M2350.92,1291.4l4.72-6.75,1.35,0c1.68,0,3.42,0,5.11,0l.61,4.95q-3,.59-6.11,1Z" transform="translate(-317.66 -241.7)"/></g><path class="cls-6" d="M2479.4,574.27c0,1669.21-2076.76,1669.21-2076.76,0C402.64,401.63,867.56,261.7,1441,261.7S2479.4,401.63,2479.4,574.27Z" transform="translate(-317.66 -241.7)"/><path class="cls-1" d="M2463.84,766.79l-9.67,63.39c0,544-2032.61,544-2032.61,0l-8.49-84C511.27,1227.87,2317,1234.74,2463.84,766.79Z" transform="translate(-317.66 -241.7)"/><g class="cls-5"><path class="cls-2" d="M590.83,634.89C874.39,384.7,2078.17,422.64,2297,647.49c92.61-110.63-100.47-184.33-100.47-184.33C1685.43,328.08,1181,328,683.87,474.79,683.87,474.79,503.12,559.58,590.83,634.89Z" transform="translate(-317.66 -241.7)"/></g><g class="cls-3"><path class="cls-4" d="M454.8,598c0,599.78,268.14,984,611.72,1152.84C698.28,1596.29,402.64,1204.11,402.64,574.27,402.64,401.63,867.56,261.7,1441,261.7c378.81,0,710.3,61.08,891.67,152.31-188.86-78-494.56-128.6-839.51-128.6C919.72,285.41,454.8,425.34,454.8,598Z" transform="translate(-317.66 -241.7)"/></g><path class="cls-7" d="M408.9,704.67l4.17,41.54A207.18,207.18,0,0,1,408.9,704.67Z" transform="translate(-317.66 -241.7)"/><path class="cls-2" d="M410.63,746.71a210.07,210.07,0,0,1-4.23-42l5-.25L415.56,746Z" transform="translate(-317.66 -241.7)"/><path class="cls-2" d="M1441,1846.18c-277.64,0-536.36-113.41-728.51-319.33-215.8-231.27-329.87-560.67-329.87-952.57,0-93.09,113.07-178.38,318.38-240.18,197.94-59.58,460.74-92.4,740-92.4s542.06,32.82,740,92.4c205.31,61.8,318.37,147.09,318.37,240.18,0,391.9-114.06,721.3-329.87,952.57C1977.37,1732.77,1718.65,1846.18,1441,1846.18Zm0-1564.48C831.85,281.7,422.64,433,422.64,574.28c0,846.4,527.9,1231.9,1018.38,1231.9s1018.37-385.5,1018.37-1231.9C2459.39,433,2050.19,281.7,1441,281.7Z" transform="translate(-317.66 -241.7)"/><path class="cls-8" d="M2297,647.49v0c-10.29,11.15-23.38,22-39.07,32.48C2126.05,768.16,1810,830.18,1441,830.18c-24.75,0-49.31-.28-73.54-.85-337-7.59-620.36-67.1-743.4-149.32-.05,0-.05,0-.1,0a238.5,238.5,0,0,1-29.06-22.57c-6.45-6.6-10.72-11-12.38-12.71a3.35,3.35,0,0,0-.43-.43,4.32,4.32,0,0,0-.28-.33c72.4-79,286.63-142.54,564.16-169.14,91.37-8.77,189.57-13.56,291.85-13.56C1855.49,461.23,2205.37,540.7,2297,647.49Z" transform="translate(-317.66 -241.7)"/><path class="cls-2" d="M2297,662.51a15,15,0,0,1-11.9-5.86c-90.87-104.58-446.83-180.42-847.29-180.42-390.32,0-741.84,73-841.39,174.09a14.84,14.84,0,0,1-3.24,4.9,15,15,0,0,1-21.21.14l-.26-.26q-.62-.6-1.17-1.26a15,15,0,0,1,.2-20.05C672,523.36,1028.58,446.23,1437.84,446.23c415.81,0,773.8,78.74,870.57,191.49A15,15,0,0,1,2297,662.51Z" transform="translate(-317.66 -241.7)"/><g class="cls-9"><path class="cls-4" d="M947.16,945c-100.19-17.37-173.5-37.14-225.3-54.54-46.21-15.52-91.24,26.12-79.4,73.41,22.21,88.7,57.79,209.08,104.7,297.56a141,141,0,0,0,106.53,73.66l142.61,18.46c38.86,5,71-30,62.5-68.24-16.16-73-24.68-156.88-21.66-228.58A108.68,108.68,0,0,0,947.16,945Z" transform="translate(-317.66 -241.7)"/></g><g class="cls-9"><path class="cls-4" d="M1092.2,1639.07c-99-39-172.92-121.53-212.74-174.85-14.16-19,1.2-45.69,24.72-43.16l124.48,13.36a77.75,77.75,0,0,1,66.81,57.27l31,116.38C1132,1628.52,1111.88,1646.83,1092.2,1639.07Z" transform="translate(-317.66 -241.7)"/></g><path class="cls-2" d="M2268.7,1490.11a618,618,0,0,1-74.56-4.57,20,20,0,1,1,4.82-39.71c205.14,24.86,388.15-60.44,515.28-240.25,110.7-167.93,129.12-336.66,50.51-462.95-60.62-97.39-169.05-148.92-282.93-134.5a20,20,0,0,1-5-39.69c129.58-16.42,252.94,42.24,321.92,153,40.18,64.56,58.4,142.33,52.66,224.89-6.38,91.95-41.34,186.66-103.92,281.5l-.36.52C2626.61,1399,2458.74,1490.1,2268.7,1490.11Z" transform="translate(-317.66 -241.7)"/><path class="cls-10" d="M1561,778.92c-62,6.64-107.54,32-119.92,61-12.33-29-57.89-54.34-119.91-61C1146,752.09,995,726,1009.72,619.41c46.8-131.29,379.33-135.13,431.39-12.94,52.07-122.19,384.65-118.35,431.4,12.94C1887.21,726,1736.19,752.09,1561,778.92Z" transform="translate(-317.66 -241.7)"/><path class="cls-2" d="M2317.79,1311.05c-1.28,0-2.53,0-3.82,0a20,20,0,0,1,.54-40c125.41,1.67,224.79-93.56,276.11-183.24,53-92.69,64.34-190.47,28.81-249.11-26.37-43.51-76.12-64.15-148-61.4a20,20,0,0,1-1.54-40c108.93-4.18,160.09,41.54,183.79,80.64,43.61,72,32.76,183-28.3,289.7C2568.88,1206.33,2458.64,1311,2317.79,1311.05Z" transform="translate(-317.66 -241.7)"/><path class="cls-11" d="M1441.12,822.62c30.38-68.91,236.31-82.39,347.47-138.64,29.53-14.94,46.35-39.86,39.86-64.79-22.66-87.07-300.36-104.57-387.33-12.73-87-91.84-364.66-74.34-387.33,12.73-6.49,24.93,10.33,49.85,39.86,64.79C1204.81,740.23,1410.74,753.71,1441.12,822.62Z" transform="translate(-317.66 -241.7)"/><path class="cls-12" d="M1437.86,641.61a236.06,236.06,0,0,0-75-33.86c-26.38-7-53.64-10-80.73-10.09-27.08.2-54.23,3.12-79.94,9.94-12.76,3.46-25.34,7.85-36,14-5.22,3-10.08,6.61-12.8,10.12a11,11,0,0,0-2.28,4.32,4.36,4.36,0,0,0,.41,2.94,16.39,16.39,0,0,0,3.57,4.63A72.46,72.46,0,0,0,1162,649a112,112,0,0,0,16.4,9.58c11.72,5.91,24.47,10.84,37.32,15.6,25.76,9.5,52.35,17.89,78.69,27.33,26.41,9.2,52.77,19.14,78.32,31.2,12.67,6.24,25.25,12.81,37,20.76s22.88,17.07,31.31,28.31c-10.38-9.43-22.28-16.53-34.6-22.62a345.42,345.42,0,0,0-38.2-15.7c-26-9.28-52.69-16.68-79.41-24.31-26.81-7.41-53.71-14.85-80.58-23.76a359.68,359.68,0,0,1-40.16-15.78,133.48,133.48,0,0,1-19.71-11.36,93.07,93.07,0,0,1-9.54-7.57,39,39,0,0,1-8.86-12,28.2,28.2,0,0,1-1.94-17.46,34.17,34.17,0,0,1,7-14.19,52.63,52.63,0,0,1,9.56-9.18,78.51,78.51,0,0,1,10.13-6.6c13.74-7.49,27.83-12.07,42-15.44a296.16,296.16,0,0,1,86-6.61,288,288,0,0,1,83.69,17.5C1393,607,1418.1,621.65,1437.86,641.61Z" transform="translate(-317.66 -241.7)"/><path class="cls-12" d="M1441,641.61c19.75-20,44.85-34.65,71.42-44.88a288,288,0,0,1,83.7-17.5,296.07,296.07,0,0,1,86,6.61c14.23,3.37,28.32,7.95,42,15.44a77.16,77.16,0,0,1,10.13,6.6,52.67,52.67,0,0,1,9.57,9.18,34.17,34.17,0,0,1,7,14.19,28.27,28.27,0,0,1-1.94,17.46,39,39,0,0,1-8.87,12,93,93,0,0,1-9.53,7.57,133.06,133.06,0,0,1-19.72,11.36,358.78,358.78,0,0,1-40.15,15.78c-26.87,8.91-53.77,16.35-80.58,23.76-26.73,7.63-53.43,15-79.41,24.31a345.42,345.42,0,0,0-38.2,15.7c-12.33,6.09-24.22,13.19-34.6,22.62,8.42-11.24,19.6-20.39,31.31-28.31s24.33-14.52,37-20.76c25.55-12.06,51.9-22,78.32-31.2,26.34-9.44,52.92-17.83,78.69-27.33,12.84-4.76,25.59-9.69,37.32-15.6a112,112,0,0,0,16.4-9.58,73.78,73.78,0,0,0,6.83-5.43,16.51,16.51,0,0,0,3.56-4.63,4.37,4.37,0,0,0,.42-2.94,11,11,0,0,0-2.28-4.32c-2.72-3.51-7.58-7.11-12.81-10.12-10.62-6.15-23.21-10.54-36-14-25.71-6.82-52.85-9.74-79.93-9.94-27.09.09-54.36,3-80.73,10.09A236,236,0,0,0,1441,641.61Z" transform="translate(-317.66 -241.7)"/><path class="cls-12" d="M1439.43,665.17a195.74,195.74,0,0,0-43.59-18.67,186.83,186.83,0,0,0-22.93-5.46,184.9,184.9,0,0,0-23.28-2.93c-15.5-.94-31.44-.57-45.85,3.68a46.86,46.86,0,0,0-10,4.11c-2.91,1.75-5.31,4-6.14,6.15-1.93,4,2.59,10.22,8.16,14.81l-.37-.27c11.35,7.64,24,13.81,36.58,20.07s25.51,12,38.29,18.13,25.57,12.32,38,19.39a171.06,171.06,0,0,1,17.92,11.76,59.3,59.3,0,0,1,8,7.18c2.39,2.64,4.53,5.77,5.21,9.28a19.43,19.43,0,0,0-6.17-8.33,62.72,62.72,0,0,0-8.43-6.18,169.78,169.78,0,0,0-18.59-9.82c-12.72-6-25.8-11.28-38.83-16.76s-26.14-10.86-39.1-16.74-25.81-12.21-38.08-20.18l-.23-.15-.14-.13c-3.24-2.89-6.6-5.73-9.07-10a13.17,13.17,0,0,1-1.66-3.36,12.59,12.59,0,0,1-1.07-3.83,11.82,11.82,0,0,1-.12-4.2,11.43,11.43,0,0,1,1-4.11c2.21-5.26,6.33-8.35,10.17-10.67a55.72,55.72,0,0,1,12.1-4.89c16.38-4.37,32.91-4.22,49-2.53a190.23,190.23,0,0,1,47.1,11.41A170.33,170.33,0,0,1,1439.43,665.17Z" transform="translate(-317.66 -241.7)"/><path class="cls-12" d="M1439.43,665.17a170.21,170.21,0,0,1,42-23.25,190,190,0,0,1,47.09-11.41c16.14-1.69,32.67-1.84,49,2.53a55.72,55.72,0,0,1,12.1,4.89c3.84,2.32,8,5.41,10.17,10.67a11.43,11.43,0,0,1,1,4.11,11.82,11.82,0,0,1-.12,4.2,12.59,12.59,0,0,1-1.07,3.83,13.17,13.17,0,0,1-1.66,3.36c-2.47,4.28-5.83,7.12-9.07,10l-.14.13-.23.15c-12.27,8-25.09,14.33-38.08,20.18s-26,11.36-39.1,16.74-26.11,10.78-38.83,16.76a169.78,169.78,0,0,0-18.59,9.82,62.72,62.72,0,0,0-8.43,6.18,19.43,19.43,0,0,0-6.17,8.33c.68-3.51,2.82-6.64,5.22-9.28a58.62,58.62,0,0,1,8-7.18,171.06,171.06,0,0,1,17.92-11.76c12.39-7.07,25.16-13.34,38-19.39s25.64-12,38.28-18.13,25.23-12.43,36.58-20.07l-.37.27c5.57-4.59,10.09-10.77,8.16-14.81-.82-2.18-3.23-4.4-6.14-6.15a46.86,46.86,0,0,0-10-4.11c-14.41-4.25-30.35-4.62-45.84-3.68A184.83,184.83,0,0,0,1506,641,186.83,186.83,0,0,0,1483,646.5,195.74,195.74,0,0,0,1439.43,665.17Z" transform="translate(-317.66 -241.7)"/><path class="cls-12" d="M1244.24,619.41c-5.62,3.52-11.14,6.93-14.93,10.93-3.77,4.37-3.75,7.14-.71,11.45s7.77,8.23,12.58,12.11,10,7.74,14.91,12.34a65.2,65.2,0,0,1-18.88-6.09c-5.93-3-11.82-6.71-16.38-12.94-2.13-3.1-4-7.48-3.29-12.28a15.89,15.89,0,0,1,7-10.22A33.17,33.17,0,0,1,1244.24,619.41Z" transform="translate(-317.66 -241.7)"/><path class="cls-2" d="M2173.8,450.9a380.13,380.13,0,0,1,66.69,24.22c5.35,2.66,10.73,5.31,16,8.14,5.17,3.11,10.5,5.91,15.55,9.32A198.78,198.78,0,0,1,2301.46,515c9.05,8.71,17.79,18.29,24.59,29.83a88.83,88.83,0,0,1,12.27,39.34c1.21,14.19-2.14,28.59-7.75,41A129,129,0,0,1,2308.51,658l4.1-10.52v0a15.18,15.18,0,0,1-4,10.41l-.15.16a228.86,228.86,0,0,1-44.37,37L2240,709.8c-8.22,4.4-16.56,8.48-24.85,12.73a728.75,728.75,0,0,1-102.79,40.08c-69.86,21.82-141.1,37.27-212.76,48.88s-143.82,19.31-216,24.82c-36.11,2.92-72.28,4.59-108.44,6.33l-54.27,1.59c-18.09.61-36.19.41-54.28.68-144.73,1.17-289.66-6.85-433.28-27C961.53,807.69,890,794.7,819.41,776.37L793,769.25l-26.19-8.17c-17.53-5.11-34.7-11.79-51.9-18.14-8.59-3.24-17-7.21-25.46-10.79l-12.66-5.56c-4.18-2-8.27-4.23-12.4-6.32L652,713.84a139.26,139.26,0,0,1-12.23-6.75l-23.78-15,8.06,2.44-.1,0L615.92,692a269.94,269.94,0,0,1-22.75-17.67,121.64,121.64,0,0,1-10.61-10.13l-10.08-10.82,2.09,2a17,17,0,0,1-3.52-3.72l.66.92a6.47,6.47,0,0,0,.72.76l-.68-.73a121,121,0,0,1-18.39-30.28A81,81,0,0,1,557,551.56a123.09,123.09,0,0,1,20.46-27.62c15.88-15.9,34-28.26,52.92-38.61a421.29,421.29,0,0,1,58.5-26.22,2.3,2.3,0,0,1,1.87,4.2c-18.62,10-37,20.32-54,32.27s-33.07,25.16-45.8,40.5c-12.48,15.27-21.72,33-21,50.74-.13,17.68,9.11,34.41,22,48.45l-.68-.74c.44.46.87.94,1.28,1.44l.67.91a10,10,0,0,0-2.67-2.86l2.1,2,8.95,8.73A98.6,98.6,0,0,0,611,653a245.83,245.83,0,0,0,21,14.89L624,665.46l.1,0,8.06,2.45c59.09,35.83,127.21,58.63,195.59,77.53,68.6,19,139,32.56,209.81,42.69,141.8,19.93,285.42,27.91,428.82,26.75,17.93-.31,35.86-.23,53.78-.91l53.75-1.82c35.79-1.9,71.59-3.71,107.29-6.77,71.42-5.77,142.6-14.33,213.08-26.27s140.41-27,208-48.39c17.05-5,33.53-11.31,50.17-17.22,8.42-2.77,16.3-6.58,24.46-9.85,8.06-3.45,16.34-6.56,24-10.65,7.78-3.91,15.67-7.66,23.36-11.67l22.19-13.18a198.41,198.41,0,0,0,39.1-31.22l-4.13,10.56v-.39a15.08,15.08,0,0,1,4.1-10.18c14.31-15.2,24.08-33.17,23-51.34a64.42,64.42,0,0,0-7.37-27.07,129.57,129.57,0,0,0-18.1-25.22c-3.8-3.85-7.47-7.82-11.67-11.42-3.93-3.83-8.24-7.36-12.56-10.9-8.69-7-18-13.53-27.36-20-19-12.62-39.09-24.22-59.44-35.82a2.31,2.31,0,0,1-.88-3.15A2.34,2.34,0,0,1,2173.8,450.9Z" transform="translate(-317.66 -241.7)"/><path class="cls-10" d="M1896.48,578.55c9.63,2.41,18.53,6.92,27.06,12.3a85.79,85.79,0,0,1,22.59,21.23,61.48,61.48,0,0,1,11.69,31.49c.75,11.85-2.68,23.59-8,33.34-11.12,19.52-28,32.24-45.16,42.08a183.71,183.71,0,0,1-55.19,20.15c15.14-12.61,30.53-23.64,44.62-35.5s27.14-24.27,35-38.16a47.71,47.71,0,0,0,6.36-21.33c.17-7.29-1.71-14.9-5.19-22.5C1923,606.41,1910.4,592.19,1896.48,578.55Z" transform="translate(-317.66 -241.7)"/><path class="cls-10" d="M976.21,578.55c-13.92,13.64-26.52,27.86-33.73,43.1-3.48,7.6-5.36,15.21-5.19,22.5a47.84,47.84,0,0,0,6.36,21.33c7.83,13.89,21,26.42,35,38.16s29.48,22.89,44.62,35.5A183.71,183.71,0,0,1,968.05,719c-17.16-9.84-34-22.56-45.16-42.08-5.33-9.75-8.77-21.49-8-33.34a61.48,61.48,0,0,1,11.69-31.49,85.79,85.79,0,0,1,22.59-21.23C957.68,585.47,966.58,581,976.21,578.55Z" transform="translate(-317.66 -241.7)"/><ellipse class="cls-10" cx="1823.65" cy="389.91" rx="38" ry="14.57"/><ellipse class="cls-10" cx="404.21" cy="399.9" rx="38" ry="14.57"/><ellipse class="cls-10" cx="1791.24" cy="437.86" rx="24.59" ry="9"/><ellipse class="cls-10" cx="477.85" cy="360.51" rx="24.59" ry="9"/><ellipse class="cls-10" cx="1747.1" cy="405.66" rx="13.41" ry="4.62"/><path class="cls-10" d="M836.65,657.33c0,3.15-7.41,5.71-16.56,5.71s-16.55-2.56-16.55-5.71,7.41-5.7,16.55-5.7S836.65,654.18,836.65,657.33Z" transform="translate(-317.66 -241.7)"/><g class="cls-5"><path class="cls-2" d="M1234.75,1788.23l.51-.07c16.56,3,35,6.23,55,9.72,522,53.56,1077.51-318.28,1132.61-1115.27h0c-49.09,69.14-158.07,146.94-381.3,218.87a77.7,77.7,0,0,0-53.91,76.12C2001,1458,1728.93,1719.59,1234.75,1788.23Z" transform="translate(-317.66 -241.7)"/></g><g class="cls-5"><path class="cls-13" d="M1367.48,829.33c-337-7.59-620.36-67.1-743.4-149.32-.05,0-.05,0-.1,0a238.5,238.5,0,0,1-29.06-22.57c-6.45-6.6-10.72-11-12.38-12.71a3.35,3.35,0,0,0-.43-.43,4.32,4.32,0,0,0-.28-.33c72.4-79,286.63-142.54,564.16-169.14l2.61,1.85C640.1,634.4,817.44,744.69,1367.48,829.33Z" transform="translate(-317.66 -241.7)"/></g><g class="cls-5"><path class="cls-2" d="M2718.9,659.1c-72.17-6.26-129.26,37.84-169,106.31-22.57-6.35-48.88-9.29-79.28-8.11l8.68-169A310.58,310.58,0,0,1,2609,599,305.91,305.91,0,0,1,2718.9,659.1Z" transform="translate(-317.66 -241.7)"/></g><g class="cls-5"><path class="cls-2" d="M2627.57,1333a584,584,0,0,1-56.42,44c-1.24.85-2.47,1.71-3.7,2.51C2459,1452.38,2335.3,1479.88,2208.6,1467c-4-.33-8-.81-12-1.28l10.38-15.41L2314.24,1291c53.21.72,103.28-15,147.9-41.39a363.65,363.65,0,0,0,52.15-37.51C2537.53,1271.44,2574.89,1316.34,2627.57,1333Z" transform="translate(-317.66 -241.7)"/></g><g class="cls-5"><path class="cls-2" d="M1498,2064.82c-8-.38-15.94-.81-23.76-1.24C212.5,1993.5,551.39,1470.07,551.39,1470.07a1007.67,1007.67,0,0,1,100.28-46.94q95,132.72,222.34,219.68C604.35,1851.58,871.5,1983.83,1498,2064.82Z" transform="translate(-317.66 -241.7)"/></g><path class="cls-8" d="M667.18,1960.6c-82.28-36.92-100.63-174.7-41-307.77,56.79-126.65,163.74-203.42,244.93-178.69a102.4,102.4,0,0,1,12.15,4.53c1.62.65,3.24,1.3,4.86,2C1208.33,1611.37,1006.75,2112.84,667.18,1960.6Z" transform="translate(-317.66 -241.7)"/><g class="cls-5"><path class="cls-2" d="M667.18,1960.6c-28.29-12.68-49-37.25-61.55-69.48,265,93.07,435-213.19,313.87-395.6C1194.18,1645.27,995,2107.55,667.18,1960.6Z" transform="translate(-317.66 -241.7)"/></g><g class="cls-3"><path class="cls-4" d="M1017.65,1589.83c-26.29-30.77-62.3-56.85-109.16-75.15l-.2-.09c-10.75-4.82-23.39.26-28.43,10.91L681.75,1944.84l-25-15.6,199.42-423.41,15-31.69c.11,0,.22,0,.33.11,1.4.43,2.75.86,4.1,1.4,2.59.86,5.18,1.89,7.72,3,1.62.65,3.24,1.3,4.86,2h0C949.66,1505.81,992,1544.6,1017.65,1589.83Z" transform="translate(-317.66 -241.7)"/></g><g class="cls-3"><path class="cls-4" d="M871.13,1474.14l-15,31.69c-73.58,5.13-157,76.39-204.77,183C609.68,1782,606.12,1877.41,636,1939c-54.74-54.41-61-172-9.77-286.12C683,1526.18,789.94,1449.41,871.13,1474.14Z" transform="translate(-317.66 -241.7)"/></g><path class="cls-2" d="M791.85,2005.75c-42.44,0-86.76-10-131.46-30h0C615.15,1955.44,585.54,1909,577,1845c-8.14-61.14,4-131.79,34-198.92s74.8-123.18,125.87-157.78c53.35-36.15,107.58-45,152.76-24.9,98.58,38.6,160.16,113.52,173.41,211,14.2,104.48-32.66,216.87-116.61,279.67C900.52,1988.42,847.82,2005.75,791.85,2005.75ZM674,1945.46c92.16,41.31,181.88,34.92,252.64-18,74.6-55.8,116.23-155.71,103.6-248.62-11.57-85.13-65.89-150.72-153-184.7-.26-.1-.51-.2-.76-.32-34.37-15.41-77.32-7.63-120.94,21.93-46,31.19-86.59,82.29-114.2,143.88-55.81,124.48-41.17,252.71,32.62,285.84Z" transform="translate(-317.66 -241.7)"/><path class="cls-2" d="M711.18,1983.31a120.16,120.16,0,0,1-49.52-10.41,13.5,13.5,0,0,1,11.05-24.63c35.37,15.86,79.38,8,123.91-22.19,46.51-31.51,87.45-83.06,115.29-145.17s39.1-127,31.69-182.65c-7.1-53.32-30.49-91.42-65.86-107.28a13.5,13.5,0,0,1,11-24.63c44.23,19.83,73.2,65.41,81.58,128.35,8.06,60.58-4,130.63-33.82,197.26s-74.18,122.18-124.78,156.46C777.65,1971.53,743.23,1983.31,711.18,1983.31Z" transform="translate(-317.66 -241.7)"/><path class="cls-2" d="M647.48,1962.4a13.5,13.5,0,0,1-12.2-19.25L859,1468.48A13.5,13.5,0,0,1,883.43,1480L659.69,1954.66A13.49,13.49,0,0,1,647.48,1962.4Z" transform="translate(-317.66 -241.7)"/><path class="cls-8" d="M841.42,1811.19c-10.5-79.76,85.5-158.22,214.47-175.26,122.75-16.2,231.13,29,250.38,102.27a91.72,91.72,0,0,1,2.25,11.34c.27,1.53.53,3.07.76,4.63C1360,2058.47,884.88,2140.3,841.42,1811.19Z" transform="translate(-317.66 -241.7)"/><g class="cls-5"><path class="cls-2" d="M841.42,1811.19c-3.62-27.42,5.34-54.62,23.92-79.27,53.46,244.8,365.58,230.38,447.36,53C1327.65,2063.61,883.4,2128.93,841.42,1811.19Z" transform="translate(-317.66 -241.7)"/></g><g class="cls-3"><path class="cls-4" d="M1287.06,1903.62c11-34.37,14-73.92,5.93-118.07l0-.19c-1.37-10.43-11.15-17.65-21.6-16.48l-411.15,46,.14-26.28,414.86-46.91,31.06-3.48c0,.1.06.18.07.29.33,1.27.64,2.5.86,3.77.56,2.38,1,4.82,1.32,7.28.27,1.53.53,3.07.76,4.63h0C1319,1812.65,1309.38,1863,1287.06,1903.62Z" transform="translate(-317.66 -241.7)"/></g><g class="cls-3"><path class="cls-4" d="M1306.27,1738.2l-31.06,3.48c-38.36-53.46-131.52-83.41-234.85-69.74-90.25,11.93-164.38,53.93-197.12,105.42,15.67-67,102-126.83,212.65-141.43C1178.64,1619.73,1287,1665,1306.27,1738.2Z" transform="translate(-317.66 -241.7)"/></g><path class="cls-2" d="M1072,2039.49a260.24,260.24,0,0,1-95.4-17.65c-84.4-33.3-138.25-107.34-151.61-208.48h0c-11.87-90.21,88.61-175.37,228.76-193.88,65.39-8.65,129.21-.9,179.71,21.81,53,23.82,85.47,61.34,91.49,105.66,17,93.58-11.29,176-79.61,232.15C1197.32,2018.54,1134.34,2039.49,1072,2039.49ZM857.87,1809c11.71,88.65,58.19,153.26,130.89,181.94,76.7,30.27,171.34,15.2,235.47-37.5,58.69-48.23,82.83-119.59,68-200.94,0-.27-.1-.54-.13-.81-4.31-32.67-30-61.14-72.25-80.15-44.94-20.2-102.38-27-161.76-19.17-117.64,15.53-209.32,87.27-200.19,156.64Z" transform="translate(-317.66 -241.7)"/><path class="cls-2" d="M1044.44,1940.11c-46.08,0-89.62-8.46-126.06-24.85-51.66-23.23-83.22-59.63-88.88-102.5a12,12,0,1,1,23.87-3.15c4.53,34.29,31.12,64,74.89,83.69,45.7,20.54,104,27.48,164.21,19.54,122.19-16.13,213.76-88.69,204.11-161.74a12,12,0,1,1,23.87-3.15c11.39,86.21-89.47,170.89-224.83,188.76A391,391,0,0,1,1044.44,1940.11Z" transform="translate(-317.66 -241.7)"/><path class="cls-2" d="M841.06,1802.8a12,12,0,0,1-1.33-24l465.16-52.46a12,12,0,0,1,2.7,23.93l-465.16,52.45A10.59,10.59,0,0,1,841.06,1802.8Z" transform="translate(-317.66 -241.7)"/></svg>