<svg id="OBJECTS" xmlns="http://www.w3.org/2000/svg" viewBox="0 0 223.53 188.67"><defs><style>.cls-1{fill:#232122;}.cls-1,.cls-2,.cls-4{fill-rule:evenodd;}.cls-2{fill:#facc15;}.cls-3{fill:#faecdc;}</style></defs><path class="cls-1" d="M41.52,148.07H32.16a12,12,0,0,1-.25-1.66c0-2.23,0-4.46.21-6.68A65.91,65.91,0,0,0,31.37,124a12.87,12.87,0,0,0-3-6.81c-2.47-2.74-3.84-2.66-5.17.83A40.33,40.33,0,0,0,21,126.58,77.3,77.3,0,0,0,20.3,137c-.08,15.07-.14,30.14,0,45.21a82.55,82.55,0,0,0,1.19,11.27,14.78,14.78,0,0,0,3.28,7.45,10.43,10.43,0,0,0,1.72,1.73c2.78,2.07,5.82,1.17,6.82-2.17A28.64,28.64,0,0,0,34.52,194c.23-4.14.14-8.3.19-12.45,0-1.11,0-2.22,0-3.63,3.27-.39,6.49-.16,9.77-.28a6.23,6.23,0,0,1,.31,1.17c.27,6.83.53,13.67-.75,20.43a24.84,24.84,0,0,1-2.38,7.35c-4.26,7.75-13.68,9.69-20.88,4.49a22.56,22.56,0,0,1-8.06-11.21,49,49,0,0,1-2.58-15.76q-.17-25.38.09-50.77a51.08,51.08,0,0,1,2.5-16.45,28.71,28.71,0,0,1,2.81-6c4.25-6.63,12-7.69,18.07-2.63a22.65,22.65,0,0,1,7.73,13.9c1.43,7.89,1,15.82.67,23.76a10,10,0,0,1-.23,1.54A4.46,4.46,0,0,1,41.52,148.07Z" transform="translate(-8.04 -25.29)"/><path class="cls-1" d="M139.44,211.73c-.09-3-.23-5.63-.25-8.28-.11-13.88-.17-27.76-.29-41.63-.09-9.2-.39-18.4-.31-27.59a114.44,114.44,0,0,1,1.17-13.95A19.86,19.86,0,0,1,144.27,110c4.15-4.92,9.81-5.9,15.38-2.71a15.46,15.46,0,0,1,6.36,6.93,38.11,38.11,0,0,1,3.15,11.31,130,130,0,0,1,.88,20.21,7.83,7.83,0,0,1-.33,1.5h-9.58a21.73,21.73,0,0,1-.23-2.19c-.05-3.49,0-7-.12-10.46-.21-5.12-.61-10.22-2.48-15.07a6.73,6.73,0,0,0-2.65-3.47,1.73,1.73,0,0,0-2.54.38,11,11,0,0,0-2.41,5.66,61.5,61.5,0,0,0-.89,9.07c0,12.16.21,24.33.34,36.5a8.34,8.34,0,0,0,.12.86c4.82.2,9.63-.88,14.68-.7v9.89l-14.64,1.2c-.06.63-.17,1.2-.17,1.77q0,11,.1,22c0,2.29.23,4.59.13,6.88-.09,2-.27,2.09-2.28,2.1C144.64,211.75,142.2,211.73,139.44,211.73Z" transform="translate(-8.04 -25.29)"/><path class="cls-1" d="M113.6,169.69c5.25-.18,10.23-.95,15.38-.9v9.89l-15.22,1.26c-.06.83-.16,1.48-.15,2.12.09,8.32.21,16.62.3,24.94,0,1.53-.07,3.06-.12,4.69H104c-.07-.83-.19-1.62-.19-2.41-.1-9.57-.16-19.14-.28-28.72-.15-11.87-.45-23.74-.48-35.61,0-6.75.29-13.5.65-20.24a25.58,25.58,0,0,1,2.59-9.84,15.9,15.9,0,0,1,5.34-6.43,10.74,10.74,0,0,1,11-.91,15.46,15.46,0,0,1,7.82,7.59,38.36,38.36,0,0,1,3.1,10.64c1.13,7.07,1,14.2.93,21.33a15.89,15.89,0,0,1-.26,1.94c-3.08.65-6.2.21-9.53.69-.09-1-.21-1.75-.23-2.52-.09-3.94,0-7.88-.25-11.8s-.81-7.66-1.38-11.46a20.16,20.16,0,0,0-1.32-4,6.06,6.06,0,0,0-1-1.71c-1.91-2.24-3.32-2.08-4.78.51s-1.82,5.47-2.1,8.36c-.81,8.59-.51,17.19-.27,25.8.13,4.75.18,9.5.27,14.25C113.61,167.94,113.6,168.74,113.6,169.69Z" transform="translate(-8.04 -25.29)"/><path class="cls-1" d="M186.27,201.86c4.41.36,8.75-.58,13.14-.2,0,3.11,0,6,0,8.86,0,.38-.68.82-1.13,1.09a2.28,2.28,0,0,1-1.09.09q-10.12.21-20.25.4A7.13,7.13,0,0,1,176,212c-.06-1-.19-2.1-.19-3.18q.22-25.15.48-50.31c.13-14.39.25-28.79.44-43.18a48.52,48.52,0,0,1,.62-5.06,1.83,1.83,0,0,1,2.05-1.82c2.82-.08,5.64-.26,8.45-.34q5.79-.16,11.58-.27c.57,0,1.15.1,1.91.17.13,3.11.26,6.11.4,9.32a39,39,0,0,1-7.4.42c-2.37,0-4.74,0-7.36,0-.08,1-.19,1.77-.2,2.55-.08,9.2-.13,18.4-.23,27.61-.06,6.3-.18,12.61-.27,18.92,0,.79,0,1.59,0,2.67l13.25-.53c.29,3.3.55,6.3.83,9.62l-14.06.86Z" transform="translate(-8.04 -25.29)"/><path class="cls-1" d="M206.07,211.91c0-1-.13-2-.12-2.95q.35-39,.7-77.93.07-8.34.29-16.69a21.11,21.11,0,0,1,.55-4c.4-1.81.45-1.9,2.36-2,5.34-.23,10.68-.38,16-.53,1.83-.06,3.66,0,5.7,0v9.6c-4.67.39-9.47.18-14.2.4-.49,1.65-1.12,47.83-.71,51.36a9.06,9.06,0,0,0,1.41.17c2.82-.12,5.63-.3,8.45-.4,1,0,2,.07,3.19.12.27,3.21.51,6.21.78,9.46-4.75.27-9.23.54-14,.83-.14,7.48-.27,14.91-.4,22.41,4.72.45,9.13-.58,13.58-.14,0,3.06,0,5.86,0,8.66a1.23,1.23,0,0,1-1.24,1.31l-.89,0-20.47.4A6.78,6.78,0,0,1,206.07,211.91Z" transform="translate(-8.04 -25.29)"/><path class="cls-1" d="M69.3,136.58a25.95,25.95,0,1,1-26,25.79A26,26,0,0,1,69.3,136.58ZM85,162.47A15.8,15.8,0,1,0,69.2,178.32,15.75,15.75,0,0,0,85,162.47Z" transform="translate(-8.04 -25.29)"/><path class="cls-1" d="M92.84,204.12c-4.43.78-39.13.72-41.2,0v-9.34c13.76-.19,27.35-.51,41.24-.41C93,197.74,92.94,200.88,92.84,204.12Z" transform="translate(-8.04 -25.29)"/><path class="cls-2" d="M28,212.67a15.11,15.11,0,0,1-8.85-2.95A22.85,22.85,0,0,1,11,198.38a49.28,49.28,0,0,1-2.6-15.83c-.1-16.33-.07-33.42.09-50.78A50.39,50.39,0,0,1,11,115.25a28.84,28.84,0,0,1,2.83-6.08,12.07,12.07,0,0,1,10.12-5.92,13,13,0,0,1,8.33,3.23,22.83,22.83,0,0,1,7.81,14c1.44,7.95,1.05,16,.67,23.82a9.13,9.13,0,0,1-.2,1.39l0,.18a2.15,2.15,0,0,1-.18.48l-.16.39H30.41l0-.21c0-.24-.08-.44-.12-.64a5.28,5.28,0,0,1-.13-1.07l0-1.31c0-1.77.05-3.59.19-5.38a66.15,66.15,0,0,0-.75-15.69,12.54,12.54,0,0,0-3-6.69c-1.14-1.26-2-1.85-2.65-1.85s-1.43.83-2.11,2.6a40.09,40.09,0,0,0-2.17,8.53,77.08,77.08,0,0,0-.67,10.4c-.08,13.63-.15,29.48,0,45.2a74.92,74.92,0,0,0,1,10.26l.15,1a14.51,14.51,0,0,0,3.22,7.32,10.32,10.32,0,0,0,1.68,1.69A4.87,4.87,0,0,0,27.92,202c1.67,0,3-1.16,3.59-3.1a27.47,27.47,0,0,0,1.22-6.47c.17-3,.17-6,.17-8.9,0-1.18,0-2.36,0-3.54,0-.75,0-1.49,0-2.33v-1.52l.22,0a47.08,47.08,0,0,1,5.42-.24h1.8c.86,0,1.71,0,2.57,0h.2l0,.19c0,.16.09.31.14.44a2.92,2.92,0,0,1,.18.78c.27,6.74.54,13.7-.75,20.49a25.64,25.64,0,0,1-2.41,7.43A14.06,14.06,0,0,1,28,212.67Z" transform="translate(-8.04 -25.29)"/><path class="cls-3" d="M23.91,103.5a12.71,12.71,0,0,1,8.17,3.18,22.67,22.67,0,0,1,7.73,13.9c1.43,7.88,1,15.82.67,23.76a12,12,0,0,1-.24,1.54,3.87,3.87,0,0,1-.26.66H30.62a11.91,11.91,0,0,1-.24-1.67c0-2.22,0-4.46.21-6.68a66.35,66.35,0,0,0-.75-15.74,13,13,0,0,0-3-6.82c-1.15-1.27-2.06-1.93-2.84-1.93s-1.63.89-2.34,2.77a39.58,39.58,0,0,0-2.18,8.58,77.3,77.3,0,0,0-.68,10.43c-.09,15.06-.15,30.13,0,45.2A82.36,82.36,0,0,0,19.92,192a14.78,14.78,0,0,0,3.28,7.45,10.43,10.43,0,0,0,1.72,1.73,5.08,5.08,0,0,0,3,1.11c1.71,0,3.19-1.14,3.83-3.27A28.7,28.7,0,0,0,33,192.43c.23-4.14.15-8.3.19-12.45,0-1.11,0-2.21,0-3.63a46.49,46.49,0,0,1,5.39-.24h1.81c.86,0,1.71,0,2.57,0a6,6,0,0,1,.31,1.16c.27,6.83.54,13.68-.74,20.43A25.19,25.19,0,0,1,40.13,205,13.82,13.82,0,0,1,28,212.42a14.78,14.78,0,0,1-8.7-2.91,22.39,22.39,0,0,1-8.06-11.21A48.92,48.92,0,0,1,8.6,182.55q-.15-25.4.09-50.78a51.07,51.07,0,0,1,2.5-16.44,29.31,29.31,0,0,1,2.81-6,11.76,11.76,0,0,1,9.91-5.8m0-.5h0a12.3,12.3,0,0,0-10.33,6,29.55,29.55,0,0,0-2.86,6.13,51,51,0,0,0-2.53,16.61C8,149.13,8,166.22,8.1,182.55a49.73,49.73,0,0,0,2.61,15.91A23.08,23.08,0,0,0,19,209.92a15.29,15.29,0,0,0,9,3,14.3,14.3,0,0,0,12.61-7.65A25.7,25.7,0,0,0,43,197.76c1.29-6.81,1-13.79.75-20.54a3.25,3.25,0,0,0-.19-.85,3.62,3.62,0,0,1-.14-.43l-.1-.37h-.4c-.9,0-1.79,0-2.55,0H38.56a47.59,47.59,0,0,0-5.45.24l-.44.06v1.74c0,.84,0,1.58,0,2.33,0,1.17,0,2.35,0,3.53,0,2.92,0,5.94-.17,8.9a27.48,27.48,0,0,1-1.21,6.41c-.55,1.83-1.8,2.92-3.35,2.92a4.61,4.61,0,0,1-2.7-1,9.45,9.45,0,0,1-1.63-1.65,14.23,14.23,0,0,1-3.18-7.2l-.14-1a74.8,74.8,0,0,1-1-10.23c-.12-15.71,0-31.57,0-45.2a76.34,76.34,0,0,1,.67-10.36,39.63,39.63,0,0,1,2.16-8.48c.62-1.64,1.24-2.44,1.87-2.44s1.39.58,2.47,1.77a12.31,12.31,0,0,1,2.9,6.56,65.65,65.65,0,0,1,.75,15.63c-.14,1.8-.17,3.63-.19,5.4l0,1.3A5.13,5.13,0,0,0,30,146c0,.19.07.39.11.62l.06.43H40.32l.12-.32c0-.07.07-.15.1-.21a2.3,2.3,0,0,0,.19-.54l0-.18a9.47,9.47,0,0,0,.2-1.43c.38-7.81.77-15.9-.67-23.87a23.07,23.07,0,0,0-7.9-14.2A13.23,13.23,0,0,0,23.91,103Z" transform="translate(-8.04 -25.29)"/><path class="cls-2" d="M137.67,210.44v-.24c0-1-.07-1.91-.1-2.82-.07-1.89-.14-3.68-.16-5.47q-.08-9.28-.12-18.58-.08-11.52-.17-23c0-3.38-.09-6.76-.15-10.14-.1-5.72-.21-11.64-.16-17.46a115.14,115.14,0,0,1,1.18-14,19.9,19.9,0,0,1,4.57-10.39,11.9,11.9,0,0,1,9.16-4.64,13.1,13.1,0,0,1,6.52,1.87,15.6,15.6,0,0,1,6.47,7A38.19,38.19,0,0,1,167.88,124a133.34,133.34,0,0,1,.88,20.25,3.93,3.93,0,0,1-.18,1c-.05.18-.11.37-.16.59l0,.2h-10l0-.22c0-.2,0-.4-.07-.61a13.54,13.54,0,0,1-.15-1.61c0-1.3,0-2.59,0-3.89,0-2.15,0-4.38-.09-6.57-.21-4.87-.56-10-2.47-15a6.49,6.49,0,0,0-2.55-3.35,2,2,0,0,0-1-.35,1.62,1.62,0,0,0-1.2.68,10.81,10.81,0,0,0-2.36,5.54l0,.38a59.62,59.62,0,0,0-.84,8.65c0,9,.12,18.16.23,27q.06,4.74.11,9.48a2.9,2.9,0,0,0,.06.43c0,.05,0,.12,0,.19l1,0c2,0,4-.19,6-.37s4.14-.38,6.27-.38l1.19,0h.24v10.37L148,177.62c0,.14,0,.28-.05.41a9.1,9.1,0,0,0-.1,1.13c0,7.35.05,14.69.1,22,0,.88,0,1.76.08,2.64.06,1.39.11,2.84.05,4.25-.1,2.18-.41,2.33-2.53,2.35h-7.88Z" transform="translate(-8.04 -25.29)"/><path class="cls-3" d="M151.71,103.93a12.88,12.88,0,0,1,6.4,1.84,15.45,15.45,0,0,1,6.37,6.94,38.65,38.65,0,0,1,3.15,11.3,132.6,132.6,0,0,1,.88,20.22,9.1,9.1,0,0,1-.33,1.5h-9.59c-.07-.65-.21-1.42-.22-2.2-.06-3.48,0-7-.12-10.46-.22-5.11-.62-10.22-2.49-15.07a6.67,6.67,0,0,0-2.65-3.47,2.16,2.16,0,0,0-1.14-.39,1.83,1.83,0,0,0-1.39.77,11,11,0,0,0-2.41,5.67,62.91,62.91,0,0,0-.9,9.06c0,12.17.21,24.34.34,36.5a7.66,7.66,0,0,0,.12.86c.42,0,.83,0,1.25,0,4,0,8.07-.75,12.26-.75l1.18,0v9.9l-14.64,1.19a17.13,17.13,0,0,0-.18,1.77q0,11,.1,22c0,2.3.23,4.6.13,6.88-.09,2-.27,2.09-2.28,2.11h-7.64c-.1-3-.24-5.63-.26-8.28-.11-13.87-.17-27.75-.29-41.63-.08-9.19-.39-18.39-.31-27.59a114.79,114.79,0,0,1,1.18-14,19.77,19.77,0,0,1,4.51-10.26,11.66,11.66,0,0,1,9-4.55m0-.5a12.13,12.13,0,0,0-9.35,4.73,20.2,20.2,0,0,0-4.63,10.52,117.53,117.53,0,0,0-1.18,14c-.05,5.83.06,11.75.16,17.48.06,3.32.12,6.75.15,10.12q.1,11.49.17,23,0,9.33.12,18.65c0,1.8.09,3.59.16,5.49,0,.91.07,1.84.1,2.81v.48h8.13c2.23,0,2.68-.23,2.78-2.58.06-1.43,0-2.88-.05-4.28,0-.87-.07-1.76-.08-2.63,0-7.45-.08-15-.1-22a8.81,8.81,0,0,1,.1-1.1l0-.2,5.75-.47,8.48-.69.46,0V165.82l-.48,0-1.2,0c-2.14,0-4.25.19-6.3.38s-4,.37-6,.37l-.82,0a2.38,2.38,0,0,1,0-.37q0-4.72-.11-9.45c-.11-8.87-.22-18-.23-27.05a59.48,59.48,0,0,1,.84-8.63l0-.36a10.47,10.47,0,0,1,2.3-5.41c.45-.54.79-.6,1-.6a1.73,1.73,0,0,1,.88.32,6.19,6.19,0,0,1,2.45,3.22c1.89,4.91,2.24,10.06,2.45,14.91.09,2.19.09,4.41.09,6.57,0,1.29,0,2.59,0,3.88a13.67,13.67,0,0,0,.15,1.64c0,.21,0,.41.08.6l0,.45h10.44l.08-.39c.05-.22.11-.41.16-.59a3.81,3.81,0,0,0,.19-1,132.67,132.67,0,0,0-.89-20.29,38.37,38.37,0,0,0-3.19-11.45,16.06,16.06,0,0,0-6.57-7.15,13.31,13.31,0,0,0-6.65-1.91Z" transform="translate(-8.04 -25.29)"/><path class="cls-2" d="M102.22,210.41l0-.23c0-.27,0-.54-.07-.8-.06-.56-.11-1.09-.12-1.63q-.06-5.72-.1-11.44-.07-8.64-.17-17.28-.09-6.41-.2-12.82c-.13-7.47-.27-15.2-.28-22.8,0-6.43.25-12.74.64-20.25a26,26,0,0,1,2.62-9.94A16,16,0,0,1,110,106.7a11.18,11.18,0,0,1,6.32-2.06,12.07,12.07,0,0,1,4.92,1.12,15.83,15.83,0,0,1,7.94,7.72,38,38,0,0,1,3.12,10.7c1,6.39,1,12.93.95,19.24v2.13a7.31,7.31,0,0,1-.15,1.25c0,.22-.08.46-.11.73l0,.17-.17,0a26.56,26.56,0,0,1-5.14.42,35.25,35.25,0,0,0-4.41.27l-.26,0,0-.26c0-.33-.07-.63-.1-.91-.07-.6-.12-1.11-.14-1.63,0-1.32,0-2.64,0-3.95,0-2.58,0-5.24-.21-7.84-.26-3.88-.82-7.78-1.37-11.44a14.89,14.89,0,0,0-1-3.2l-.29-.75a6.17,6.17,0,0,0-1-1.64c-.85-1-1.57-1.47-2.21-1.47s-1.43.64-2.17,1.94c-1.42,2.53-1.79,5.35-2.06,8.26a199.23,199.23,0,0,0-.32,24.29l0,1.48c.09,3.42.15,6.84.21,10.25l.06,4c0,.54,0,1.07,0,1.65v.65c2.14-.09,4.26-.26,6.31-.43,2.74-.23,5.57-.47,8.4-.47h.68v10.37l-15.25,1.26c0,.2,0,.39,0,.57,0,.48-.08.9-.08,1.31.05,3.72.09,7.43.14,11.14q.09,6.9.17,13.8c0,1,0,2.07-.07,3.16,0,.51,0,1,0,1.54v.25Z" transform="translate(-8.04 -25.29)"/><path class="cls-3" d="M116.27,104.89a11.75,11.75,0,0,1,4.82,1.1,15.44,15.44,0,0,1,7.81,7.59,38.12,38.12,0,0,1,3.1,10.64c1.13,7.08,1,14.21.94,21.33a15.4,15.4,0,0,1-.26,1.94c-3.09.65-6.21.21-9.53.69-.1-1-.22-1.74-.24-2.52-.08-3.93,0-7.88-.25-11.79s-.8-7.66-1.38-11.47a18.94,18.94,0,0,0-1.32-4,6,6,0,0,0-1-1.71c-.89-1-1.67-1.56-2.4-1.56s-1.61.69-2.39,2.07c-1.46,2.59-1.82,5.48-2.09,8.36-.82,8.59-.51,17.2-.28,25.8.13,4.75.19,9.5.27,14.25,0,.8,0,1.6,0,2.54,5.11-.17,10-.9,15-.9h.43v9.9l-15.23,1.25c-.06.84-.16,1.48-.15,2.13.1,8.31.22,16.62.31,24.93,0,1.53-.08,3.06-.12,4.7h-9.81c-.07-.84-.18-1.62-.19-2.41-.1-9.58-.15-19.15-.27-28.72-.15-11.88-.46-23.75-.48-35.62,0-6.75.29-13.5.64-20.23a25.76,25.76,0,0,1,2.59-9.85,15.85,15.85,0,0,1,5.35-6.43,11,11,0,0,1,6.18-2m0-.5a11.49,11.49,0,0,0-6.46,2.1,16.23,16.23,0,0,0-5.51,6.63,25.87,25.87,0,0,0-2.64,10c-.4,7.51-.67,13.83-.65,20.26,0,7.6.15,15.33.28,22.8q.1,6.4.2,12.82c.07,5.76.12,11.61.17,17.27,0,3.82.06,7.63.1,11.45,0,.56.06,1.09.12,1.66,0,.26.05.52.07.79l0,.46h10.75l0-.49c0-.52,0-1,0-1.54,0-1.09.08-2.12.07-3.17,0-4.65-.11-9.28-.17-13.92q-.08-5.52-.14-11c0-.4,0-.81.08-1.28l0-.37,11-.91,3.83-.32.46,0V166.76H127c-2.84,0-5.68.24-8.43.47-2,.16-4,.33-6,.42v-.38c0-.58,0-1.12,0-1.66l-.06-4c-.06-3.37-.11-6.86-.21-10.28l0-1.48a200.7,200.7,0,0,1,.31-24.26c.28-2.89.64-5.68,2-8.16.69-1.22,1.32-1.82,2-1.82s1.23.47,2,1.39a5.71,5.71,0,0,1,.93,1.56c.09.25.19.5.29.75a14.31,14.31,0,0,1,1,3.14c.55,3.66,1.11,7.56,1.37,11.43.18,2.59.19,5.25.21,7.82,0,1.32,0,2.64,0,3.95,0,.54.08,1.08.14,1.66,0,.28.07.58.1.9l0,.52.52-.07a34.66,34.66,0,0,1,4.38-.27,26.77,26.77,0,0,0,5.18-.43l.34-.07,0-.35q.06-.39.12-.72a7.41,7.41,0,0,0,.15-1.29v-2.12c0-6.33.07-12.88-.95-19.28a38.48,38.48,0,0,0-3.15-10.78,16,16,0,0,0-8.06-7.83,12.24,12.24,0,0,0-5-1.15Z" transform="translate(-8.04 -25.29)"/><path class="cls-2" d="M175.34,210.82a2.81,2.81,0,0,1-.5-.07l-.45-.08-.19,0,0-.2c0-.32,0-.66-.07-1-.06-.72-.12-1.46-.11-2.2q.18-20.87.39-41.74l.17-18.39q.16-16.69.35-33.37a24.26,24.26,0,0,1,.37-3.32c.09-.59.19-1.18.26-1.77a2.07,2.07,0,0,1,2.29-2c1.51,0,3-.11,4.51-.18,1.32-.06,2.63-.12,3.94-.16,3.86-.11,7.72-.19,11.58-.27h0a9.72,9.72,0,0,1,1.23.1l.69.08.22,0,.42,9.75-.21,0a30.74,30.74,0,0,1-6,.42h-1.47l-2.76,0h-4.38c0,.24,0,.48-.06.7-.06.58-.11,1.09-.12,1.6l-.09,11.75q-.06,7.94-.13,15.85c0,4.17-.11,8.34-.18,12.51,0,2.14-.07,4.28-.1,6.41,0,.54,0,1.07,0,1.68v.73l13.23-.52.88,10.11-14.09.86v22c.61,0,1.25.07,2,.07,1.44,0,2.91-.1,4.33-.19s2.89-.19,4.35-.19c.82,0,1.57,0,2.29.09l.23,0v2.44c0,2.3,0,4.48-.06,6.66,0,.49-.64.93-1.24,1.3a1.27,1.27,0,0,1-.66.14h-.52l-20.29.4Z" transform="translate(-8.04 -25.29)"/><path class="cls-3" d="M197.94,106.26c.55,0,1.11.11,1.83.18.13,3.1.26,6.11.4,9.32a40.7,40.7,0,0,1-7.4.42l-2.75,0h-4.61c-.08,1-.19,1.77-.2,2.54-.08,9.21-.13,18.41-.22,27.61-.07,6.31-.19,12.61-.28,18.92,0,.8,0,1.6,0,2.67l13.26-.52c.28,3.3.54,6.29.83,9.61l-14.07.86v22.44c.73.06,1.47.09,2.2.09,2.9,0,5.78-.38,8.68-.38.75,0,1.51,0,2.27.09,0,3.12,0,6-.06,8.86,0,.39-.67.82-1.12,1.1a1.12,1.12,0,0,1-.53.1h-.57l-20.24.4h0c-.21,0-.43-.07-.91-.14-.06-1-.19-2.11-.18-3.18q.23-25.16.47-50.31c.14-14.4.26-28.8.44-43.19a48.55,48.55,0,0,1,.63-5.06,1.83,1.83,0,0,1,2.05-1.82c2.82-.07,5.63-.25,8.45-.34,3.85-.11,7.71-.19,11.57-.26h.08m0-.5h-.09c-4.67.08-8.24.17-11.58.26-1.32,0-2.64.1-4,.16-1.47.07-3,.14-4.48.18a2.34,2.34,0,0,0-2.54,2.27c-.07.58-.16,1.17-.26,1.74a25,25,0,0,0-.37,3.36c-.14,11.15-.25,22.48-.35,33.44l-.09,9.75-.08,8.08q-.19,21.12-.39,42.23c0,.76.05,1.51.11,2.23,0,.33,0,.66.07,1l0,.4.4.06.44.08a2.76,2.76,0,0,0,.54.07l20.27-.4h.56a1.45,1.45,0,0,0,.78-.18c.7-.42,1.35-.89,1.37-1.5.07-2.19.07-4.37.06-6.67v-2.67l-.46,0c-.73-.06-1.48-.09-2.31-.09-1.46,0-2.94.1-4.37.19s-2.88.19-4.31.19c-.6,0-1.16,0-1.7,0V178.35l9.06-.55,4.54-.28.51,0-.05-.51-.29-3.44-.54-6.18,0-.47-.47,0-12.74.5v-.47c0-.61,0-1.14,0-1.67,0-2.15.07-4.29.1-6.43.07-4.1.14-8.33.18-12.49q.07-7.93.13-15.85l.09-11.76c0-.5.06-1,.11-1.57,0-.16,0-.32.05-.48H190l2.76,0h1.47a31.24,31.24,0,0,0,6-.42l.42-.09,0-.42-.19-4.49-.21-4.84,0-.43-.43,0-.69-.08a9.88,9.88,0,0,0-1.19-.1Z" transform="translate(-8.04 -25.29)"/><path class="cls-2" d="M205.48,210.82a2.46,2.46,0,0,1-.52-.09l-.47-.11-.19,0v-.19c0-.34,0-.67,0-1,0-.68-.08-1.33-.08-2q.34-39,.7-77.92c.06-6,.15-11.41.29-16.7a22,22,0,0,1,.56-4c.43-2,.6-2.09,2.6-2.18,5.52-.24,11.1-.39,16-.53.68,0,1.36,0,2,0l3.91,0v10.09h-.23c-2.71.23-5.49.25-8.19.28-1.91,0-3.89,0-5.83.12-.48,3.39-1.06,46.2-.68,50.89l.24,0a4.7,4.7,0,0,0,.84.1c1.39-.05,2.69-.12,4-.18,1.51-.08,3-.16,4.54-.22h.42c.55,0,1.11,0,1.7.07l1.09.06h.22l.81,9.92-14.05.84-.39,21.95c.74.06,1.51.09,2.35.09,1.46,0,2.91-.09,4.32-.18s2.8-.19,4.19-.19a24.16,24.16,0,0,1,2.49.12l.22,0v2.68c0,2.14,0,4.18,0,6.21a1.47,1.47,0,0,1-1.47,1.55h-.12c-.26,0-.52,0-.78,0l-20.47.41Z" transform="translate(-8.04 -25.29)"/><path class="cls-3" d="M226.38,106.31l3.66,0v9.61c-4.68.38-9.48.17-14.2.4-.5,1.64-1.12,47.82-.72,51.35a9.33,9.33,0,0,0,1.32.17h.1c2.81-.11,5.63-.29,8.45-.4h.41c.88,0,1.77.08,2.78.13.26,3.21.51,6.2.77,9.45l-14,.83c-.13,7.49-.26,14.91-.39,22.42.87.08,1.74.11,2.6.11,2.91,0,5.72-.37,8.51-.37a22.51,22.51,0,0,1,2.46.12c0,3,0,5.86,0,8.66a1.21,1.21,0,0,1-1.24,1.3c-.29,0-.59,0-.88,0l-20.47.41h0a7.88,7.88,0,0,1-1-.19c0-1-.13-2-.13-3q.34-39,.7-77.92.09-8.35.29-16.7a20.44,20.44,0,0,1,.56-4c.39-1.8.44-1.89,2.36-2,5.33-.23,10.67-.38,16-.53.68,0,1.36,0,2,0m0-.5c-.69,0-1.38,0-2.06,0-4.93.14-10.53.3-16,.54-2.11.09-2.37.31-2.82,2.37a21.46,21.46,0,0,0-.57,4c-.14,5.28-.23,10.75-.29,16.7q-.36,39-.7,77.93c0,.66,0,1.31.08,2,0,.32,0,.64,0,1l0,.39.38.08.46.1a2.28,2.28,0,0,0,.59.1l20.49-.41c.27,0,.54,0,.81,0h.1a1.7,1.7,0,0,0,1.7-1.8c0-2,0-4.05,0-6.18v-2.94l-.45,0a24.42,24.42,0,0,0-2.51-.12c-1.4,0-2.83.1-4.21.19s-2.85.18-4.3.18c-.74,0-1.43,0-2.1-.07l0-1,.36-20.46,13.57-.8.51,0,0-.51-.48-5.88-.29-3.57,0-.44-.44,0-1.08-.06c-.6,0-1.16-.07-1.72-.07H225c-1.52.06-3,.14-4.56.22l-3.89.18h-.08a4.46,4.46,0,0,1-.8-.09h0c-.32-5.36.23-46,.68-50.44,1.86-.08,3.76-.1,5.6-.11,2.7,0,5.5,0,8.21-.28l.46,0V105.83h-4.16Z" transform="translate(-8.04 -25.29)"/><path class="cls-2" d="M67.44,187.18a26.2,26.2,0,0,1,.17-52.39h.16a26.18,26.18,0,0,1,18.57,7.85,25.73,25.73,0,0,1,7.51,18.41A26,26,0,0,1,67.7,187.18Zm.11-41.74a15.6,15.6,0,1,0,.08,0v-.25Z" transform="translate(-8.04 -25.29)"/><path class="cls-3" d="M67.61,135h.15a25.95,25.95,0,0,1-.06,51.89h-.26A25.95,25.95,0,0,1,67.61,135m0,41.74a15.8,15.8,0,1,0,0-31.59h-.09a15.8,15.8,0,0,0,.12,31.59m0-42.24h0a26.45,26.45,0,0,0-.18,52.89h.27a26.45,26.45,0,0,0,.07-52.89Zm0,41.74a15.3,15.3,0,0,1-.11-30.59h.08a15.33,15.33,0,0,1,10.86,26.13,15.16,15.16,0,0,1-10.83,4.46Z" transform="translate(-8.04 -25.29)"/><path class="cls-2" d="M70.71,203.39c-9.47,0-19.53-.19-20.69-.6l-.16-.06V193h.24l9-.14c8.79-.15,17.88-.29,26.91-.29h5.54v.25c.09,3.07.08,6.09,0,9.79v.21l-.2,0C89,203.24,78.76,203.39,70.71,203.39Z" transform="translate(-8.04 -25.29)"/><path class="cls-3" d="M86,192.79h5.3c.1,3.4.06,6.55,0,9.79-2.14.37-11.39.55-20.59.55-9.8,0-19.54-.2-20.6-.59v-9.33c12-.17,23.88-.43,35.93-.43m0-.5c-9,0-18.1.14-26.89.29l-9,.14h-.49V202.9l.33.12c1.35.49,13.69.62,20.77.62,8.06,0,18.31-.15,20.68-.56l.4-.07v-.41c.12-3.71.13-6.74,0-9.81v-.48H86Z" transform="translate(-8.04 -25.29)"/><path class="cls-2" d="M38,87.17a2.56,2.56,0,0,1-1.07-2.77,8.18,8.18,0,0,1,3.13-5.46,20.06,20.06,0,0,1,8.35-4,73.18,73.18,0,0,1,9.22-1.36c6.94-.56,13.92-.9,20.69-2.7A95.59,95.59,0,0,0,88,67.52a8.22,8.22,0,0,0,5.22-4.84c.06-.17.29-.27.82-.31a13.83,13.83,0,0,1-.48,2.16,10.39,10.39,0,0,1-5.24,5.52,51.94,51.94,0,0,1-13,4.46,4.36,4.36,0,0,1-.87.13c-3.27.09-4.91,2.28-6.58,5.1l2.57-.54c1.68-.33,2.16,0,2.83,2.2-1.31.4-2.63.78-3.94,1.19-4.75,1.5-3.41.23-5.67,4.76-.76,1.52-1.39,3.1-2.05,4.59a3.46,3.46,0,0,0,.44.69c2.64,2.33,3.12,5.36,2.39,8.55A26.2,26.2,0,0,1,58.11,113a4.07,4.07,0,0,1-2,1.22,2.43,2.43,0,0,1-2.79-2.67,36.89,36.89,0,0,1,1.11-6.78c1-3.49,2.18-6.92,3.29-10.37.18-.55.34-1.1.52-1.7-2-1.11-4.06-1.28-6.08-1.62-1.39-.23-2.8-.29-4.2-.49A4.37,4.37,0,0,1,46,90.09a3.29,3.29,0,0,1-1.26-1.69c-.22-.88.66-1.22,1.33-1.53a28.42,28.42,0,0,1,3.08-1.26c4.5-1.49,9-3,13.54-4.37A3.71,3.71,0,0,0,65,79.65c.73-1.18,1.59-2.29,2.36-3.38-.17-.19-.26-.38-.34-.37-6.28.42-12.64.06-18.76,1.83A28,28,0,0,0,42,80.55a6.82,6.82,0,0,0-3.63,5.56A5.62,5.62,0,0,1,38,87.17Zm18.76,22.12c2.61-3.58,4.51-7.45,4.74-12a3.16,3.16,0,0,0-.75-2.64C59.15,97.58,56.75,106,56.77,109.29ZM61.9,84.86,51.53,88.22l7.76,2.18C60.08,88.71,60.89,87,61.9,84.86Z" transform="translate(-8.04 -25.29)"/><path class="cls-2" d="M98.86,92.88c5.85-3.77,7.36-6.65,6.15-11.44l-1.21,1.64c-2.13,2.94-4.17,6-6.43,8.8a16.88,16.88,0,0,1-4,3.54c-3.26,2.14-5.61,1.17-6.67-2.56a6.41,6.41,0,0,0-.29-.67c-.94,1.59-1.78,3-2.66,4.48A22.8,22.8,0,0,1,82.15,99a1.89,1.89,0,0,1-2.33.8,2.12,2.12,0,0,1-1.36-2.32c.1-1.19.3-2.36.49-3.53s.48-2.18.61-3.28c.21-1.79.11-1.88-1.89-2.57-.94,2.25-1.76,4.55-2.84,6.73-1.18,2.39-2.57,4.67-3.92,7a5.52,5.52,0,0,1-1.34,1.47,1.52,1.52,0,0,1-2-.18,1.14,1.14,0,0,1-.16-1.6c.69-1.23,1.4-2.45,2-3.7C71.2,94.41,73,91,74.71,87.55a3.4,3.4,0,0,0,.23-2.78c-.44-1.35,0-2.16.86-2.34s2.52.72,2.39,1.78c-.23,1.88.83,2.62,2.15,3.42,1.63,1,1.81,2.61,1.56,4.32a8.16,8.16,0,0,0-.16,2.64,7.12,7.12,0,0,0,.64-.81c2.48-4.13,5-8.26,7.42-12.42a12.66,12.66,0,0,1,4.4-4.92c1.65-1,3.37-.35,3.73,1.28a3.74,3.74,0,0,1,0,1.76A16.46,16.46,0,0,1,91.42,89c-2.21,1.54-2.48,2.09-1.66,5.13A16.73,16.73,0,0,0,92,92.78,58.76,58.76,0,0,0,104.52,77a13.19,13.19,0,0,0,.65-2.34c.24-.69.51-1.46,1.47-1.4.77.06,1.72,1.17,1.45,2-1.07,3-.18,6-.07,9a10.33,10.33,0,0,1-3.38,8.6A5.31,5.31,0,0,1,100.91,94C100.32,94,99.74,93.38,98.86,92.88ZM95.28,79.1a10.3,10.3,0,0,0-3.49,5.42A10,10,0,0,0,95.28,79.1Z" transform="translate(-8.04 -25.29)"/><path class="cls-2" d="M114.5,76.71c1.52-2,2.84-3.76,4.23-5.48.66-.82,1.42-1.57,2.66-1A2.43,2.43,0,0,1,122.85,73c-.26,1.83-.58,3.66-1,5.47-.79,3.83-1.87,7.62-1.7,11.58-1.74.08-2.37-.25-2.57-1.7a12.74,12.74,0,0,1,0-3.75c.42-2.79,1-5.55,1.52-8.32a7.21,7.21,0,0,0,.17-2c-3.92,4.55-6,10-7.36,15.71-1.64-.15-1.82-1-1.68-2.08.32-2.42.56-4.87,1-7.27,1-5.46,2.09-10.92,3.25-16.35a11.86,11.86,0,0,1,1.52-3.44A1.93,1.93,0,0,1,117.6,60c.94.24.66,1.1.47,1.86-1.18,4.66-2.34,9.34-3.5,14A6.56,6.56,0,0,0,114.5,76.71Z" transform="translate(-8.04 -25.29)"/><path class="cls-2" d="M67,119c-1-.64-1-1.41-.46-2.15a18.92,18.92,0,0,1,2.1-2.28,48.36,48.36,0,0,1,11-7.15,92,92,0,0,1,22.71-8.17,84.65,84.65,0,0,1,16.34-1.73c.68,0,1.79-.32,1.86.63.08,1.21-1.13.85-1.84.9a91.75,91.75,0,0,0-20.41,4.2A96.05,96.05,0,0,0,74.21,114C71.78,115.49,69.49,117.24,67,119Z" transform="translate(-8.04 -25.29)"/><path class="cls-4" d="M203.22,62.33c1.43-.78,2.31-1.31,3.23-1.75a15,15,0,0,1,2.48-1A5.68,5.68,0,0,1,216.38,64a10.36,10.36,0,0,1-.13,5.71c-2.16,6.77-7,10.41-13.77,11.82a14.69,14.69,0,0,1-2.68,0l-.55,1.11c2.81.86,5.57,1.52,8.16,2.56a20.19,20.19,0,0,1,5.32,3.13c2.28,1.89,2.2,4.28-.28,5.94a24.13,24.13,0,0,1-6.2,2.87A77.2,77.2,0,0,1,189.16,100a142.8,142.8,0,0,1-20.89,0c-7.63-.58-15.21-1.51-22.47-4a35.47,35.47,0,0,1-5.23-2.44,7.9,7.9,0,0,1-2.16-1.88c-1.3-1.54-1.35-3.23.11-4.59a15.18,15.18,0,0,1,4.23-2.75,63.79,63.79,0,0,1,6.41-2c-.41-.6-.83-1.15-1.18-1.74-1.75-2.92-3.7-5.75-5.15-8.81a34.2,34.2,0,0,1-2.14-7.2,7.33,7.33,0,0,1,1.65-6.24,15.44,15.44,0,0,1,8.88-5.54,61.57,61.57,0,0,1,16.12-1.6,154.56,154.56,0,0,1,23,2,31.18,31.18,0,0,1,9.9,3.18C202.49,57.49,204.35,58.89,203.22,62.33Zm-.74.45a7.27,7.27,0,0,0-.93.43,34.61,34.61,0,0,1-11.45,4.72A91.83,91.83,0,0,1,161.82,70,42.61,42.61,0,0,1,148,66.93a13.63,13.63,0,0,1-5.12-3.44c-.25-.29-.57-.52-1.23-1.13a15.6,15.6,0,0,0,.23,2.88A39.11,39.11,0,0,0,144,71.3a43.65,43.65,0,0,0,7.89,11,34.76,34.76,0,0,0,14.94,9.24c6.36,2,12.6,1.83,18.51-1.5a81.17,81.17,0,0,0,6.91-4.45,21.28,21.28,0,0,0,7.25-9.65C201.18,71.74,201.79,67.36,202.48,62.78Zm-22.8,36.06a122.52,122.52,0,0,0,21.12-1.75c3.64-.68,7.26-1.59,10.39-3.75,2.31-1.59,2.35-3.38,0-4.92a29.94,29.94,0,0,0-11.4-4.14,2.33,2.33,0,0,0-2.47,1A24,24,0,0,1,185.88,93a33.73,33.73,0,0,1-12.95,1.58,29.93,29.93,0,0,1-17.5-6.28,46.31,46.31,0,0,1-4.23-3.94,1.81,1.81,0,0,0-2.15-.62c-2.43.88-4.88,1.7-7.31,2.59a5.16,5.16,0,0,0-1.32.81c-2,1.48-2,3,0,4.47a15.2,15.2,0,0,0,3.48,1.93,50,50,0,0,0,5.7,1.87C159.4,98,169.46,98.55,179.68,98.84Zm18.57-36a4.4,4.4,0,0,0-3.52-2.91,53.62,53.62,0,0,0-8.45-1.79,101.66,101.66,0,0,0-28.35.84,36.63,36.63,0,0,0-9.8,2.73c-1,.5-2.17,1-2.52,2.24C154.86,69.81,185.1,69.62,198.25,62.85Zm1.6-.68a13.67,13.67,0,0,0,1.4-.81c1.05-.76,1.17-1.39.34-2.38a5.16,5.16,0,0,0-1.52-1.27,33.3,33.3,0,0,0-4-1.89c-4.58-1.73-9.42-2.07-14.23-2.13-6.59-.09-13.19.14-19.77.46a46.11,46.11,0,0,0-12.45,2.23A14.51,14.51,0,0,0,144,59.47c-1.55,1.46-1.5,2,.29,3.45a21.8,21.8,0,0,1,9.52-4.51,89.82,89.82,0,0,1,22.28-2.27A63.16,63.16,0,0,1,192.2,58C195.05,58.76,198,59.51,199.85,62.17Zm10.39,1.18c-2.82-.1-4.9,1.52-7,3.14-.19.15-.23.53-.28.81-.52,2.89-1,5.78-1.52,8.69C205.76,75.37,211.31,67.51,210.24,63.35Zm-9.67,16.36a4,4,0,0,0,.8,0c6.08-1.57,10-5.48,12.34-11.21a6.83,6.83,0,0,0,.06-5,3.15,3.15,0,0,0-3.15-2.36,9.54,9.54,0,0,0-7,3.5,9.94,9.94,0,0,0,1.49-.76,22.38,22.38,0,0,1,3.68-1.5c1.89-.46,3.18.48,3.51,2.41a4.73,4.73,0,0,1,0,1.76,13.47,13.47,0,0,1-5.07,8.37,10.58,10.58,0,0,1-6.19,2.52c-.2.66-.36,1.15-.49,1.65A3.22,3.22,0,0,0,200.57,79.71Z" transform="translate(-8.04 -25.29)"/><path class="cls-4" d="M189,47.85c-.16-.49-.29-.8-.36-1.12-.48-2.53-.87-5.09-1.46-7.59-.67-2.84-1.12-5.66-.3-8.53a8.48,8.48,0,0,1,2.8-4.43c.8-.63,1.67-1.23,2.86-.66-.05.25,0,.51-.15.63-3.26,3.55-3.55,7.79-3,12.27.29,2.26.55,4.54.73,6.81A2.58,2.58,0,0,1,189,47.85Z" transform="translate(-8.04 -25.29)"/><path class="cls-4" d="M163.6,47.27c-.35-.13-.47-.14-.47-.18-.73-4-1.48-8-2.14-12a10.7,10.7,0,0,1,1.4-7.28c.43-.73.88-1.57,2.19-1.2a8.05,8.05,0,0,1-.35,1.26,13.64,13.64,0,0,0-.86,9.75,18.33,18.33,0,0,1,.58,8.58C163.87,46.54,163.73,46.87,163.6,47.27Z" transform="translate(-8.04 -25.29)"/><path class="cls-4" d="M175.65,30a20.42,20.42,0,0,1-.56,2,5.91,5.91,0,0,0-.08,4.32c.57,1.67,1.13,3.36,1.57,5.07a5.84,5.84,0,0,1-1,5.34c-.14-.34-.35-.58-.32-.79.43-3-.74-5.66-2-8.25a6.3,6.3,0,0,1-.43-5.75C173.29,31,173.76,29.91,175.65,30Z" transform="translate(-8.04 -25.29)"/><path class="cls-4" d="M153.37,47.62c-.84-2.11-1.69-4.22-2.52-6.34-.5-1.29-.7-2.54.55-3.54.23.11.44.15.47.24.66,2.56,1.34,5.11,1.93,7.69a8.27,8.27,0,0,1-.07,2Z" transform="translate(-8.04 -25.29)"/><path class="cls-4" d="M181.29,89.05c5.74-3.53,11.2-7.36,14.61-13.51l.62.24c.15.49.53,1,.41,1.45a8.92,8.92,0,0,1-1.19,2.84A21.42,21.42,0,0,1,181.29,89.05Z" transform="translate(-8.04 -25.29)"/><path class="cls-4" d="M197.08,73.7c.09-1,.14-2,.32-2.93,0-.24.64-.61.82-.53.33.15.76.56.77.88A2.67,2.67,0,0,1,197.08,73.7Z" transform="translate(-8.04 -25.29)"/><path class="cls-4" d="M191.88,95.52c1.91-.47,3.8-1,5.73-1.38,3.51-.65,7-1.29,9.63-4,0-.06.26,0,.58.1a3.65,3.65,0,0,1-2.35,2.9A29.2,29.2,0,0,1,200.05,95c-2.64.57-5.35.84-8,1.24C192,96,191.93,95.76,191.88,95.52Z" transform="translate(-8.04 -25.29)"/><path class="cls-4" d="M142.23,90.13A7.37,7.37,0,0,1,143,88a5.4,5.4,0,0,1,4.27-2c.42,0,.84.44,1.26.68-.26.38-.44,1-.81,1.13C146.1,88.56,144.4,89.22,142.23,90.13Z" transform="translate(-8.04 -25.29)"/><path class="cls-4" d="M160.32,61.23l-1.76,2.13a3.76,3.76,0,0,0,2.94.18c2.75-.61,5.49-1.26,8.25-1.78,2.18-.42,2.39-.23,3.46,2.14,1.19-.44,2.44-.83,3.64-1.33a20,20,0,0,1,8.36-2h.44c2.52,0,3.74.57,3,3.93L187.18,62a21.43,21.43,0,0,0-3.28.29c-2.67.63-5.3,1.4-8,2.12-.29.07-.56.18-.85.25-2.54.6-3,.36-4.13-2.22l-4.44,1.09c-1.87.45-3.74.93-5.61,1.37a4.89,4.89,0,0,1-1.32.13c-1.41-.07-2.15-.69-2.13-1.76C157.49,62,158.59,61.14,160.32,61.23Z" transform="translate(-8.04 -25.29)"/><path class="cls-4" d="M198.25,62.85a4.4,4.4,0,0,0-3.52-2.91,53.62,53.62,0,0,0-8.45-1.79,101.66,101.66,0,0,0-28.35.84,36.63,36.63,0,0,0-9.8,2.73c-1,.5-2.17,1-2.52,2.24C154.86,69.81,185.1,69.62,198.25,62.85Z" transform="translate(-8.04 -25.29)"/></svg>